<?xml version="1.0" standalone="no"?>
<!DOCTYPE svg PUBLIC "-//W3C//DTD SVG 1.1//EN" "http://www.w3.org/Graphics/SVG/1.1/DTD/svg11.dtd">
<svg width="134mm" height="134mm" viewBox="-67 -67 134 134" xmlns="http://www.w3.org/2000/svg" version="1.1">
<title>OpenSCAD Model</title>
<path d="
M 12.5545,65.8132 L 20.7041,63.7208 L 28.5272,60.6234 L 35.9004,56.57 L 42.7074,51.6244 L 48.8409,45.8647
 L 54.2041,39.3816 L 58.7125,32.2775 L 62.295,24.6643 L 64.8951,16.6622 L 66.4717,8.39732 L 67,-0
 L 66.4717,-8.39732 L 64.8951,-16.6622 L 62.295,-24.6643 L 58.7125,-32.2775 L 54.2041,-39.3816 L 48.8409,-45.8647
 L 42.7074,-51.6244 L 35.9004,-56.57 L 28.5272,-60.6234 L 20.7041,-63.7208 L 12.5545,-65.8132 L 4.20695,-66.8678
 L -4.20695,-66.8678 L -12.5545,-65.8132 L -20.7041,-63.7208 L -28.5272,-60.6234 L -35.9004,-56.57 L -42.7074,-51.6244
 L -48.8409,-45.8647 L -54.2041,-39.3816 L -58.7125,-32.2775 L -62.295,-24.6643 L -64.8951,-16.6622 L -66.4717,-8.39732
 L -67,-0 L -66.4717,8.39732 L -64.8951,16.6622 L -62.295,24.6643 L -58.7125,32.2775 L -54.2041,39.3816
 L -48.8409,45.8647 L -42.7074,51.6244 L -35.9004,56.57 L -28.5272,60.6234 L -20.7041,63.7208 L -12.5545,65.8132
 L -4.20695,66.8678 L 4.20695,66.8678 z
M -0.18837,-57.0059 L -0.562134,-57.0531 L -0.927048,-57.1468 L -1.27733,-57.2855 L -1.60747,-57.467 L -1.91226,-57.6885
 L -2.1869,-57.9464 L -2.42705,-58.2366 L -2.62891,-58.5547 L -2.78932,-58.8956 L -2.90575,-59.2539 L -2.97633,-59.624
 L -3,-60 L -2.97633,-60.376 L -2.90575,-60.7461 L -2.78932,-61.1044 L -2.62891,-61.4453 L -2.42705,-61.7634
 L -2.1869,-62.0536 L -1.91226,-62.3115 L -1.60747,-62.533 L -1.27733,-62.7145 L -0.927048,-62.8532 L -0.562134,-62.9469
 L -0.18837,-62.9941 L 0.18837,-62.9941 L 0.562134,-62.9469 L 0.927048,-62.8532 L 1.27733,-62.7145 L 1.60747,-62.533
 L 1.91226,-62.3115 L 2.1869,-62.0536 L 2.42705,-61.7634 L 2.62891,-61.4453 L 2.78932,-61.1044 L 2.90575,-60.7461
 L 2.97633,-60.376 L 3,-60 L 2.97633,-59.624 L 2.90575,-59.2539 L 2.78932,-58.8956 L 2.62891,-58.5547
 L 2.42705,-58.2366 L 2.1869,-57.9464 L 1.91226,-57.6885 L 1.60747,-57.467 L 1.27733,-57.2855 L 0.927048,-57.1468
 L 0.562134,-57.0531 L 0.18837,-57.0059 z
M 1.12239,-45.7373 L 0.935516,-45.7609 L 0.753052,-45.8077 L 0.577911,-45.8771 L 0.412842,-45.9678 L 0.260452,-46.0786
 L 0.123123,-46.2075 L 0.00305176,-46.3526 L -0.0978699,-46.5117 L -0.17807,-46.6821 L -0.236282,-46.8613 L -0.271576,-47.0463
 L -0.283401,-47.2343 L -0.271576,-47.4223 L -0.236282,-47.6074 L -0.17807,-47.7865 L -0.0978699,-47.957 L 0.00305176,-48.116
 L 0.123123,-48.2612 L 0.260452,-48.3901 L 0.412842,-48.5008 L 0.577911,-48.5916 L 0.753052,-48.6609 L 0.935516,-48.7078
 L 1.12239,-48.7314 L 1.31076,-48.7314 L 1.49765,-48.7078 L 1.6801,-48.6609 L 1.85526,-48.5916 L 2.02032,-48.5008
 L 2.17271,-48.3901 L 2.31003,-48.2612 L 2.4301,-48.116 L 2.53104,-47.957 L 2.61125,-47.7865 L 2.66945,-47.6074
 L 2.70476,-47.4223 L 2.71658,-47.2343 L 2.70476,-47.0463 L 2.66945,-46.8613 L 2.61125,-46.6821 L 2.53104,-46.5117
 L 2.4301,-46.3526 L 2.31003,-46.2075 L 2.17271,-46.0786 L 2.02032,-45.9678 L 1.85526,-45.8771 L 1.6801,-45.8077
 L 1.49765,-45.7609 L 1.31076,-45.7373 z
M -3.74072,-45.612 L -3.92761,-45.6356 L -4.11006,-45.6825 L -4.2852,-45.7518 L -4.45027,-45.8426 L -4.60268,-45.9533
 L -4.73999,-46.0822 L -4.86006,-46.2274 L -4.961,-46.3864 L -5.0412,-46.5569 L -5.09941,-46.736 L -5.1347,-46.9211
 L -5.14653,-47.1091 L -5.1347,-47.2971 L -5.09941,-47.4821 L -5.0412,-47.6613 L -4.961,-47.8317 L -4.86006,-47.9908
 L -4.73999,-48.1359 L -4.60268,-48.2648 L -4.45027,-48.3756 L -4.2852,-48.4663 L -4.11006,-48.5357 L -3.92761,-48.5825
 L -3.74072,-48.6061 L -3.55235,-48.6061 L -3.36546,-48.5825 L -3.18301,-48.5357 L -3.00786,-48.4663 L -2.84279,-48.3756
 L -2.6904,-48.2648 L -2.55309,-48.1359 L -2.43301,-47.9908 L -2.33208,-47.8317 L -2.25186,-47.6613 L -2.19366,-47.4821
 L -2.15836,-47.2971 L -2.14653,-47.1091 L -2.15836,-46.9211 L -2.19366,-46.736 L -2.25186,-46.5569 L -2.33208,-46.3864
 L -2.43301,-46.2274 L -2.55309,-46.0822 L -2.6904,-45.9533 L -2.84279,-45.8426 L -3.00786,-45.7518 L -3.18301,-45.6825
 L -3.36546,-45.6356 L -3.55235,-45.612 z
M 5.97263,-45.3618 L 5.78574,-45.3855 L 5.60329,-45.4323 L 5.42815,-45.5016 L 5.26308,-45.5924 L 5.11067,-45.7031
 L 4.97336,-45.8321 L 4.85329,-45.9772 L 4.75235,-46.1363 L 4.67215,-46.3067 L 4.61394,-46.4859 L 4.57864,-46.6709
 L 4.56682,-46.8589 L 4.57864,-47.0469 L 4.61394,-47.2319 L 4.67215,-47.4111 L 4.75235,-47.5815 L 4.85329,-47.7406
 L 4.97336,-47.8857 L 5.11067,-48.0147 L 5.26308,-48.1254 L 5.42815,-48.2161 L 5.60329,-48.2855 L 5.78574,-48.3323
 L 5.97263,-48.3559 L 6.161,-48.3559 L 6.34789,-48.3323 L 6.53033,-48.2855 L 6.70549,-48.2161 L 6.87056,-48.1254
 L 7.02295,-48.0147 L 7.16026,-47.8857 L 7.28033,-47.7406 L 7.38127,-47.5815 L 7.46149,-47.4111 L 7.51968,-47.2319
 L 7.55499,-47.0469 L 7.56682,-46.8589 L 7.55499,-46.6709 L 7.51968,-46.4859 L 7.46149,-46.3067 L 7.38127,-46.1363
 L 7.28033,-45.9772 L 7.16026,-45.8321 L 7.02295,-45.7031 L 6.87056,-45.5924 L 6.70549,-45.5016 L 6.53033,-45.4323
 L 6.34789,-45.3855 L 6.161,-45.3618 z
M -8.5652,-44.9874 L -8.75208,-45.011 L -8.93454,-45.0579 L -9.10968,-45.1272 L -9.27475,-45.218 L -9.42714,-45.3287
 L -9.56447,-45.4576 L -9.68454,-45.6028 L -9.78546,-45.7618 L -9.86568,-45.9323 L -9.92389,-46.1114 L -9.95918,-46.2964
 L -9.97101,-46.4845 L -9.95918,-46.6725 L -9.92389,-46.8575 L -9.86568,-47.0366 L -9.78546,-47.2071 L -9.68454,-47.3661
 L -9.56447,-47.5113 L -9.42714,-47.6402 L -9.27475,-47.7509 L -9.10968,-47.8417 L -8.93454,-47.911 L -8.75208,-47.9579
 L -8.5652,-47.9815 L -8.37682,-47.9815 L -8.18994,-47.9579 L -8.00748,-47.911 L -7.83234,-47.8417 L -7.66727,-47.7509
 L -7.51488,-47.6402 L -7.37755,-47.5113 L -7.25748,-47.3661 L -7.15656,-47.2071 L -7.07634,-47.0366 L -7.01813,-46.8575
 L -6.98283,-46.6725 L -6.97101,-46.4845 L -6.98283,-46.2964 L -7.01813,-46.1114 L -7.07634,-45.9323 L -7.15656,-45.7618
 L -7.25748,-45.6028 L -7.37755,-45.4576 L -7.51488,-45.3287 L -7.66727,-45.218 L -7.83234,-45.1272 L -8.00748,-45.0579
 L -8.18994,-45.011 L -8.37682,-44.9874 z
M 10.7585,-44.4897 L 10.5717,-44.5133 L 10.3892,-44.5602 L 10.2141,-44.6295 L 10.049,-44.7202 L 9.89661,-44.831
 L 9.75929,-44.9599 L 9.63921,-45.1051 L 9.53828,-45.2641 L 9.45807,-45.4346 L 9.39986,-45.6137 L 9.36456,-45.7987
 L 9.35274,-45.9867 L 9.36456,-46.1747 L 9.39986,-46.3598 L 9.45807,-46.5389 L 9.53828,-46.7094 L 9.63921,-46.8684
 L 9.75929,-47.0135 L 9.89661,-47.1425 L 10.049,-47.2532 L 10.2141,-47.344 L 10.3892,-47.4133 L 10.5717,-47.4602
 L 10.7585,-47.4838 L 10.9469,-47.4838 L 11.1338,-47.4602 L 11.3163,-47.4133 L 11.4914,-47.344 L 11.6565,-47.2532
 L 11.8089,-47.1425 L 11.9462,-47.0135 L 12.0663,-46.8684 L 12.1672,-46.7094 L 12.2474,-46.5389 L 12.3056,-46.3598
 L 12.3409,-46.1747 L 12.3527,-45.9867 L 12.3409,-45.7987 L 12.3056,-45.6137 L 12.2474,-45.4346 L 12.1672,-45.2641
 L 12.0663,-45.1051 L 11.9462,-44.9599 L 11.8089,-44.831 L 11.6565,-44.7202 L 11.4914,-44.6295 L 11.3163,-44.5602
 L 11.1338,-44.5133 L 10.9469,-44.4897 z
M -13.2999,-43.87 L -13.4868,-43.8936 L -13.6692,-43.9405 L -13.8444,-44.0098 L -14.0094,-44.1006 L -14.1618,-44.2113
 L -14.2991,-44.3403 L -14.4192,-44.4854 L -14.5201,-44.6444 L -14.6004,-44.8149 L -14.6586,-44.994 L -14.6939,-45.1791
 L -14.7057,-45.3671 L -14.6939,-45.5551 L -14.6586,-45.7401 L -14.6004,-45.9193 L -14.5201,-46.0897 L -14.4192,-46.2487
 L -14.2991,-46.3939 L -14.1618,-46.5228 L -14.0094,-46.6336 L -13.8444,-46.7243 L -13.6692,-46.7937 L -13.4868,-46.8405
 L -13.2999,-46.8641 L -13.1115,-46.8641 L -12.9246,-46.8405 L -12.7422,-46.7937 L -12.567,-46.7243 L -12.4019,-46.6336
 L -12.2496,-46.5228 L -12.1122,-46.3939 L -11.9922,-46.2487 L -11.8912,-46.0897 L -11.811,-45.9193 L -11.7528,-45.7401
 L -11.7175,-45.5551 L -11.7057,-45.3671 L -11.7175,-45.1791 L -11.7528,-44.994 L -11.811,-44.8149 L -11.8912,-44.6444
 L -11.9922,-44.4854 L -12.1122,-44.3403 L -12.2496,-44.2113 L -12.4019,-44.1006 L -12.567,-44.0098 L -12.7422,-43.9405
 L -12.9246,-43.8936 L -13.1115,-43.87 z
M 15.4294,-43.1301 L 15.2426,-43.1537 L 15.0601,-43.2005 L 14.8849,-43.2699 L 14.7199,-43.3606 L 14.5675,-43.4713
 L 14.4302,-43.6003 L 14.3101,-43.7454 L 14.2092,-43.9045 L 14.129,-44.0749 L 14.0707,-44.2541 L 14.0354,-44.4391
 L 14.0236,-44.6271 L 14.0354,-44.8151 L 14.0707,-45.0002 L 14.129,-45.1793 L 14.2092,-45.3497 L 14.3101,-45.5088
 L 14.4302,-45.6539 L 14.5675,-45.7829 L 14.7199,-45.8936 L 14.8849,-45.9843 L 15.0601,-46.0537 L 15.2426,-46.1005
 L 15.4294,-46.1241 L 15.6178,-46.1241 L 15.8047,-46.1005 L 15.9872,-46.0537 L 16.1623,-45.9843 L 16.3274,-45.8936
 L 16.4798,-45.7829 L 16.6171,-45.6539 L 16.7372,-45.5088 L 16.8381,-45.3497 L 16.9183,-45.1793 L 16.9765,-45.0002
 L 17.0118,-44.8151 L 17.0236,-44.6271 L 17.0118,-44.4391 L 16.9765,-44.2541 L 16.9183,-44.0749 L 16.8381,-43.9045
 L 16.7372,-43.7454 L 16.6171,-43.6003 L 16.4798,-43.4713 L 16.3274,-43.3606 L 16.1623,-43.2699 L 15.9872,-43.2005
 L 15.8047,-43.1537 L 15.6178,-43.1301 z
M -17.8946,-42.2718 L -18.0815,-42.2954 L -18.2639,-42.3422 L -18.4391,-42.4116 L -18.6041,-42.5023 L -18.7565,-42.613
 L -18.8938,-42.742 L -19.0139,-42.8871 L -19.1149,-43.0462 L -19.1951,-43.2166 L -19.2533,-43.3958 L -19.2886,-43.5808
 L -19.3004,-43.7688 L -19.2886,-43.9568 L -19.2533,-44.1418 L -19.1951,-44.321 L -19.1149,-44.4914 L -19.0139,-44.6505
 L -18.8938,-44.7956 L -18.7565,-44.9246 L -18.6041,-45.0353 L -18.4391,-45.126 L -18.2639,-45.1954 L -18.0815,-45.2422
 L -17.8946,-45.2658 L -17.7062,-45.2658 L -17.5193,-45.2422 L -17.3369,-45.1954 L -17.1617,-45.126 L -16.9966,-45.0353
 L -16.8443,-44.9246 L -16.7069,-44.7956 L -16.5869,-44.6505 L -16.4859,-44.4914 L -16.4057,-44.321 L -16.3475,-44.1418
 L -16.3122,-43.9568 L -16.3004,-43.7688 L -16.3122,-43.5808 L -16.3475,-43.3958 L -16.4057,-43.2166 L -16.4859,-43.0462
 L -16.5869,-42.8871 L -16.7069,-42.742 L -16.8443,-42.613 L -16.9966,-42.5023 L -17.1617,-42.4116 L -17.3369,-42.3422
 L -17.5193,-42.2954 L -17.7062,-42.2718 z
M 19.9358,-41.2974 L 19.7489,-41.321 L 19.5664,-41.3678 L 19.3913,-41.4372 L 19.2262,-41.5279 L 19.0738,-41.6387
 L 18.9365,-41.7676 L 18.8164,-41.9128 L 18.7155,-42.0718 L 18.6353,-42.2422 L 18.5771,-42.4214 L 18.5418,-42.6064
 L 18.53,-42.7944 L 18.5418,-42.9824 L 18.5771,-43.1675 L 18.6353,-43.3466 L 18.7155,-43.5171 L 18.8164,-43.6761
 L 18.9365,-43.8212 L 19.0738,-43.9502 L 19.2262,-44.0609 L 19.3913,-44.1517 L 19.5664,-44.221 L 19.7489,-44.2679
 L 19.9358,-44.2915 L 20.1241,-44.2915 L 20.311,-44.2679 L 20.4935,-44.221 L 20.6686,-44.1517 L 20.8337,-44.0609
 L 20.9861,-43.9502 L 21.1234,-43.8212 L 21.2435,-43.6761 L 21.3444,-43.5171 L 21.4246,-43.3466 L 21.4828,-43.1675
 L 21.5181,-42.9824 L 21.53,-42.7944 L 21.5181,-42.6064 L 21.4828,-42.4214 L 21.4246,-42.2422 L 21.3444,-42.0718
 L 21.2435,-41.9128 L 21.1234,-41.7676 L 20.9861,-41.6387 L 20.8337,-41.5279 L 20.6686,-41.4372 L 20.4935,-41.3678
 L 20.311,-41.321 L 20.1241,-41.2974 z
M -22.3006,-40.2095 L -22.4875,-40.2331 L -22.6699,-40.28 L -22.8451,-40.3493 L -23.0101,-40.4401 L -23.1625,-40.5508
 L -23.2999,-40.6797 L -23.4199,-40.8249 L -23.5209,-40.9839 L -23.6011,-41.1544 L -23.6593,-41.3335 L -23.6946,-41.5186
 L -23.7064,-41.7066 L -23.6946,-41.8946 L -23.6593,-42.0796 L -23.6011,-42.2588 L -23.5209,-42.4292 L -23.4199,-42.5882
 L -23.2999,-42.7334 L -23.1625,-42.8623 L -23.0101,-42.9731 L -22.8451,-43.0638 L -22.6699,-43.1331 L -22.4875,-43.18
 L -22.3006,-43.2036 L -22.1122,-43.2036 L -21.9253,-43.18 L -21.7429,-43.1331 L -21.5677,-43.0638 L -21.4026,-42.9731
 L -21.2503,-42.8623 L -21.1129,-42.7334 L -20.9929,-42.5882 L -20.8919,-42.4292 L -20.8117,-42.2588 L -20.7535,-42.0796
 L -20.7182,-41.8946 L -20.7064,-41.7066 L -20.7182,-41.5186 L -20.7535,-41.3335 L -20.8117,-41.1544 L -20.8919,-40.9839
 L -20.9929,-40.8249 L -21.1129,-40.6797 L -21.2503,-40.5508 L -21.4026,-40.4401 L -21.5677,-40.3493 L -21.7429,-40.28
 L -21.9253,-40.2331 L -22.1122,-40.2095 z
M 24.2298,-39.0111 L 24.0429,-39.0347 L 23.8604,-39.0815 L 23.6853,-39.1509 L 23.5202,-39.2416 L 23.3678,-39.3523
 L 23.2305,-39.4813 L 23.1104,-39.6264 L 23.0095,-39.7855 L 22.9293,-39.9559 L 22.8711,-40.1351 L 22.8358,-40.3201
 L 22.824,-40.5081 L 22.8358,-40.6961 L 22.8711,-40.8811 L 22.9293,-41.0603 L 23.0095,-41.2307 L 23.1104,-41.3898
 L 23.2305,-41.5349 L 23.3678,-41.6639 L 23.5202,-41.7746 L 23.6853,-41.8654 L 23.8604,-41.9347 L 24.0429,-41.9815
 L 24.2298,-42.0052 L 24.4181,-42.0052 L 24.605,-41.9815 L 24.7875,-41.9347 L 24.9626,-41.8654 L 25.1277,-41.7746
 L 25.2801,-41.6639 L 25.4174,-41.5349 L 25.5375,-41.3898 L 25.6384,-41.2307 L 25.7186,-41.0603 L 25.7768,-40.8811
 L 25.8121,-40.6961 L 25.824,-40.5081 L 25.8121,-40.3201 L 25.7768,-40.1351 L 25.7186,-39.9559 L 25.6384,-39.7855
 L 25.5375,-39.6264 L 25.4174,-39.4813 L 25.2801,-39.3523 L 25.1277,-39.2416 L 24.9626,-39.1509 L 24.7875,-39.0815
 L 24.605,-39.0347 L 24.4181,-39.0111 z
M -26.4712,-37.7052 L -26.6581,-37.7288 L -26.8405,-37.7757 L -27.0157,-37.845 L -27.1808,-37.9357 L -27.3331,-38.0465
 L -27.4705,-38.1754 L -27.5905,-38.3206 L -27.6915,-38.4796 L -27.7717,-38.65 L -27.8299,-38.8292 L -27.8652,-39.0142
 L -27.877,-39.2022 L -27.8652,-39.3902 L -27.8299,-39.5753 L -27.7717,-39.7544 L -27.6915,-39.9249 L -27.5905,-40.0839
 L -27.4705,-40.229 L -27.3331,-40.358 L -27.1808,-40.4687 L -27.0157,-40.5595 L -26.8405,-40.6288 L -26.6581,-40.6757
 L -26.4712,-40.6993 L -26.2828,-40.6993 L -26.0959,-40.6757 L -25.9135,-40.6288 L -25.7383,-40.5595 L -25.5733,-40.4687
 L -25.4209,-40.358 L -25.2836,-40.229 L -25.1635,-40.0839 L -25.0625,-39.9249 L -24.9823,-39.7544 L -24.9241,-39.5753
 L -24.8888,-39.3902 L -24.877,-39.2022 L -24.8888,-39.0142 L -24.9241,-38.8292 L -24.9823,-38.65 L -25.0625,-38.4796
 L -25.1635,-38.3206 L -25.2836,-38.1754 L -25.4209,-38.0465 L -25.5733,-37.9357 L -25.7383,-37.845 L -25.9135,-37.7757
 L -26.0959,-37.7288 L -26.2828,-37.7052 z
M 28.2659,-36.2954 L 28.079,-36.319 L 27.8966,-36.3658 L 27.7215,-36.4352 L 27.5564,-36.5259 L 27.404,-36.6366
 L 27.2667,-36.7656 L 27.1466,-36.9107 L 27.0457,-37.0698 L 26.9655,-37.2402 L 26.9072,-37.4194 L 26.8719,-37.6044
 L 26.8601,-37.7924 L 26.8719,-37.9804 L 26.9072,-38.1654 L 26.9655,-38.3446 L 27.0457,-38.515 L 27.1466,-38.6741
 L 27.2667,-38.8192 L 27.404,-38.9482 L 27.5564,-39.0589 L 27.7215,-39.1496 L 27.8966,-39.219 L 28.079,-39.2658
 L 28.2659,-39.2894 L 28.4543,-39.2894 L 28.6412,-39.2658 L 28.8236,-39.219 L 28.9988,-39.1496 L 29.1639,-39.0589
 L 29.3163,-38.9482 L 29.4536,-38.8192 L 29.5736,-38.6741 L 29.6746,-38.515 L 29.7548,-38.3446 L 29.813,-38.1654
 L 29.8483,-37.9804 L 29.8601,-37.7924 L 29.8483,-37.6044 L 29.813,-37.4194 L 29.7548,-37.2402 L 29.6746,-37.0698
 L 29.5736,-36.9107 L 29.4536,-36.7656 L 29.3163,-36.6366 L 29.1639,-36.5259 L 28.9988,-36.4352 L 28.8236,-36.3658
 L 28.6412,-36.319 L 28.4543,-36.2954 z
M -30.3622,-34.7853 L -30.5491,-34.8089 L -30.7316,-34.8558 L -30.9067,-34.9251 L -31.0718,-35.0159 L -31.2242,-35.1266
 L -31.3615,-35.2555 L -31.4816,-35.4007 L -31.5825,-35.5597 L -31.6627,-35.7302 L -31.7209,-35.9093 L -31.7562,-36.0943
 L -31.768,-36.2823 L -31.7562,-36.4704 L -31.7209,-36.6554 L -31.6627,-36.8345 L -31.5825,-37.005 L -31.4816,-37.164
 L -31.3615,-37.3092 L -31.2242,-37.4381 L -31.0718,-37.5488 L -30.9067,-37.6396 L -30.7316,-37.7089 L -30.5491,-37.7558
 L -30.3622,-37.7794 L -30.1738,-37.7794 L -29.987,-37.7558 L -29.8045,-37.7089 L -29.6293,-37.6396 L -29.4643,-37.5488
 L -29.3119,-37.4381 L -29.1746,-37.3092 L -29.0545,-37.164 L -28.9536,-37.005 L -28.8734,-36.8345 L -28.8151,-36.6554
 L -28.7798,-36.4704 L -28.768,-36.2823 L -28.7798,-36.0943 L -28.8151,-35.9093 L -28.8734,-35.7302 L -28.9536,-35.5597
 L -29.0545,-35.4007 L -29.1746,-35.2555 L -29.3119,-35.1266 L -29.4643,-35.0159 L -29.6293,-34.9251 L -29.8045,-34.8558
 L -29.987,-34.8089 L -30.1738,-34.7853 z
M 32.0015,-33.179 L 31.8146,-33.2027 L 31.6321,-33.2495 L 31.457,-33.3188 L 31.2919,-33.4096 L 31.1395,-33.5203
 L 31.0022,-33.6493 L 30.8821,-33.7944 L 30.7812,-33.9534 L 30.701,-34.1239 L 30.6428,-34.303 L 30.6075,-34.4881
 L 30.5957,-34.6761 L 30.6075,-34.8641 L 30.6428,-35.0491 L 30.701,-35.2283 L 30.7812,-35.3987 L 30.8821,-35.5578
 L 31.0022,-35.7029 L 31.1395,-35.8318 L 31.2919,-35.9426 L 31.457,-36.0333 L 31.6321,-36.1027 L 31.8146,-36.1495
 L 32.0015,-36.1731 L 32.1898,-36.1731 L 32.3767,-36.1495 L 32.5592,-36.1027 L 32.7343,-36.0333 L 32.8994,-35.9426
 L 33.0518,-35.8318 L 33.1891,-35.7029 L 33.3092,-35.5578 L 33.4101,-35.3987 L 33.4903,-35.2283 L 33.5485,-35.0491
 L 33.5838,-34.8641 L 33.5957,-34.6761 L 33.5838,-34.4881 L 33.5485,-34.303 L 33.4903,-34.1239 L 33.4101,-33.9534
 L 33.3092,-33.7944 L 33.1891,-33.6493 L 33.0518,-33.5203 L 32.8994,-33.4096 L 32.7343,-33.3188 L 32.5592,-33.2495
 L 32.3767,-33.2027 L 32.1898,-33.179 z
M -33.9324,-31.4808 L -34.1193,-31.5044 L -34.3017,-31.5513 L -34.4769,-31.6206 L -34.6419,-31.7114 L -34.7943,-31.8221
 L -34.9316,-31.951 L -35.0517,-32.0962 L -35.1526,-32.2552 L -35.2328,-32.4257 L -35.2911,-32.6048 L -35.3264,-32.7899
 L -35.3382,-32.9779 L -35.3264,-33.1659 L -35.2911,-33.3509 L -35.2328,-33.53 L -35.1526,-33.7005 L -35.0517,-33.8595
 L -34.9316,-34.0047 L -34.7943,-34.1336 L -34.6419,-34.2444 L -34.4769,-34.3351 L -34.3017,-34.4044 L -34.1193,-34.4513
 L -33.9324,-34.4749 L -33.744,-34.4749 L -33.5571,-34.4513 L -33.3747,-34.4044 L -33.1995,-34.3351 L -33.0344,-34.2444
 L -32.882,-34.1336 L -32.7447,-34.0047 L -32.6247,-33.8595 L -32.5237,-33.7005 L -32.4435,-33.53 L -32.3853,-33.3509
 L -32.35,-33.1659 L -32.3382,-32.9779 L -32.35,-32.7899 L -32.3853,-32.6048 L -32.4435,-32.4257 L -32.5237,-32.2552
 L -32.6247,-32.0962 L -32.7447,-31.951 L -32.882,-31.8221 L -33.0344,-31.7114 L -33.1995,-31.6206 L -33.3747,-31.5513
 L -33.5571,-31.5044 L -33.744,-31.4808 z
M 35.3968,-29.6951 L 35.2099,-29.7188 L 35.0275,-29.7656 L 34.8523,-29.8349 L 34.6872,-29.9257 L 34.5348,-30.0364
 L 34.3975,-30.1654 L 34.2775,-30.3105 L 34.1765,-30.4695 L 34.0963,-30.64 L 34.0381,-30.8192 L 34.0028,-31.0042
 L 33.991,-31.1922 L 34.0028,-31.3802 L 34.0381,-31.5652 L 34.0963,-31.7444 L 34.1765,-31.9148 L 34.2775,-32.0739
 L 34.3975,-32.219 L 34.5348,-32.3479 L 34.6872,-32.4587 L 34.8523,-32.5494 L 35.0275,-32.6188 L 35.2099,-32.6656
 L 35.3968,-32.6892 L 35.5852,-32.6892 L 35.772,-32.6656 L 35.9545,-32.6188 L 36.1297,-32.5494 L 36.2947,-32.4587
 L 36.4471,-32.3479 L 36.5844,-32.219 L 36.7045,-32.0739 L 36.8054,-31.9148 L 36.8856,-31.7444 L 36.9438,-31.5652
 L 36.9792,-31.3802 L 36.991,-31.1922 L 36.9792,-31.0042 L 36.9438,-30.8192 L 36.8856,-30.64 L 36.8054,-30.4695
 L 36.7045,-30.3105 L 36.5844,-30.1654 L 36.4471,-30.0364 L 36.2947,-29.9257 L 36.1297,-29.8349 L 35.9545,-29.7656
 L 35.772,-29.7188 L 35.5852,-29.6951 z
M -2.04068,32.4359 L -6.08989,31.9243 L -10.043,30.9093 L -13.8378,29.4069 L -17.4144,27.4406 L -20.7163,25.0417
 L -23.6915,22.2478 L -26.293,19.103 L -28.48,15.657 L -30.2177,11.964 L -31.4789,8.08241 L -32.2437,4.07332
 L -32.5,-0 L -32.2437,-4.07332 L -31.4789,-8.08241 L -30.2177,-11.964 L -28.48,-15.657 L -26.293,-19.103
 L -23.6915,-22.2478 L -20.7163,-25.0417 L -17.4144,-27.4406 L -13.8378,-29.4069 L -10.043,-30.9093 L -6.08989,-31.9243
 L -2.04068,-32.4359 L 2.04068,-32.4359 L 6.08989,-31.9243 L 10.043,-30.9093 L 13.8378,-29.4069 L 17.4144,-27.4406
 L 20.7163,-25.0417 L 23.6915,-22.2478 L 26.293,-19.103 L 28.48,-15.657 L 30.2177,-11.964 L 31.4789,-8.08241
 L 32.2437,-4.07332 L 32.5,-0 L 32.2437,4.07332 L 31.4789,8.08241 L 30.2177,11.964 L 28.48,15.657
 L 26.293,19.103 L 23.6915,22.2478 L 20.7163,25.0417 L 17.4144,27.4406 L 13.8378,29.4069 L 10.043,30.9093
 L 6.08989,31.9243 L 2.04068,32.4359 z
M 4.68452,24.5572 L 7.72542,23.7764 L 10.6445,22.6207 L 13.3957,21.1082 L 15.9356,19.2628 L 18.2242,17.1137
 L 20.2254,14.6946 L 21.9077,12.0438 L 23.2444,9.20311 L 24.2146,6.21724 L 24.8029,3.13332 L 25,-0
 L 24.8029,-3.13332 L 24.2146,-6.21724 L 23.2444,-9.20311 L 21.9077,-12.0438 L 20.2254,-14.6946 L 18.2242,-17.1137
 L 15.9356,-19.2628 L 13.3957,-21.1082 L 10.6445,-22.6207 L 7.72542,-23.7764 L 4.68452,-24.5572 L 1.56975,-24.9507
 L -1.56975,-24.9507 L -4.68452,-24.5572 L -7.72542,-23.7764 L -10.6445,-22.6207 L -13.3957,-21.1082 L -15.9356,-19.2628
 L -18.2242,-17.1137 L -20.2254,-14.6946 L -21.9077,-12.0438 L -23.2444,-9.20311 L -24.2146,-6.21724 L -24.8029,-3.13332
 L -25,-0 L -24.8029,3.13332 L -24.2146,6.21724 L -23.2444,9.20311 L -21.9077,12.0438 L -20.2254,14.6946
 L -18.2242,17.1137 L -15.9356,19.2628 L -13.3957,21.1082 L -10.6445,22.6207 L -7.72542,23.7764 L -4.68452,24.5572
 L -1.56975,24.9507 L 1.56975,24.9507 z
M -37.1438,-27.8268 L -37.3307,-27.8504 L -37.5132,-27.8972 L -37.6883,-27.9666 L -37.8534,-28.0573 L -38.0058,-28.168
 L -38.1431,-28.297 L -38.2632,-28.4421 L -38.3641,-28.6012 L -38.4443,-28.7716 L -38.5025,-28.9508 L -38.5378,-29.1358
 L -38.5497,-29.3238 L -38.5378,-29.5118 L -38.5025,-29.6968 L -38.4443,-29.876 L -38.3641,-30.0464 L -38.2632,-30.2055
 L -38.1431,-30.3506 L -38.0058,-30.4796 L -37.8534,-30.5903 L -37.6883,-30.681 L -37.5132,-30.7504 L -37.3307,-30.7972
 L -37.1438,-30.8208 L -36.9555,-30.8208 L -36.7686,-30.7972 L -36.5861,-30.7504 L -36.411,-30.681 L -36.2459,-30.5903
 L -36.0935,-30.4796 L -35.9562,-30.3506 L -35.8361,-30.2055 L -35.7352,-30.0464 L -35.655,-29.876 L -35.5968,-29.6968
 L -35.5615,-29.5118 L -35.5497,-29.3238 L -35.5615,-29.1358 L -35.5968,-28.9508 L -35.655,-28.7716 L -35.7352,-28.6012
 L -35.8361,-28.4421 L -35.9562,-28.297 L -36.0935,-28.168 L -36.2459,-28.0573 L -36.411,-27.9666 L -36.5861,-27.8972
 L -36.7686,-27.8504 L -36.9555,-27.8268 z
M 38.4159,-25.8806 L 38.229,-25.9042 L 38.0466,-25.951 L 37.8714,-26.0204 L 37.7063,-26.1111 L 37.5539,-26.2219
 L 37.4166,-26.3508 L 37.2966,-26.496 L 37.1956,-26.655 L 37.1154,-26.8255 L 37.0572,-27.0046 L 37.0219,-27.1896
 L 37.0101,-27.3776 L 37.0219,-27.5656 L 37.0572,-27.7507 L 37.1154,-27.9298 L 37.1956,-28.1003 L 37.2966,-28.2593
 L 37.4166,-28.4045 L 37.5539,-28.5334 L 37.7063,-28.6441 L 37.8714,-28.7349 L 38.0466,-28.8042 L 38.229,-28.8511
 L 38.4159,-28.8747 L 38.6043,-28.8747 L 38.7912,-28.8511 L 38.9736,-28.8042 L 39.1488,-28.7349 L 39.3138,-28.6441
 L 39.4662,-28.5334 L 39.6035,-28.4045 L 39.7236,-28.2593 L 39.8245,-28.1003 L 39.9048,-27.9298 L 39.963,-27.7507
 L 39.9983,-27.5656 L 40.0101,-27.3776 L 39.9983,-27.1896 L 39.963,-27.0046 L 39.9048,-26.8255 L 39.8245,-26.655
 L 39.7236,-26.496 L 39.6035,-26.3508 L 39.4662,-26.2219 L 39.3138,-26.1111 L 39.1488,-26.0204 L 38.9736,-25.951
 L 38.7912,-25.9042 L 38.6043,-25.8806 z
M -39.9626,-23.8618 L -40.1495,-23.8855 L -40.3319,-23.9323 L -40.5071,-24.0016 L -40.6721,-24.0924 L -40.8245,-24.2031
 L -40.9618,-24.3321 L -41.0819,-24.4772 L -41.1828,-24.6363 L -41.2631,-24.8067 L -41.3213,-24.9859 L -41.3566,-25.1709
 L -41.3684,-25.3589 L -41.3566,-25.5469 L -41.3213,-25.7319 L -41.2631,-25.9111 L -41.1828,-26.0815 L -41.0819,-26.2406
 L -40.9618,-26.3857 L -40.8245,-26.5147 L -40.6721,-26.6254 L -40.5071,-26.7161 L -40.3319,-26.7855 L -40.1495,-26.8323
 L -39.9626,-26.8559 L -39.7742,-26.8559 L -39.5873,-26.8323 L -39.4049,-26.7855 L -39.2297,-26.7161 L -39.0647,-26.6254
 L -38.9122,-26.5147 L -38.7749,-26.3857 L -38.6549,-26.2406 L -38.5539,-26.0815 L -38.4737,-25.9111 L -38.4155,-25.7319
 L -38.3802,-25.5469 L -38.3684,-25.3589 L -38.3802,-25.1709 L -38.4155,-24.9859 L -38.4737,-24.8067 L -38.5539,-24.6363
 L -38.6549,-24.4772 L -38.7749,-24.3321 L -38.9122,-24.2031 L -39.0647,-24.0924 L -39.2297,-24.0016 L -39.4049,-23.9323
 L -39.5873,-23.8855 L -39.7742,-23.8618 z
M 41.0268,-21.7758 L 40.8399,-21.7995 L 40.6574,-21.8463 L 40.4823,-21.9156 L 40.3172,-22.0064 L 40.1648,-22.1171
 L 40.0275,-22.2461 L 39.9074,-22.3912 L 39.8065,-22.5503 L 39.7263,-22.7207 L 39.6681,-22.8999 L 39.6328,-23.0849
 L 39.621,-23.2729 L 39.6328,-23.4609 L 39.6681,-23.6459 L 39.7263,-23.8251 L 39.8065,-23.9955 L 39.9074,-24.1546
 L 40.0275,-24.2997 L 40.1648,-24.4287 L 40.3172,-24.5394 L 40.4823,-24.6301 L 40.6574,-24.6995 L 40.8399,-24.7463
 L 41.0268,-24.7699 L 41.2152,-24.7699 L 41.402,-24.7463 L 41.5845,-24.6995 L 41.7596,-24.6301 L 41.9247,-24.5394
 L 42.0771,-24.4287 L 42.2144,-24.2997 L 42.3345,-24.1546 L 42.4354,-23.9955 L 42.5156,-23.8251 L 42.5739,-23.6459
 L 42.6091,-23.4609 L 42.621,-23.2729 L 42.6091,-23.0849 L 42.5739,-22.8999 L 42.5156,-22.7207 L 42.4354,-22.5503
 L 42.3345,-22.3912 L 42.2144,-22.2461 L 42.0771,-22.1171 L 41.9247,-22.0064 L 41.7596,-21.9156 L 41.5845,-21.8463
 L 41.402,-21.7995 L 41.2152,-21.7758 z
M -42.3587,-19.6281 L -42.5456,-19.6517 L -42.728,-19.6986 L -42.9032,-19.7679 L -43.0683,-19.8587 L -43.2206,-19.9694
 L -43.358,-20.0984 L -43.478,-20.2435 L -43.579,-20.4025 L -43.6592,-20.573 L -43.7174,-20.7521 L -43.7527,-20.9372
 L -43.7645,-21.1252 L -43.7527,-21.3132 L -43.7174,-21.4982 L -43.6592,-21.6774 L -43.579,-21.8478 L -43.478,-22.0069
 L -43.358,-22.152 L -43.2206,-22.2809 L -43.0683,-22.3917 L -42.9032,-22.4824 L -42.728,-22.5518 L -42.5456,-22.5986
 L -42.3587,-22.6222 L -42.1703,-22.6222 L -41.9834,-22.5986 L -41.801,-22.5518 L -41.6258,-22.4824 L -41.4608,-22.3917
 L -41.3084,-22.2809 L -41.1711,-22.152 L -41.051,-22.0069 L -40.95,-21.8478 L -40.8698,-21.6774 L -40.8116,-21.4982
 L -40.7763,-21.3132 L -40.7645,-21.1252 L -40.7763,-20.9372 L -40.8116,-20.7521 L -40.8698,-20.573 L -40.95,-20.4025
 L -41.051,-20.2435 L -41.1711,-20.0984 L -41.3084,-19.9694 L -41.4608,-19.8587 L -41.6258,-19.7679 L -41.801,-19.6986
 L -41.9834,-19.6517 L -42.1703,-19.6281 z
M 43.2018,-17.4244 L 43.0149,-17.448 L 42.8324,-17.4949 L 42.6573,-17.5642 L 42.4922,-17.655 L 42.3398,-17.7657
 L 42.2025,-17.8946 L 42.0824,-18.0398 L 41.9815,-18.1988 L 41.9013,-18.3692 L 41.8431,-18.5484 L 41.8078,-18.7334
 L 41.796,-18.9214 L 41.8078,-19.1094 L 41.8431,-19.2945 L 41.9013,-19.4736 L 41.9815,-19.6441 L 42.0824,-19.8031
 L 42.2025,-19.9483 L 42.3398,-20.0772 L 42.4922,-20.1879 L 42.6573,-20.2787 L 42.8324,-20.348 L 43.0149,-20.3949
 L 43.2018,-20.4185 L 43.3902,-20.4185 L 43.577,-20.3949 L 43.7595,-20.348 L 43.9346,-20.2787 L 44.0997,-20.1879
 L 44.2521,-20.0772 L 44.3894,-19.9483 L 44.5095,-19.8031 L 44.6104,-19.6441 L 44.6906,-19.4736 L 44.7488,-19.2945
 L 44.7841,-19.1094 L 44.796,-18.9214 L 44.7841,-18.7334 L 44.7488,-18.5484 L 44.6906,-18.3692 L 44.6104,-18.1988
 L 44.5095,-18.0398 L 44.3894,-17.8946 L 44.2521,-17.7657 L 44.0997,-17.655 L 43.9346,-17.5642 L 43.7595,-17.4949
 L 43.577,-17.448 L 43.3902,-17.4244 z
M -44.3068,-15.1705 L -44.4937,-15.1941 L -44.6761,-15.2409 L -44.8513,-15.3103 L -45.0164,-15.401 L -45.1687,-15.5118
 L -45.3061,-15.6407 L -45.4261,-15.7859 L -45.5271,-15.9449 L -45.6073,-16.1153 L -45.6655,-16.2945 L -45.7008,-16.4795
 L -45.7126,-16.6675 L -45.7008,-16.8555 L -45.6655,-17.0406 L -45.6073,-17.2197 L -45.5271,-17.3902 L -45.4261,-17.5492
 L -45.3061,-17.6944 L -45.1687,-17.8233 L -45.0164,-17.934 L -44.8513,-18.0248 L -44.6761,-18.0941 L -44.4937,-18.141
 L -44.3068,-18.1646 L -44.1184,-18.1646 L -43.9315,-18.141 L -43.7491,-18.0941 L -43.5739,-18.0248 L -43.4089,-17.934
 L -43.2565,-17.8233 L -43.1192,-17.6944 L -42.9991,-17.5492 L -42.8981,-17.3902 L -42.8179,-17.2197 L -42.7597,-17.0406
 L -42.7244,-16.8555 L -42.7126,-16.6675 L -42.7244,-16.4795 L -42.7597,-16.2945 L -42.8179,-16.1153 L -42.8981,-15.9449
 L -42.9991,-15.7859 L -43.1192,-15.6407 L -43.2565,-15.5118 L -43.4089,-15.401 L -43.5739,-15.3103 L -43.7491,-15.2409
 L -43.9315,-15.1941 L -44.1184,-15.1705 z
M 44.9178,-12.8724 L 44.7309,-12.896 L 44.5485,-12.9428 L 44.3734,-13.0122 L 44.2083,-13.1029 L 44.0559,-13.2137
 L 43.9186,-13.3426 L 43.7985,-13.4877 L 43.6976,-13.6468 L 43.6174,-13.8172 L 43.5591,-13.9964 L 43.5238,-14.1814
 L 43.512,-14.3694 L 43.5238,-14.5574 L 43.5591,-14.7424 L 43.6174,-14.9216 L 43.6976,-15.0921 L 43.7985,-15.2511
 L 43.9186,-15.3962 L 44.0559,-15.5252 L 44.2083,-15.6359 L 44.3734,-15.7267 L 44.5485,-15.796 L 44.7309,-15.8428
 L 44.9178,-15.8665 L 45.1062,-15.8665 L 45.2931,-15.8428 L 45.4755,-15.796 L 45.6507,-15.7267 L 45.8158,-15.6359
 L 45.9682,-15.5252 L 46.1055,-15.3962 L 46.2255,-15.2511 L 46.3265,-15.0921 L 46.4067,-14.9216 L 46.4649,-14.7424
 L 46.5002,-14.5574 L 46.512,-14.3694 L 46.5002,-14.1814 L 46.4649,-13.9964 L 46.4067,-13.8172 L 46.3265,-13.6468
 L 46.2255,-13.4877 L 46.1055,-13.3426 L 45.9682,-13.2137 L 45.8158,-13.1029 L 45.6507,-13.0122 L 45.4755,-12.9428
 L 45.2931,-12.896 L 45.1062,-12.8724 z
M -45.7862,-10.5362 L -45.9731,-10.5598 L -46.1556,-10.6066 L -46.3307,-10.676 L -46.4958,-10.7667 L -46.6482,-10.8774
 L -46.7855,-11.0064 L -46.9056,-11.1515 L -47.0065,-11.3106 L -47.0867,-11.481 L -47.1449,-11.6602 L -47.1802,-11.8452
 L -47.192,-12.0332 L -47.1802,-12.2212 L -47.1449,-12.4062 L -47.0867,-12.5854 L -47.0065,-12.7558 L -46.9056,-12.9149
 L -46.7855,-13.06 L -46.6482,-13.189 L -46.4958,-13.2997 L -46.3307,-13.3904 L -46.1556,-13.4598 L -45.9731,-13.5066
 L -45.7862,-13.5302 L -45.5979,-13.5302 L -45.411,-13.5066 L -45.2285,-13.4598 L -45.0534,-13.3904 L -44.8883,-13.2997
 L -44.7359,-13.189 L -44.5986,-13.06 L -44.4785,-12.9149 L -44.3776,-12.7558 L -44.2974,-12.5854 L -44.2392,-12.4062
 L -44.2039,-12.2212 L -44.192,-12.0332 L -44.2039,-11.8452 L -44.2392,-11.6602 L -44.2974,-11.481 L -44.3776,-11.3106
 L -44.4785,-11.1515 L -44.5986,-11.0064 L -44.7359,-10.8774 L -44.8883,-10.7667 L -45.0534,-10.676 L -45.2285,-10.6066
 L -45.411,-10.5598 L -45.5979,-10.5362 z
M 46.1567,-8.16803 L 45.9698,-8.19165 L 45.7874,-8.23849 L 45.6123,-8.30783 L 45.4472,-8.39859 L 45.2948,-8.50931
 L 45.1575,-8.63826 L 45.0374,-8.7834 L 44.9365,-8.94244 L 44.8563,-9.11288 L 44.798,-9.29204 L 44.7628,-9.47708
 L 44.7509,-9.66508 L 44.7628,-9.85307 L 44.798,-10.0381 L 44.8563,-10.2173 L 44.9365,-10.3877 L 45.0374,-10.5468
 L 45.1575,-10.6919 L 45.2948,-10.8208 L 45.4472,-10.9316 L 45.6123,-11.0223 L 45.7874,-11.0917 L 45.9698,-11.1385
 L 46.1567,-11.1621 L 46.3451,-11.1621 L 46.532,-11.1385 L 46.7144,-11.0917 L 46.8896,-11.0223 L 47.0547,-10.9316
 L 47.2071,-10.8208 L 47.3444,-10.6919 L 47.4644,-10.5468 L 47.5654,-10.3877 L 47.6456,-10.2173 L 47.7038,-10.0381
 L 47.7391,-9.85307 L 47.7509,-9.66508 L 47.7391,-9.47708 L 47.7038,-9.29204 L 47.6456,-9.11288 L 47.5654,-8.94244
 L 47.4644,-8.7834 L 47.3444,-8.63826 L 47.2071,-8.50931 L 47.0547,-8.39859 L 46.8896,-8.30783 L 46.7144,-8.23849
 L 46.532,-8.19165 L 46.3451,-8.16803 z
M -46.7813,-5.77428 L -46.9682,-5.7979 L -47.1507,-5.84474 L -47.3258,-5.91408 L -47.4909,-6.00484 L -47.6433,-6.11555
 L -47.7806,-6.24451 L -47.9007,-6.38965 L -48.0016,-6.54869 L -48.0818,-6.71913 L -48.14,-6.89828 L -48.1753,-7.08333
 L -48.1871,-7.27132 L -48.1753,-7.45932 L -48.14,-7.64436 L -48.0818,-7.8235 L -48.0016,-7.99396 L -47.9007,-8.153
 L -47.7806,-8.29814 L -47.6433,-8.42709 L -47.4909,-8.53781 L -47.3258,-8.62856 L -47.1507,-8.69791 L -46.9682,-8.74475
 L -46.7813,-8.76836 L -46.593,-8.76836 L -46.4061,-8.74475 L -46.2236,-8.69791 L -46.0485,-8.62856 L -45.8834,-8.53781
 L -45.731,-8.42709 L -45.5937,-8.29814 L -45.4736,-8.153 L -45.3727,-7.99396 L -45.2925,-7.8235 L -45.2343,-7.64436
 L -45.199,-7.45932 L -45.1871,-7.27132 L -45.199,-7.08333 L -45.2343,-6.89828 L -45.2925,-6.71913 L -45.3727,-6.54869
 L -45.4736,-6.38965 L -45.5937,-6.24451 L -45.731,-6.11555 L -45.8834,-6.00484 L -46.0485,-5.91408 L -46.2236,-5.84474
 L -46.4061,-5.7979 L -46.593,-5.77428 z
M 46.9054,-3.36125 L 46.7185,-3.38486 L 46.536,-3.4317 L 46.3609,-3.50104 L 46.1958,-3.5918 L 46.0434,-3.70251
 L 45.9061,-3.83147 L 45.786,-3.97661 L 45.6851,-4.13565 L 45.6049,-4.30609 L 45.5467,-4.48524 L 45.5114,-4.67029
 L 45.4996,-4.85829 L 45.5114,-5.04628 L 45.5467,-5.23132 L 45.6049,-5.41048 L 45.6851,-5.58092 L 45.786,-5.73996
 L 45.9061,-5.8851 L 46.0434,-6.01405 L 46.1958,-6.12477 L 46.3609,-6.21553 L 46.536,-6.28487 L 46.7185,-6.33171
 L 46.9054,-6.35533 L 47.0938,-6.35533 L 47.2806,-6.33171 L 47.4631,-6.28487 L 47.6382,-6.21553 L 47.8033,-6.12477
 L 47.9557,-6.01405 L 48.093,-5.8851 L 48.2131,-5.73996 L 48.314,-5.58092 L 48.3942,-5.41048 L 48.4524,-5.23132
 L 48.4877,-5.04628 L 48.4996,-4.85829 L 48.4877,-4.67029 L 48.4524,-4.48524 L 48.3942,-4.30609 L 48.314,-4.13565
 L 48.2131,-3.97661 L 48.093,-3.83147 L 47.9557,-3.70251 L 47.8033,-3.5918 L 47.6382,-3.50104 L 47.4631,-3.4317
 L 47.2806,-3.38486 L 47.0938,-3.36125 z
M -47.2815,-0.935318 L -47.4684,-0.958939 L -47.6509,-1.00578 L -47.826,-1.07512 L -47.9911,-1.16588 L -48.1435,-1.2766
 L -48.2808,-1.40555 L -48.4009,-1.55069 L -48.5018,-1.70973 L -48.582,-1.88017 L -48.6402,-2.05933 L -48.6755,-2.24437
 L -48.6873,-2.43236 L -48.6755,-2.62036 L -48.6402,-2.8054 L -48.582,-2.98454 L -48.5018,-3.155 L -48.4009,-3.31404
 L -48.2808,-3.45918 L -48.1435,-3.58813 L -47.9911,-3.69885 L -47.826,-3.7896 L -47.6509,-3.85895 L -47.4684,-3.90579
 L -47.2815,-3.9294 L -47.0932,-3.9294 L -46.9063,-3.90579 L -46.7238,-3.85895 L -46.5487,-3.7896 L -46.3836,-3.69885
 L -46.2312,-3.58813 L -46.0939,-3.45918 L -45.9738,-3.31404 L -45.8729,-3.155 L -45.7927,-2.98454 L -45.7345,-2.8054
 L -45.6992,-2.62036 L -45.6873,-2.43236 L -45.6992,-2.24437 L -45.7345,-2.05933 L -45.7927,-1.88017 L -45.8729,-1.70973
 L -45.9738,-1.55069 L -46.0939,-1.40555 L -46.2312,-1.2766 L -46.3836,-1.16588 L -46.5487,-1.07512 L -46.7238,-1.00578
 L -46.9063,-0.958939 L -47.0932,-0.935318 z
M 59.8116,2.99408 L 59.4379,2.94685 L 59.0729,2.85316 L 58.7227,2.71448 L 58.3925,2.53297 L 58.0877,2.31154
 L 57.8131,2.05363 L 57.5729,1.76335 L 57.3711,1.44525 L 57.2107,1.10437 L 57.0942,0.746063 L 57.0237,0.375992
 L 57,-0 L 57.0237,-0.375992 L 57.0942,-0.746063 L 57.2107,-1.10437 L 57.3711,-1.44525 L 57.5729,-1.76335
 L 57.8131,-2.05363 L 58.0877,-2.31154 L 58.3925,-2.53297 L 58.7227,-2.71448 L 59.0729,-2.85316 L 59.4379,-2.94685
 L 59.8116,-2.99408 L 60.1884,-2.99408 L 60.5621,-2.94685 L 60.927,-2.85316 L 61.2773,-2.71448 L 61.6075,-2.53297
 L 61.9123,-2.31154 L 62.1869,-2.05363 L 62.427,-1.76335 L 62.6289,-1.44525 L 62.7893,-1.10437 L 62.9057,-0.746063
 L 62.9763,-0.375992 L 63,-0 L 62.9763,0.375992 L 62.9057,0.746063 L 62.7893,1.10437 L 62.6289,1.44525
 L 62.427,1.76335 L 62.1869,2.05363 L 61.9123,2.31154 L 61.6075,2.53297 L 61.2773,2.71448 L 60.927,2.85316
 L 60.5621,2.94685 L 60.1884,2.99408 z
M -60.1884,2.99408 L -60.5621,2.94685 L -60.927,2.85316 L -61.2773,2.71448 L -61.6075,2.53297 L -61.9123,2.31154
 L -62.1869,2.05363 L -62.427,1.76335 L -62.6289,1.44525 L -62.7893,1.10437 L -62.9057,0.746063 L -62.9763,0.375992
 L -63,-0 L -62.9763,-0.375992 L -62.9057,-0.746063 L -62.7893,-1.10437 L -62.6289,-1.44525 L -62.427,-1.76335
 L -62.1869,-2.05363 L -61.9123,-2.31154 L -61.6075,-2.53297 L -61.2773,-2.71448 L -60.927,-2.85316 L -60.5621,-2.94685
 L -60.1884,-2.99408 L -59.8116,-2.99408 L -59.4379,-2.94685 L -59.0729,-2.85316 L -58.7227,-2.71448 L -58.3925,-2.53297
 L -58.0877,-2.31154 L -57.8131,-2.05363 L -57.5729,-1.76335 L -57.3711,-1.44525 L -57.2107,-1.10437 L -57.0942,-0.746063
 L -57.0237,-0.375992 L -57,-0 L -57.0237,0.375992 L -57.0942,0.746063 L -57.2107,1.10437 L -57.3711,1.44525
 L -57.5729,1.76335 L -57.8131,2.05363 L -58.0877,2.31154 L -58.3925,2.53297 L -58.7227,2.71448 L -59.0729,2.85316
 L -59.4379,2.94685 L -59.8116,2.99408 z
M 47.1558,1.49704 L 46.9689,1.47342 L 46.7865,1.42657 L 46.6113,1.35724 L 46.4463,1.26648 L 46.2939,1.15576
 L 46.1565,1.02681 L 46.0365,0.881668 L 45.9355,0.722626 L 45.8553,0.552185 L 45.7971,0.373032 L 45.7618,0.187988
 L 45.75,-0 L 45.7618,-0.187988 L 45.7971,-0.373032 L 45.8553,-0.552185 L 45.9355,-0.722626 L 46.0365,-0.881668
 L 46.1565,-1.02681 L 46.2939,-1.15576 L 46.4463,-1.26648 L 46.6113,-1.35724 L 46.7865,-1.42657 L 46.9689,-1.47342
 L 47.1558,-1.49704 L 47.3442,-1.49704 L 47.5311,-1.47342 L 47.7135,-1.42657 L 47.8887,-1.35724 L 48.0537,-1.26648
 L 48.2061,-1.15576 L 48.3434,-1.02681 L 48.4635,-0.881668 L 48.5645,-0.722626 L 48.6447,-0.552185 L 48.7029,-0.373032
 L 48.7382,-0.187988 L 48.75,-0 L 48.7382,0.187988 L 48.7029,0.373032 L 48.6447,0.552185 L 48.5645,0.722626
 L 48.4635,0.881668 L 48.3434,1.02681 L 48.2061,1.15576 L 48.0537,1.26648 L 47.8887,1.35724 L 47.7135,1.42657
 L 47.5311,1.47342 L 47.3442,1.49704 z
M -47.2815,3.9294 L -47.4684,3.90579 L -47.6509,3.85895 L -47.826,3.7896 L -47.9911,3.69885 L -48.1435,3.58813
 L -48.2808,3.45918 L -48.4009,3.31404 L -48.5018,3.155 L -48.582,2.98454 L -48.6402,2.8054 L -48.6755,2.62036
 L -48.6873,2.43236 L -48.6755,2.24437 L -48.6402,2.05933 L -48.582,1.88017 L -48.5018,1.70973 L -48.4009,1.55069
 L -48.2808,1.40555 L -48.1435,1.2766 L -47.9911,1.16588 L -47.826,1.07512 L -47.6509,1.00578 L -47.4684,0.958939
 L -47.2815,0.935318 L -47.0932,0.935318 L -46.9063,0.958939 L -46.7238,1.00578 L -46.5487,1.07512 L -46.3836,1.16588
 L -46.2312,1.2766 L -46.0939,1.40555 L -45.9738,1.55069 L -45.8729,1.70973 L -45.7927,1.88017 L -45.7345,2.05933
 L -45.6992,2.24437 L -45.6873,2.43236 L -45.6992,2.62036 L -45.7345,2.8054 L -45.7927,2.98454 L -45.8729,3.155
 L -45.9738,3.31404 L -46.0939,3.45918 L -46.2312,3.58813 L -46.3836,3.69885 L -46.5487,3.7896 L -46.7238,3.85895
 L -46.9063,3.90579 L -47.0932,3.9294 z
M 46.9054,6.35533 L 46.7185,6.33171 L 46.536,6.28487 L 46.3609,6.21553 L 46.1958,6.12477 L 46.0434,6.01405
 L 45.9061,5.8851 L 45.786,5.73996 L 45.6851,5.58092 L 45.6049,5.41048 L 45.5467,5.23132 L 45.5114,5.04628
 L 45.4996,4.85829 L 45.5114,4.67029 L 45.5467,4.48524 L 45.6049,4.30609 L 45.6851,4.13565 L 45.786,3.97661
 L 45.9061,3.83147 L 46.0434,3.70251 L 46.1958,3.5918 L 46.3609,3.50104 L 46.536,3.4317 L 46.7185,3.38486
 L 46.9054,3.36125 L 47.0938,3.36125 L 47.2806,3.38486 L 47.4631,3.4317 L 47.6382,3.50104 L 47.8033,3.5918
 L 47.9557,3.70251 L 48.093,3.83147 L 48.2131,3.97661 L 48.314,4.13565 L 48.3942,4.30609 L 48.4524,4.48524
 L 48.4877,4.67029 L 48.4996,4.85829 L 48.4877,5.04628 L 48.4524,5.23132 L 48.3942,5.41048 L 48.314,5.58092
 L 48.2131,5.73996 L 48.093,5.8851 L 47.9557,6.01405 L 47.8033,6.12477 L 47.6382,6.21553 L 47.4631,6.28487
 L 47.2806,6.33171 L 47.0938,6.35533 z
M -46.7813,8.76836 L -46.9682,8.74475 L -47.1507,8.69791 L -47.3258,8.62856 L -47.4909,8.53781 L -47.6433,8.42709
 L -47.7806,8.29814 L -47.9007,8.153 L -48.0016,7.99396 L -48.0818,7.8235 L -48.14,7.64436 L -48.1753,7.45932
 L -48.1871,7.27132 L -48.1753,7.08333 L -48.14,6.89828 L -48.0818,6.71913 L -48.0016,6.54869 L -47.9007,6.38965
 L -47.7806,6.24451 L -47.6433,6.11555 L -47.4909,6.00484 L -47.3258,5.91408 L -47.1507,5.84474 L -46.9682,5.7979
 L -46.7813,5.77428 L -46.593,5.77428 L -46.4061,5.7979 L -46.2236,5.84474 L -46.0485,5.91408 L -45.8834,6.00484
 L -45.731,6.11555 L -45.5937,6.24451 L -45.4736,6.38965 L -45.3727,6.54869 L -45.2925,6.71913 L -45.2343,6.89828
 L -45.199,7.08333 L -45.1871,7.27132 L -45.199,7.45932 L -45.2343,7.64436 L -45.2925,7.8235 L -45.3727,7.99396
 L -45.4736,8.153 L -45.5937,8.29814 L -45.731,8.42709 L -45.8834,8.53781 L -46.0485,8.62856 L -46.2236,8.69791
 L -46.4061,8.74475 L -46.593,8.76836 z
M 46.1567,11.1621 L 45.9698,11.1385 L 45.7874,11.0917 L 45.6123,11.0223 L 45.4472,10.9316 L 45.2948,10.8208
 L 45.1575,10.6919 L 45.0374,10.5468 L 44.9365,10.3877 L 44.8563,10.2173 L 44.798,10.0381 L 44.7628,9.85307
 L 44.7509,9.66508 L 44.7628,9.47708 L 44.798,9.29204 L 44.8563,9.11288 L 44.9365,8.94244 L 45.0374,8.7834
 L 45.1575,8.63826 L 45.2948,8.50931 L 45.4472,8.39859 L 45.6123,8.30783 L 45.7874,8.23849 L 45.9698,8.19165
 L 46.1567,8.16803 L 46.3451,8.16803 L 46.532,8.19165 L 46.7144,8.23849 L 46.8896,8.30783 L 47.0547,8.39859
 L 47.2071,8.50931 L 47.3444,8.63826 L 47.4644,8.7834 L 47.5654,8.94244 L 47.6456,9.11288 L 47.7038,9.29204
 L 47.7391,9.47708 L 47.7509,9.66508 L 47.7391,9.85307 L 47.7038,10.0381 L 47.6456,10.2173 L 47.5654,10.3877
 L 47.4644,10.5468 L 47.3444,10.6919 L 47.2071,10.8208 L 47.0547,10.9316 L 46.8896,11.0223 L 46.7144,11.0917
 L 46.532,11.1385 L 46.3451,11.1621 z
M -45.7862,13.5302 L -45.9731,13.5066 L -46.1556,13.4598 L -46.3307,13.3904 L -46.4958,13.2997 L -46.6482,13.189
 L -46.7855,13.06 L -46.9056,12.9149 L -47.0065,12.7558 L -47.0867,12.5854 L -47.1449,12.4062 L -47.1802,12.2212
 L -47.192,12.0332 L -47.1802,11.8452 L -47.1449,11.6602 L -47.0867,11.481 L -47.0065,11.3106 L -46.9056,11.1515
 L -46.7855,11.0064 L -46.6482,10.8774 L -46.4958,10.7667 L -46.3307,10.676 L -46.1556,10.6066 L -45.9731,10.5598
 L -45.7862,10.5362 L -45.5979,10.5362 L -45.411,10.5598 L -45.2285,10.6066 L -45.0534,10.676 L -44.8883,10.7667
 L -44.7359,10.8774 L -44.5986,11.0064 L -44.4785,11.1515 L -44.3776,11.3106 L -44.2974,11.481 L -44.2392,11.6602
 L -44.2039,11.8452 L -44.192,12.0332 L -44.2039,12.2212 L -44.2392,12.4062 L -44.2974,12.5854 L -44.3776,12.7558
 L -44.4785,12.9149 L -44.5986,13.06 L -44.7359,13.189 L -44.8883,13.2997 L -45.0534,13.3904 L -45.2285,13.4598
 L -45.411,13.5066 L -45.5979,13.5302 z
M 44.9178,15.8665 L 44.7309,15.8428 L 44.5485,15.796 L 44.3734,15.7267 L 44.2083,15.6359 L 44.0559,15.5252
 L 43.9186,15.3962 L 43.7985,15.2511 L 43.6976,15.0921 L 43.6174,14.9216 L 43.5591,14.7424 L 43.5238,14.5574
 L 43.512,14.3694 L 43.5238,14.1814 L 43.5591,13.9964 L 43.6174,13.8172 L 43.6976,13.6468 L 43.7985,13.4877
 L 43.9186,13.3426 L 44.0559,13.2137 L 44.2083,13.1029 L 44.3734,13.0122 L 44.5485,12.9428 L 44.7309,12.896
 L 44.9178,12.8724 L 45.1062,12.8724 L 45.2931,12.896 L 45.4755,12.9428 L 45.6507,13.0122 L 45.8158,13.1029
 L 45.9682,13.2137 L 46.1055,13.3426 L 46.2255,13.4877 L 46.3265,13.6468 L 46.4067,13.8172 L 46.4649,13.9964
 L 46.5002,14.1814 L 46.512,14.3694 L 46.5002,14.5574 L 46.4649,14.7424 L 46.4067,14.9216 L 46.3265,15.0921
 L 46.2255,15.2511 L 46.1055,15.3962 L 45.9682,15.5252 L 45.8158,15.6359 L 45.6507,15.7267 L 45.4755,15.796
 L 45.2931,15.8428 L 45.1062,15.8665 z
M -44.3068,18.1646 L -44.4937,18.141 L -44.6761,18.0941 L -44.8513,18.0248 L -45.0164,17.934 L -45.1687,17.8233
 L -45.3061,17.6944 L -45.4261,17.5492 L -45.5271,17.3902 L -45.6073,17.2197 L -45.6655,17.0406 L -45.7008,16.8555
 L -45.7126,16.6675 L -45.7008,16.4795 L -45.6655,16.2945 L -45.6073,16.1153 L -45.5271,15.9449 L -45.4261,15.7859
 L -45.3061,15.6407 L -45.1687,15.5118 L -45.0164,15.401 L -44.8513,15.3103 L -44.6761,15.2409 L -44.4937,15.1941
 L -44.3068,15.1705 L -44.1184,15.1705 L -43.9315,15.1941 L -43.7491,15.2409 L -43.5739,15.3103 L -43.4089,15.401
 L -43.2565,15.5118 L -43.1192,15.6407 L -42.9991,15.7859 L -42.8981,15.9449 L -42.8179,16.1153 L -42.7597,16.2945
 L -42.7244,16.4795 L -42.7126,16.6675 L -42.7244,16.8555 L -42.7597,17.0406 L -42.8179,17.2197 L -42.8981,17.3902
 L -42.9991,17.5492 L -43.1192,17.6944 L -43.2565,17.8233 L -43.4089,17.934 L -43.5739,18.0248 L -43.7491,18.0941
 L -43.9315,18.141 L -44.1184,18.1646 z
M 43.2018,20.4185 L 43.0149,20.3949 L 42.8324,20.348 L 42.6573,20.2787 L 42.4922,20.1879 L 42.3398,20.0772
 L 42.2025,19.9483 L 42.0824,19.8031 L 41.9815,19.6441 L 41.9013,19.4736 L 41.8431,19.2945 L 41.8078,19.1094
 L 41.796,18.9214 L 41.8078,18.7334 L 41.8431,18.5484 L 41.9013,18.3692 L 41.9815,18.1988 L 42.0824,18.0398
 L 42.2025,17.8946 L 42.3398,17.7657 L 42.4922,17.655 L 42.6573,17.5642 L 42.8324,17.4949 L 43.0149,17.448
 L 43.2018,17.4244 L 43.3902,17.4244 L 43.577,17.448 L 43.7595,17.4949 L 43.9346,17.5642 L 44.0997,17.655
 L 44.2521,17.7657 L 44.3894,17.8946 L 44.5095,18.0398 L 44.6104,18.1988 L 44.6906,18.3692 L 44.7488,18.5484
 L 44.7841,18.7334 L 44.796,18.9214 L 44.7841,19.1094 L 44.7488,19.2945 L 44.6906,19.4736 L 44.6104,19.6441
 L 44.5095,19.8031 L 44.3894,19.9483 L 44.2521,20.0772 L 44.0997,20.1879 L 43.9346,20.2787 L 43.7595,20.348
 L 43.577,20.3949 L 43.3902,20.4185 z
M -42.3587,22.6222 L -42.5456,22.5986 L -42.728,22.5518 L -42.9032,22.4824 L -43.0683,22.3917 L -43.2206,22.2809
 L -43.358,22.152 L -43.478,22.0069 L -43.579,21.8478 L -43.6592,21.6774 L -43.7174,21.4982 L -43.7527,21.3132
 L -43.7645,21.1252 L -43.7527,20.9372 L -43.7174,20.7521 L -43.6592,20.573 L -43.579,20.4025 L -43.478,20.2435
 L -43.358,20.0984 L -43.2206,19.9694 L -43.0683,19.8587 L -42.9032,19.7679 L -42.728,19.6986 L -42.5456,19.6517
 L -42.3587,19.6281 L -42.1703,19.6281 L -41.9834,19.6517 L -41.801,19.6986 L -41.6258,19.7679 L -41.4608,19.8587
 L -41.3084,19.9694 L -41.1711,20.0984 L -41.051,20.2435 L -40.95,20.4025 L -40.8698,20.573 L -40.8116,20.7521
 L -40.7763,20.9372 L -40.7645,21.1252 L -40.7763,21.3132 L -40.8116,21.4982 L -40.8698,21.6774 L -40.95,21.8478
 L -41.051,22.0069 L -41.1711,22.152 L -41.3084,22.2809 L -41.4608,22.3917 L -41.6258,22.4824 L -41.801,22.5518
 L -41.9834,22.5986 L -42.1703,22.6222 z
M 41.0268,24.7699 L 40.8399,24.7463 L 40.6574,24.6995 L 40.4823,24.6301 L 40.3172,24.5394 L 40.1648,24.4287
 L 40.0275,24.2997 L 39.9074,24.1546 L 39.8065,23.9955 L 39.7263,23.8251 L 39.6681,23.6459 L 39.6328,23.4609
 L 39.621,23.2729 L 39.6328,23.0849 L 39.6681,22.8999 L 39.7263,22.7207 L 39.8065,22.5503 L 39.9074,22.3912
 L 40.0275,22.2461 L 40.1648,22.1171 L 40.3172,22.0064 L 40.4823,21.9156 L 40.6574,21.8463 L 40.8399,21.7995
 L 41.0268,21.7758 L 41.2152,21.7758 L 41.402,21.7995 L 41.5845,21.8463 L 41.7596,21.9156 L 41.9247,22.0064
 L 42.0771,22.1171 L 42.2144,22.2461 L 42.3345,22.3912 L 42.4354,22.5503 L 42.5156,22.7207 L 42.5739,22.8999
 L 42.6091,23.0849 L 42.621,23.2729 L 42.6091,23.4609 L 42.5739,23.6459 L 42.5156,23.8251 L 42.4354,23.9955
 L 42.3345,24.1546 L 42.2144,24.2997 L 42.0771,24.4287 L 41.9247,24.5394 L 41.7596,24.6301 L 41.5845,24.6995
 L 41.402,24.7463 L 41.2152,24.7699 z
M -39.9626,26.8559 L -40.1495,26.8323 L -40.3319,26.7855 L -40.5071,26.7161 L -40.6721,26.6254 L -40.8245,26.5147
 L -40.9618,26.3857 L -41.0819,26.2406 L -41.1828,26.0815 L -41.2631,25.9111 L -41.3213,25.7319 L -41.3566,25.5469
 L -41.3684,25.3589 L -41.3566,25.1709 L -41.3213,24.9859 L -41.2631,24.8067 L -41.1828,24.6363 L -41.0819,24.4772
 L -40.9618,24.3321 L -40.8245,24.2031 L -40.6721,24.0924 L -40.5071,24.0016 L -40.3319,23.9323 L -40.1495,23.8855
 L -39.9626,23.8618 L -39.7742,23.8618 L -39.5873,23.8855 L -39.4049,23.9323 L -39.2297,24.0016 L -39.0647,24.0924
 L -38.9122,24.2031 L -38.7749,24.3321 L -38.6549,24.4772 L -38.5539,24.6363 L -38.4737,24.8067 L -38.4155,24.9859
 L -38.3802,25.1709 L -38.3684,25.3589 L -38.3802,25.5469 L -38.4155,25.7319 L -38.4737,25.9111 L -38.5539,26.0815
 L -38.6549,26.2406 L -38.7749,26.3857 L -38.9122,26.5147 L -39.0647,26.6254 L -39.2297,26.7161 L -39.4049,26.7855
 L -39.5873,26.8323 L -39.7742,26.8559 z
M 38.4159,28.8747 L 38.229,28.8511 L 38.0466,28.8042 L 37.8714,28.7349 L 37.7063,28.6441 L 37.5539,28.5334
 L 37.4166,28.4045 L 37.2966,28.2593 L 37.1956,28.1003 L 37.1154,27.9298 L 37.0572,27.7507 L 37.0219,27.5656
 L 37.0101,27.3776 L 37.0219,27.1896 L 37.0572,27.0046 L 37.1154,26.8255 L 37.1956,26.655 L 37.2966,26.496
 L 37.4166,26.3508 L 37.5539,26.2219 L 37.7063,26.1111 L 37.8714,26.0204 L 38.0466,25.951 L 38.229,25.9042
 L 38.4159,25.8806 L 38.6043,25.8806 L 38.7912,25.9042 L 38.9736,25.951 L 39.1488,26.0204 L 39.3138,26.1111
 L 39.4662,26.2219 L 39.6035,26.3508 L 39.7236,26.496 L 39.8245,26.655 L 39.9048,26.8255 L 39.963,27.0046
 L 39.9983,27.1896 L 40.0101,27.3776 L 39.9983,27.5656 L 39.963,27.7507 L 39.9048,27.9298 L 39.8245,28.1003
 L 39.7236,28.2593 L 39.6035,28.4045 L 39.4662,28.5334 L 39.3138,28.6441 L 39.1488,28.7349 L 38.9736,28.8042
 L 38.7912,28.8511 L 38.6043,28.8747 z
M -37.1438,30.8208 L -37.3307,30.7972 L -37.5132,30.7504 L -37.6883,30.681 L -37.8534,30.5903 L -38.0058,30.4796
 L -38.1431,30.3506 L -38.2632,30.2055 L -38.3641,30.0464 L -38.4443,29.876 L -38.5025,29.6968 L -38.5378,29.5118
 L -38.5497,29.3238 L -38.5378,29.1358 L -38.5025,28.9508 L -38.4443,28.7716 L -38.3641,28.6012 L -38.2632,28.4421
 L -38.1431,28.297 L -38.0058,28.168 L -37.8534,28.0573 L -37.6883,27.9666 L -37.5132,27.8972 L -37.3307,27.8504
 L -37.1438,27.8268 L -36.9555,27.8268 L -36.7686,27.8504 L -36.5861,27.8972 L -36.411,27.9666 L -36.2459,28.0573
 L -36.0935,28.168 L -35.9562,28.297 L -35.8361,28.4421 L -35.7352,28.6012 L -35.655,28.7716 L -35.5968,28.9508
 L -35.5615,29.1358 L -35.5497,29.3238 L -35.5615,29.5118 L -35.5968,29.6968 L -35.655,29.876 L -35.7352,30.0464
 L -35.8361,30.2055 L -35.9562,30.3506 L -36.0935,30.4796 L -36.2459,30.5903 L -36.411,30.681 L -36.5861,30.7504
 L -36.7686,30.7972 L -36.9555,30.8208 z
M 35.3968,32.6892 L 35.2099,32.6656 L 35.0275,32.6188 L 34.8523,32.5494 L 34.6872,32.4587 L 34.5348,32.3479
 L 34.3975,32.219 L 34.2775,32.0739 L 34.1765,31.9148 L 34.0963,31.7444 L 34.0381,31.5652 L 34.0028,31.3802
 L 33.991,31.1922 L 34.0028,31.0042 L 34.0381,30.8192 L 34.0963,30.64 L 34.1765,30.4695 L 34.2775,30.3105
 L 34.3975,30.1654 L 34.5348,30.0364 L 34.6872,29.9257 L 34.8523,29.8349 L 35.0275,29.7656 L 35.2099,29.7188
 L 35.3968,29.6951 L 35.5852,29.6951 L 35.772,29.7188 L 35.9545,29.7656 L 36.1297,29.8349 L 36.2947,29.9257
 L 36.4471,30.0364 L 36.5844,30.1654 L 36.7045,30.3105 L 36.8054,30.4695 L 36.8856,30.64 L 36.9438,30.8192
 L 36.9792,31.0042 L 36.991,31.1922 L 36.9792,31.3802 L 36.9438,31.5652 L 36.8856,31.7444 L 36.8054,31.9148
 L 36.7045,32.0739 L 36.5844,32.219 L 36.4471,32.3479 L 36.2947,32.4587 L 36.1297,32.5494 L 35.9545,32.6188
 L 35.772,32.6656 L 35.5852,32.6892 z
M -33.9324,34.4749 L -34.1193,34.4513 L -34.3017,34.4044 L -34.4769,34.3351 L -34.6419,34.2444 L -34.7943,34.1336
 L -34.9316,34.0047 L -35.0517,33.8595 L -35.1526,33.7005 L -35.2328,33.53 L -35.2911,33.3509 L -35.3264,33.1659
 L -35.3382,32.9779 L -35.3264,32.7899 L -35.2911,32.6048 L -35.2328,32.4257 L -35.1526,32.2552 L -35.0517,32.0962
 L -34.9316,31.951 L -34.7943,31.8221 L -34.6419,31.7114 L -34.4769,31.6206 L -34.3017,31.5513 L -34.1193,31.5044
 L -33.9324,31.4808 L -33.744,31.4808 L -33.5571,31.5044 L -33.3747,31.5513 L -33.1995,31.6206 L -33.0344,31.7114
 L -32.882,31.8221 L -32.7447,31.951 L -32.6247,32.0962 L -32.5237,32.2552 L -32.4435,32.4257 L -32.3853,32.6048
 L -32.35,32.7899 L -32.3382,32.9779 L -32.35,33.1659 L -32.3853,33.3509 L -32.4435,33.53 L -32.5237,33.7005
 L -32.6247,33.8595 L -32.7447,34.0047 L -32.882,34.1336 L -33.0344,34.2444 L -33.1995,34.3351 L -33.3747,34.4044
 L -33.5571,34.4513 L -33.744,34.4749 z
M 32.0015,36.1731 L 31.8146,36.1495 L 31.6321,36.1027 L 31.457,36.0333 L 31.2919,35.9426 L 31.1395,35.8318
 L 31.0022,35.7029 L 30.8821,35.5578 L 30.7812,35.3987 L 30.701,35.2283 L 30.6428,35.0491 L 30.6075,34.8641
 L 30.5957,34.6761 L 30.6075,34.4881 L 30.6428,34.303 L 30.701,34.1239 L 30.7812,33.9534 L 30.8821,33.7944
 L 31.0022,33.6493 L 31.1395,33.5203 L 31.2919,33.4096 L 31.457,33.3188 L 31.6321,33.2495 L 31.8146,33.2027
 L 32.0015,33.179 L 32.1898,33.179 L 32.3767,33.2027 L 32.5592,33.2495 L 32.7343,33.3188 L 32.8994,33.4096
 L 33.0518,33.5203 L 33.1891,33.6493 L 33.3092,33.7944 L 33.4101,33.9534 L 33.4903,34.1239 L 33.5485,34.303
 L 33.5838,34.4881 L 33.5957,34.6761 L 33.5838,34.8641 L 33.5485,35.0491 L 33.4903,35.2283 L 33.4101,35.3987
 L 33.3092,35.5578 L 33.1891,35.7029 L 33.0518,35.8318 L 32.8994,35.9426 L 32.7343,36.0333 L 32.5592,36.1027
 L 32.3767,36.1495 L 32.1898,36.1731 z
M -30.3622,37.7794 L -30.5491,37.7558 L -30.7316,37.7089 L -30.9067,37.6396 L -31.0718,37.5488 L -31.2242,37.4381
 L -31.3615,37.3092 L -31.4816,37.164 L -31.5825,37.005 L -31.6627,36.8345 L -31.7209,36.6554 L -31.7562,36.4704
 L -31.768,36.2823 L -31.7562,36.0943 L -31.7209,35.9093 L -31.6627,35.7302 L -31.5825,35.5597 L -31.4816,35.4007
 L -31.3615,35.2555 L -31.2242,35.1266 L -31.0718,35.0159 L -30.9067,34.9251 L -30.7316,34.8558 L -30.5491,34.8089
 L -30.3622,34.7853 L -30.1738,34.7853 L -29.987,34.8089 L -29.8045,34.8558 L -29.6293,34.9251 L -29.4643,35.0159
 L -29.3119,35.1266 L -29.1746,35.2555 L -29.0545,35.4007 L -28.9536,35.5597 L -28.8734,35.7302 L -28.8151,35.9093
 L -28.7798,36.0943 L -28.768,36.2823 L -28.7798,36.4704 L -28.8151,36.6554 L -28.8734,36.8345 L -28.9536,37.005
 L -29.0545,37.164 L -29.1746,37.3092 L -29.3119,37.4381 L -29.4643,37.5488 L -29.6293,37.6396 L -29.8045,37.7089
 L -29.987,37.7558 L -30.1738,37.7794 z
M 28.2659,39.2894 L 28.079,39.2658 L 27.8966,39.219 L 27.7215,39.1496 L 27.5564,39.0589 L 27.404,38.9482
 L 27.2667,38.8192 L 27.1466,38.6741 L 27.0457,38.515 L 26.9655,38.3446 L 26.9072,38.1654 L 26.8719,37.9804
 L 26.8601,37.7924 L 26.8719,37.6044 L 26.9072,37.4194 L 26.9655,37.2402 L 27.0457,37.0698 L 27.1466,36.9107
 L 27.2667,36.7656 L 27.404,36.6366 L 27.5564,36.5259 L 27.7215,36.4352 L 27.8966,36.3658 L 28.079,36.319
 L 28.2659,36.2954 L 28.4543,36.2954 L 28.6412,36.319 L 28.8236,36.3658 L 28.9988,36.4352 L 29.1639,36.5259
 L 29.3163,36.6366 L 29.4536,36.7656 L 29.5736,36.9107 L 29.6746,37.0698 L 29.7548,37.2402 L 29.813,37.4194
 L 29.8483,37.6044 L 29.8601,37.7924 L 29.8483,37.9804 L 29.813,38.1654 L 29.7548,38.3446 L 29.6746,38.515
 L 29.5736,38.6741 L 29.4536,38.8192 L 29.3163,38.9482 L 29.1639,39.0589 L 28.9988,39.1496 L 28.8236,39.219
 L 28.6412,39.2658 L 28.4543,39.2894 z
M -26.4712,40.6993 L -26.6581,40.6757 L -26.8405,40.6288 L -27.0157,40.5595 L -27.1808,40.4687 L -27.3331,40.358
 L -27.4705,40.229 L -27.5905,40.0839 L -27.6915,39.9249 L -27.7717,39.7544 L -27.8299,39.5753 L -27.8652,39.3902
 L -27.877,39.2022 L -27.8652,39.0142 L -27.8299,38.8292 L -27.7717,38.65 L -27.6915,38.4796 L -27.5905,38.3206
 L -27.4705,38.1754 L -27.3331,38.0465 L -27.1808,37.9357 L -27.0157,37.845 L -26.8405,37.7757 L -26.6581,37.7288
 L -26.4712,37.7052 L -26.2828,37.7052 L -26.0959,37.7288 L -25.9135,37.7757 L -25.7383,37.845 L -25.5733,37.9357
 L -25.4209,38.0465 L -25.2836,38.1754 L -25.1635,38.3206 L -25.0625,38.4796 L -24.9823,38.65 L -24.9241,38.8292
 L -24.8888,39.0142 L -24.877,39.2022 L -24.8888,39.3902 L -24.9241,39.5753 L -24.9823,39.7544 L -25.0625,39.9249
 L -25.1635,40.0839 L -25.2836,40.229 L -25.4209,40.358 L -25.5733,40.4687 L -25.7383,40.5595 L -25.9135,40.6288
 L -26.0959,40.6757 L -26.2828,40.6993 z
M 24.2298,42.0052 L 24.0429,41.9815 L 23.8604,41.9347 L 23.6853,41.8654 L 23.5202,41.7746 L 23.3678,41.6639
 L 23.2305,41.5349 L 23.1104,41.3898 L 23.0095,41.2307 L 22.9293,41.0603 L 22.8711,40.8811 L 22.8358,40.6961
 L 22.824,40.5081 L 22.8358,40.3201 L 22.8711,40.1351 L 22.9293,39.9559 L 23.0095,39.7855 L 23.1104,39.6264
 L 23.2305,39.4813 L 23.3678,39.3523 L 23.5202,39.2416 L 23.6853,39.1509 L 23.8604,39.0815 L 24.0429,39.0347
 L 24.2298,39.0111 L 24.4181,39.0111 L 24.605,39.0347 L 24.7875,39.0815 L 24.9626,39.1509 L 25.1277,39.2416
 L 25.2801,39.3523 L 25.4174,39.4813 L 25.5375,39.6264 L 25.6384,39.7855 L 25.7186,39.9559 L 25.7768,40.1351
 L 25.8121,40.3201 L 25.824,40.5081 L 25.8121,40.6961 L 25.7768,40.8811 L 25.7186,41.0603 L 25.6384,41.2307
 L 25.5375,41.3898 L 25.4174,41.5349 L 25.2801,41.6639 L 25.1277,41.7746 L 24.9626,41.8654 L 24.7875,41.9347
 L 24.605,41.9815 L 24.4181,42.0052 z
M -22.3006,43.2036 L -22.4875,43.18 L -22.6699,43.1331 L -22.8451,43.0638 L -23.0101,42.9731 L -23.1625,42.8623
 L -23.2999,42.7334 L -23.4199,42.5882 L -23.5209,42.4292 L -23.6011,42.2588 L -23.6593,42.0796 L -23.6946,41.8946
 L -23.7064,41.7066 L -23.6946,41.5186 L -23.6593,41.3335 L -23.6011,41.1544 L -23.5209,40.9839 L -23.4199,40.8249
 L -23.2999,40.6797 L -23.1625,40.5508 L -23.0101,40.4401 L -22.8451,40.3493 L -22.6699,40.28 L -22.4875,40.2331
 L -22.3006,40.2095 L -22.1122,40.2095 L -21.9253,40.2331 L -21.7429,40.28 L -21.5677,40.3493 L -21.4026,40.4401
 L -21.2503,40.5508 L -21.1129,40.6797 L -20.9929,40.8249 L -20.8919,40.9839 L -20.8117,41.1544 L -20.7535,41.3335
 L -20.7182,41.5186 L -20.7064,41.7066 L -20.7182,41.8946 L -20.7535,42.0796 L -20.8117,42.2588 L -20.8919,42.4292
 L -20.9929,42.5882 L -21.1129,42.7334 L -21.2503,42.8623 L -21.4026,42.9731 L -21.5677,43.0638 L -21.7429,43.1331
 L -21.9253,43.18 L -22.1122,43.2036 z
M 19.9358,44.2915 L 19.7489,44.2679 L 19.5664,44.221 L 19.3913,44.1517 L 19.2262,44.0609 L 19.0738,43.9502
 L 18.9365,43.8212 L 18.8164,43.6761 L 18.7155,43.5171 L 18.6353,43.3466 L 18.5771,43.1675 L 18.5418,42.9824
 L 18.53,42.7944 L 18.5418,42.6064 L 18.5771,42.4214 L 18.6353,42.2422 L 18.7155,42.0718 L 18.8164,41.9128
 L 18.9365,41.7676 L 19.0738,41.6387 L 19.2262,41.5279 L 19.3913,41.4372 L 19.5664,41.3678 L 19.7489,41.321
 L 19.9358,41.2974 L 20.1241,41.2974 L 20.311,41.321 L 20.4935,41.3678 L 20.6686,41.4372 L 20.8337,41.5279
 L 20.9861,41.6387 L 21.1234,41.7676 L 21.2435,41.9128 L 21.3444,42.0718 L 21.4246,42.2422 L 21.4828,42.4214
 L 21.5181,42.6064 L 21.53,42.7944 L 21.5181,42.9824 L 21.4828,43.1675 L 21.4246,43.3466 L 21.3444,43.5171
 L 21.2435,43.6761 L 21.1234,43.8212 L 20.9861,43.9502 L 20.8337,44.0609 L 20.6686,44.1517 L 20.4935,44.221
 L 20.311,44.2679 L 20.1241,44.2915 z
M -17.8946,45.2658 L -18.0815,45.2422 L -18.2639,45.1954 L -18.4391,45.126 L -18.6041,45.0353 L -18.7565,44.9246
 L -18.8938,44.7956 L -19.0139,44.6505 L -19.1149,44.4914 L -19.1951,44.321 L -19.2533,44.1418 L -19.2886,43.9568
 L -19.3004,43.7688 L -19.2886,43.5808 L -19.2533,43.3958 L -19.1951,43.2166 L -19.1149,43.0462 L -19.0139,42.8871
 L -18.8938,42.742 L -18.7565,42.613 L -18.6041,42.5023 L -18.4391,42.4116 L -18.2639,42.3422 L -18.0815,42.2954
 L -17.8946,42.2718 L -17.7062,42.2718 L -17.5193,42.2954 L -17.3369,42.3422 L -17.1617,42.4116 L -16.9966,42.5023
 L -16.8443,42.613 L -16.7069,42.742 L -16.5869,42.8871 L -16.4859,43.0462 L -16.4057,43.2166 L -16.3475,43.3958
 L -16.3122,43.5808 L -16.3004,43.7688 L -16.3122,43.9568 L -16.3475,44.1418 L -16.4057,44.321 L -16.4859,44.4914
 L -16.5869,44.6505 L -16.7069,44.7956 L -16.8443,44.9246 L -16.9966,45.0353 L -17.1617,45.126 L -17.3369,45.1954
 L -17.5193,45.2422 L -17.7062,45.2658 z
M 15.4294,46.1241 L 15.2426,46.1005 L 15.0601,46.0537 L 14.8849,45.9843 L 14.7199,45.8936 L 14.5675,45.7829
 L 14.4302,45.6539 L 14.3101,45.5088 L 14.2092,45.3497 L 14.129,45.1793 L 14.0707,45.0002 L 14.0354,44.8151
 L 14.0236,44.6271 L 14.0354,44.4391 L 14.0707,44.2541 L 14.129,44.0749 L 14.2092,43.9045 L 14.3101,43.7454
 L 14.4302,43.6003 L 14.5675,43.4713 L 14.7199,43.3606 L 14.8849,43.2699 L 15.0601,43.2005 L 15.2426,43.1537
 L 15.4294,43.1301 L 15.6178,43.1301 L 15.8047,43.1537 L 15.9872,43.2005 L 16.1623,43.2699 L 16.3274,43.3606
 L 16.4798,43.4713 L 16.6171,43.6003 L 16.7372,43.7454 L 16.8381,43.9045 L 16.9183,44.0749 L 16.9765,44.2541
 L 17.0118,44.4391 L 17.0236,44.6271 L 17.0118,44.8151 L 16.9765,45.0002 L 16.9183,45.1793 L 16.8381,45.3497
 L 16.7372,45.5088 L 16.6171,45.6539 L 16.4798,45.7829 L 16.3274,45.8936 L 16.1623,45.9843 L 15.9872,46.0537
 L 15.8047,46.1005 L 15.6178,46.1241 z
M -13.2999,46.8641 L -13.4868,46.8405 L -13.6692,46.7937 L -13.8444,46.7243 L -14.0094,46.6336 L -14.1618,46.5228
 L -14.2991,46.3939 L -14.4192,46.2487 L -14.5201,46.0897 L -14.6004,45.9193 L -14.6586,45.7401 L -14.6939,45.5551
 L -14.7057,45.3671 L -14.6939,45.1791 L -14.6586,44.994 L -14.6004,44.8149 L -14.5201,44.6444 L -14.4192,44.4854
 L -14.2991,44.3403 L -14.1618,44.2113 L -14.0094,44.1006 L -13.8444,44.0098 L -13.6692,43.9405 L -13.4868,43.8936
 L -13.2999,43.87 L -13.1115,43.87 L -12.9246,43.8936 L -12.7422,43.9405 L -12.567,44.0098 L -12.4019,44.1006
 L -12.2496,44.2113 L -12.1122,44.3403 L -11.9922,44.4854 L -11.8912,44.6444 L -11.811,44.8149 L -11.7528,44.994
 L -11.7175,45.1791 L -11.7057,45.3671 L -11.7175,45.5551 L -11.7528,45.7401 L -11.811,45.9193 L -11.8912,46.0897
 L -11.9922,46.2487 L -12.1122,46.3939 L -12.2496,46.5228 L -12.4019,46.6336 L -12.567,46.7243 L -12.7422,46.7937
 L -12.9246,46.8405 L -13.1115,46.8641 z
M 10.7585,47.4838 L 10.5717,47.4602 L 10.3892,47.4133 L 10.2141,47.344 L 10.049,47.2532 L 9.89661,47.1425
 L 9.75929,47.0135 L 9.63921,46.8684 L 9.53828,46.7094 L 9.45807,46.5389 L 9.39986,46.3598 L 9.36456,46.1747
 L 9.35274,45.9867 L 9.36456,45.7987 L 9.39986,45.6137 L 9.45807,45.4346 L 9.53828,45.2641 L 9.63921,45.1051
 L 9.75929,44.9599 L 9.89661,44.831 L 10.049,44.7202 L 10.2141,44.6295 L 10.3892,44.5602 L 10.5717,44.5133
 L 10.7585,44.4897 L 10.9469,44.4897 L 11.1338,44.5133 L 11.3163,44.5602 L 11.4914,44.6295 L 11.6565,44.7202
 L 11.8089,44.831 L 11.9462,44.9599 L 12.0663,45.1051 L 12.1672,45.2641 L 12.2474,45.4346 L 12.3056,45.6137
 L 12.3409,45.7987 L 12.3527,45.9867 L 12.3409,46.1747 L 12.3056,46.3598 L 12.2474,46.5389 L 12.1672,46.7094
 L 12.0663,46.8684 L 11.9462,47.0135 L 11.8089,47.1425 L 11.6565,47.2532 L 11.4914,47.344 L 11.3163,47.4133
 L 11.1338,47.4602 L 10.9469,47.4838 z
M -8.5652,47.9815 L -8.75208,47.9579 L -8.93454,47.911 L -9.10968,47.8417 L -9.27475,47.7509 L -9.42714,47.6402
 L -9.56447,47.5113 L -9.68454,47.3661 L -9.78546,47.2071 L -9.86568,47.0366 L -9.92389,46.8575 L -9.95918,46.6725
 L -9.97101,46.4845 L -9.95918,46.2964 L -9.92389,46.1114 L -9.86568,45.9323 L -9.78546,45.7618 L -9.68454,45.6028
 L -9.56447,45.4576 L -9.42714,45.3287 L -9.27475,45.218 L -9.10968,45.1272 L -8.93454,45.0579 L -8.75208,45.011
 L -8.5652,44.9874 L -8.37682,44.9874 L -8.18994,45.011 L -8.00748,45.0579 L -7.83234,45.1272 L -7.66727,45.218
 L -7.51488,45.3287 L -7.37755,45.4576 L -7.25748,45.6028 L -7.15656,45.7618 L -7.07634,45.9323 L -7.01813,46.1114
 L -6.98283,46.2964 L -6.97101,46.4845 L -6.98283,46.6725 L -7.01813,46.8575 L -7.07634,47.0366 L -7.15656,47.2071
 L -7.25748,47.3661 L -7.37755,47.5113 L -7.51488,47.6402 L -7.66727,47.7509 L -7.83234,47.8417 L -8.00748,47.911
 L -8.18994,47.9579 L -8.37682,47.9815 z
M 5.97263,48.3559 L 5.78574,48.3323 L 5.60329,48.2855 L 5.42815,48.2161 L 5.26308,48.1254 L 5.11067,48.0147
 L 4.97336,47.8857 L 4.85329,47.7406 L 4.75235,47.5815 L 4.67215,47.4111 L 4.61394,47.2319 L 4.57864,47.0469
 L 4.56682,46.8589 L 4.57864,46.6709 L 4.61394,46.4859 L 4.67215,46.3067 L 4.75235,46.1363 L 4.85329,45.9772
 L 4.97336,45.8321 L 5.11067,45.7031 L 5.26308,45.5924 L 5.42815,45.5016 L 5.60329,45.4323 L 5.78574,45.3855
 L 5.97263,45.3618 L 6.161,45.3618 L 6.34789,45.3855 L 6.53033,45.4323 L 6.70549,45.5016 L 6.87056,45.5924
 L 7.02295,45.7031 L 7.16026,45.8321 L 7.28033,45.9772 L 7.38127,46.1363 L 7.46149,46.3067 L 7.51968,46.4859
 L 7.55499,46.6709 L 7.56682,46.8589 L 7.55499,47.0469 L 7.51968,47.2319 L 7.46149,47.4111 L 7.38127,47.5815
 L 7.28033,47.7406 L 7.16026,47.8857 L 7.02295,48.0147 L 6.87056,48.1254 L 6.70549,48.2161 L 6.53033,48.2855
 L 6.34789,48.3323 L 6.161,48.3559 z
M -3.74072,48.6061 L -3.92761,48.5825 L -4.11006,48.5357 L -4.2852,48.4663 L -4.45027,48.3756 L -4.60268,48.2648
 L -4.73999,48.1359 L -4.86006,47.9908 L -4.961,47.8317 L -5.0412,47.6613 L -5.09941,47.4821 L -5.1347,47.2971
 L -5.14653,47.1091 L -5.1347,46.9211 L -5.09941,46.736 L -5.0412,46.5569 L -4.961,46.3864 L -4.86006,46.2274
 L -4.73999,46.0822 L -4.60268,45.9533 L -4.45027,45.8426 L -4.2852,45.7518 L -4.11006,45.6825 L -3.92761,45.6356
 L -3.74072,45.612 L -3.55235,45.612 L -3.36546,45.6356 L -3.18301,45.6825 L -3.00786,45.7518 L -2.84279,45.8426
 L -2.6904,45.9533 L -2.55309,46.0822 L -2.43301,46.2274 L -2.33208,46.3864 L -2.25186,46.5569 L -2.19366,46.736
 L -2.15836,46.9211 L -2.14653,47.1091 L -2.15836,47.2971 L -2.19366,47.4821 L -2.25186,47.6613 L -2.33208,47.8317
 L -2.43301,47.9908 L -2.55309,48.1359 L -2.6904,48.2648 L -2.84279,48.3756 L -3.00786,48.4663 L -3.18301,48.5357
 L -3.36546,48.5825 L -3.55235,48.6061 z
M 1.12239,48.7314 L 0.935516,48.7078 L 0.753052,48.6609 L 0.577911,48.5916 L 0.412842,48.5008 L 0.260452,48.3901
 L 0.123123,48.2612 L 0.00305176,48.116 L -0.0978699,47.957 L -0.17807,47.7865 L -0.236282,47.6074 L -0.271576,47.4223
 L -0.283401,47.2343 L -0.271576,47.0463 L -0.236282,46.8613 L -0.17807,46.6821 L -0.0978699,46.5117 L 0.00305176,46.3526
 L 0.123123,46.2075 L 0.260452,46.0786 L 0.412842,45.9678 L 0.577911,45.8771 L 0.753052,45.8077 L 0.935516,45.7609
 L 1.12239,45.7373 L 1.31076,45.7373 L 1.49765,45.7609 L 1.6801,45.8077 L 1.85526,45.8771 L 2.02032,45.9678
 L 2.17271,46.0786 L 2.31003,46.2075 L 2.4301,46.3526 L 2.53104,46.5117 L 2.61125,46.6821 L 2.66945,46.8613
 L 2.70476,47.0463 L 2.71658,47.2343 L 2.70476,47.4223 L 2.66945,47.6074 L 2.61125,47.7865 L 2.53104,47.957
 L 2.4301,48.116 L 2.31003,48.2612 L 2.17271,48.3901 L 2.02032,48.5008 L 1.85526,48.5916 L 1.6801,48.6609
 L 1.49765,48.7078 L 1.31076,48.7314 z
M -0.18837,62.9941 L -0.562134,62.9469 L -0.927048,62.8532 L -1.27733,62.7145 L -1.60747,62.533 L -1.91226,62.3115
 L -2.1869,62.0536 L -2.42705,61.7634 L -2.62891,61.4453 L -2.78932,61.1044 L -2.90575,60.7461 L -2.97633,60.376
 L -3,60 L -2.97633,59.624 L -2.90575,59.2539 L -2.78932,58.8956 L -2.62891,58.5547 L -2.42705,58.2366
 L -2.1869,57.9464 L -1.91226,57.6885 L -1.60747,57.467 L -1.27733,57.2855 L -0.927048,57.1468 L -0.562134,57.0531
 L -0.18837,57.0059 L 0.18837,57.0059 L 0.562134,57.0531 L 0.927048,57.1468 L 1.27733,57.2855 L 1.60747,57.467
 L 1.91226,57.6885 L 2.1869,57.9464 L 2.42705,58.2366 L 2.62891,58.5547 L 2.78932,58.8956 L 2.90575,59.2539
 L 2.97633,59.624 L 3,60 L 2.97633,60.376 L 2.90575,60.7461 L 2.78932,61.1044 L 2.62891,61.4453
 L 2.42705,61.7634 L 2.1869,62.0536 L 1.91226,62.3115 L 1.60747,62.533 L 1.27733,62.7145 L 0.927048,62.8532
 L 0.562134,62.9469 L 0.18837,62.9941 z
" stroke="black" fill="lightgray" stroke-width="0.5"/>
</svg>
