<?xml version="1.0" standalone="no"?>
<!DOCTYPE svg PUBLIC "-//W3C//DTD SVG 1.1//EN" "http://www.w3.org/Graphics/SVG/1.1/DTD/svg11.dtd">
<svg width="134mm" height="293mm" viewBox="-67 -226 134 293" xmlns="http://www.w3.org/2000/svg" version="1.1">
<title>OpenSCAD Model</title>
<path d="
M 12.5545,-93.1868 L 20.7041,-95.2792 L 28.5272,-98.3766 L 35.9004,-102.43 L 42.7074,-107.376 L 48.8409,-113.135
 L 54.2041,-119.618 L 58.7125,-126.723 L 62.295,-134.336 L 64.8951,-142.338 L 66.4717,-150.603 L 67,-159
 L 66.4717,-167.397 L 64.8951,-175.662 L 62.295,-183.664 L 58.7125,-191.277 L 54.2041,-198.382 L 48.8409,-204.865
 L 42.7074,-210.624 L 35.9004,-215.57 L 28.5272,-219.623 L 20.7041,-222.721 L 12.5545,-224.813 L 4.20695,-225.868
 L -4.20695,-225.868 L -12.5545,-224.813 L -20.7041,-222.721 L -28.5272,-219.623 L -35.9004,-215.57 L -42.7074,-210.624
 L -48.8409,-204.865 L -54.2041,-198.382 L -58.7125,-191.277 L -62.295,-183.664 L -64.8951,-175.662 L -66.4717,-167.397
 L -67,-159 L -66.4717,-150.603 L -64.8951,-142.338 L -62.295,-134.336 L -58.7125,-126.723 L -54.2041,-119.618
 L -48.8409,-113.135 L -42.7074,-107.376 L -35.9004,-102.43 L -28.5272,-98.3766 L -20.7041,-95.2792 L -12.5545,-93.1868
 L -4.20695,-92.1322 L 4.20695,-92.1322 z
M -0.18837,-216.006 L -0.562134,-216.053 L -0.927048,-216.147 L -1.27733,-216.286 L -1.60747,-216.467 L -1.91226,-216.688
 L -2.1869,-216.946 L -2.42705,-217.237 L -2.62891,-217.555 L -2.78932,-217.896 L -2.90575,-218.254 L -2.97633,-218.624
 L -3,-219 L -2.97633,-219.376 L -2.90575,-219.746 L -2.78932,-220.104 L -2.62891,-220.445 L -2.42705,-220.763
 L -2.1869,-221.054 L -1.91226,-221.312 L -1.60747,-221.533 L -1.27733,-221.714 L -0.927048,-221.853 L -0.562134,-221.947
 L -0.18837,-221.994 L 0.18837,-221.994 L 0.562134,-221.947 L 0.927048,-221.853 L 1.27733,-221.714 L 1.60747,-221.533
 L 1.91226,-221.312 L 2.1869,-221.054 L 2.42705,-220.763 L 2.62891,-220.445 L 2.78932,-220.104 L 2.90575,-219.746
 L 2.97633,-219.376 L 3,-219 L 2.97633,-218.624 L 2.90575,-218.254 L 2.78932,-217.896 L 2.62891,-217.555
 L 2.42705,-217.237 L 2.1869,-216.946 L 1.91226,-216.688 L 1.60747,-216.467 L 1.27733,-216.286 L 0.927048,-216.147
 L 0.562134,-216.053 L 0.18837,-216.006 z
M -2.6955,-205.442 L -3.06927,-205.49 L -3.43417,-205.583 L -3.78447,-205.722 L -4.11461,-205.903 L -4.4194,-206.125
 L -4.69403,-206.383 L -4.93417,-206.673 L -5.13605,-206.991 L -5.29646,-207.332 L -5.41287,-207.69 L -5.48347,-208.06
 L -5.50713,-208.436 L -5.48347,-208.812 L -5.41287,-209.183 L -5.29646,-209.541 L -5.13605,-209.882 L -4.93417,-210.2
 L -4.69403,-210.49 L -4.4194,-210.748 L -4.11461,-210.969 L -3.78447,-211.151 L -3.43417,-211.29 L -3.06927,-211.383
 L -2.6955,-211.431 L -2.31876,-211.431 L -1.94498,-211.383 L -1.58008,-211.29 L -1.22978,-211.151 L -0.899643,-210.969
 L -0.594849,-210.748 L -0.320221,-210.49 L -0.0800781,-210.2 L 0.12178,-209.882 L 0.282181,-209.541 L 0.398605,-209.183
 L 0.469208,-208.812 L 0.492859,-208.436 L 0.469208,-208.06 L 0.398605,-207.69 L 0.282181,-207.332 L 0.12178,-206.991
 L -0.0800781,-206.673 L -0.320221,-206.383 L -0.594849,-206.125 L -0.899643,-205.903 L -1.22978,-205.722 L -1.58008,-205.583
 L -1.94498,-205.49 L -2.31876,-205.442 z
M 7.3073,-204.935 L 6.93352,-204.982 L 6.56862,-205.076 L 6.21832,-205.215 L 5.88818,-205.396 L 5.58339,-205.618
 L 5.30876,-205.876 L 5.06862,-206.166 L 4.86674,-206.484 L 4.70634,-206.825 L 4.58992,-207.183 L 4.51932,-207.553
 L 4.49567,-207.929 L 4.51932,-208.305 L 4.58992,-208.675 L 4.70634,-209.034 L 4.86674,-209.374 L 5.06862,-209.693
 L 5.30876,-209.983 L 5.58339,-210.241 L 5.88818,-210.462 L 6.21832,-210.644 L 6.56862,-210.782 L 6.93352,-210.876
 L 7.3073,-210.923 L 7.68404,-210.923 L 8.05782,-210.876 L 8.42271,-210.782 L 8.77301,-210.644 L 9.10315,-210.462
 L 9.40794,-210.241 L 9.68257,-209.983 L 9.92271,-209.693 L 10.1246,-209.374 L 10.285,-209.034 L 10.4014,-208.675
 L 10.472,-208.305 L 10.4957,-207.929 L 10.472,-207.553 L 10.4014,-207.183 L 10.285,-206.825 L 10.1246,-206.484
 L 9.92271,-206.166 L 9.68257,-205.876 L 9.40794,-205.618 L 9.10315,-205.396 L 8.77301,-205.215 L 8.42271,-205.076
 L 8.05782,-204.982 L 7.68404,-204.935 z
M -12.5957,-203.926 L -12.9694,-203.973 L -13.3344,-204.067 L -13.6846,-204.205 L -14.0148,-204.387 L -14.3196,-204.608
 L -14.5942,-204.866 L -14.8344,-205.156 L -15.0362,-205.475 L -15.1966,-205.815 L -15.313,-206.174 L -15.3836,-206.544
 L -15.4073,-206.92 L -15.3836,-207.296 L -15.313,-207.666 L -15.1966,-208.024 L -15.0362,-208.365 L -14.8344,-208.683
 L -14.5942,-208.973 L -14.3196,-209.231 L -14.0148,-209.453 L -13.6846,-209.634 L -13.3344,-209.773 L -12.9694,-209.867
 L -12.5957,-209.914 L -12.2189,-209.914 L -11.8452,-209.867 L -11.4802,-209.773 L -11.13,-209.634 L -10.7998,-209.453
 L -10.495,-209.231 L -10.2204,-208.973 L -9.98024,-208.683 L -9.77837,-208.365 L -9.61797,-208.024 L -9.50154,-207.666
 L -9.43095,-207.296 L -9.40729,-206.92 L -9.43095,-206.544 L -9.50154,-206.174 L -9.61797,-205.815 L -9.77837,-205.475
 L -9.98024,-205.156 L -10.2204,-204.866 L -10.495,-204.608 L -10.7998,-204.387 L -11.13,-204.205 L -11.4802,-204.067
 L -11.8452,-203.973 L -12.2189,-203.926 z
M 17.0032,-202.425 L 16.6295,-202.472 L 16.2646,-202.566 L 15.9143,-202.704 L 15.5841,-202.886 L 15.2793,-203.107
 L 15.0047,-203.365 L 14.7646,-203.655 L 14.5627,-203.973 L 14.4023,-204.314 L 14.2859,-204.673 L 14.2153,-205.043
 L 14.1916,-205.419 L 14.2153,-205.795 L 14.2859,-206.165 L 14.4023,-206.523 L 14.5627,-206.864 L 14.7646,-207.182
 L 15.0047,-207.472 L 15.2793,-207.73 L 15.5841,-207.952 L 15.9143,-208.133 L 16.2646,-208.272 L 16.6295,-208.366
 L 17.0032,-208.413 L 17.38,-208.413 L 17.7538,-208.366 L 18.1187,-208.272 L 18.4689,-208.133 L 18.7991,-207.952
 L 19.1039,-207.73 L 19.3785,-207.472 L 19.6187,-207.182 L 19.8205,-206.864 L 19.9809,-206.523 L 20.0974,-206.165
 L 20.168,-205.795 L 20.1916,-205.419 L 20.168,-205.043 L 20.0974,-204.673 L 19.9809,-204.314 L 19.8205,-203.973
 L 19.6187,-203.655 L 19.3785,-203.365 L 19.1039,-203.107 L 18.7991,-202.886 L 18.4689,-202.704 L 18.1187,-202.566
 L 17.7538,-202.472 L 17.38,-202.425 z
M -21.9879,-200.447 L -22.3616,-200.494 L -22.7265,-200.588 L -23.0768,-200.727 L -23.407,-200.908 L -23.7118,-201.13
 L -23.9864,-201.388 L -24.2265,-201.678 L -24.4284,-201.996 L -24.5888,-202.337 L -24.7052,-202.695 L -24.7758,-203.065
 L -24.7995,-203.441 L -24.7758,-203.817 L -24.7052,-204.187 L -24.5888,-204.546 L -24.4284,-204.887 L -24.2265,-205.205
 L -23.9864,-205.495 L -23.7118,-205.753 L -23.407,-205.974 L -23.0768,-206.156 L -22.7265,-206.294 L -22.3616,-206.388
 L -21.9879,-206.435 L -21.6111,-206.435 L -21.2374,-206.388 L -20.8725,-206.294 L -20.5222,-206.156 L -20.192,-205.974
 L -19.8872,-205.753 L -19.6126,-205.495 L -19.3725,-205.205 L -19.1706,-204.887 L -19.0102,-204.546 L -18.8938,-204.187
 L -18.8232,-203.817 L -18.7995,-203.441 L -18.8232,-203.065 L -18.8938,-202.695 L -19.0102,-202.337 L -19.1706,-201.996
 L -19.3725,-201.678 L -19.6126,-201.388 L -19.8872,-201.13 L -20.192,-200.908 L -20.5222,-200.727 L -20.8725,-200.588
 L -21.2374,-200.494 L -21.6111,-200.447 z
M 25.9953,-198.014 L 25.6216,-198.061 L 25.2567,-198.155 L 24.9064,-198.293 L 24.5762,-198.475 L 24.2714,-198.696
 L 23.9968,-198.954 L 23.7567,-199.245 L 23.5548,-199.563 L 23.3944,-199.904 L 23.278,-200.262 L 23.2074,-200.632
 L 23.1837,-201.008 L 23.2074,-201.384 L 23.278,-201.754 L 23.3944,-202.112 L 23.5548,-202.453 L 23.7567,-202.771
 L 23.9968,-203.062 L 24.2714,-203.319 L 24.5762,-203.541 L 24.9064,-203.722 L 25.2567,-203.861 L 25.6216,-203.955
 L 25.9953,-204.002 L 26.3721,-204.002 L 26.7458,-203.955 L 27.1108,-203.861 L 27.461,-203.722 L 27.7912,-203.541
 L 28.096,-203.319 L 28.3706,-203.062 L 28.6108,-202.771 L 28.8126,-202.453 L 28.973,-202.112 L 29.0895,-201.754
 L 29.16,-201.384 L 29.1837,-201.008 L 29.16,-200.632 L 29.0895,-200.262 L 28.973,-199.904 L 28.8126,-199.563
 L 28.6108,-199.245 L 28.3706,-198.954 L 28.096,-198.696 L 27.7912,-198.475 L 27.461,-198.293 L 27.1108,-198.155
 L 26.7458,-198.061 L 26.3721,-198.014 z
M -30.4876,-195.149 L -30.8614,-195.197 L -31.2263,-195.29 L -31.5766,-195.429 L -31.9067,-195.61 L -32.2115,-195.832
 L -32.4861,-196.09 L -32.7263,-196.38 L -32.9282,-196.698 L -33.0886,-197.039 L -33.205,-197.397 L -33.2756,-197.767
 L -33.2992,-198.143 L -33.2756,-198.519 L -33.205,-198.889 L -33.0886,-199.248 L -32.9282,-199.589 L -32.7263,-199.907
 L -32.4861,-200.197 L -32.2115,-200.455 L -31.9067,-200.676 L -31.5766,-200.858 L -31.2263,-200.997 L -30.8614,-201.09
 L -30.4876,-201.137 L -30.1109,-201.137 L -29.7371,-201.09 L -29.3722,-200.997 L -29.0219,-200.858 L -28.6918,-200.676
 L -28.387,-200.455 L -28.1123,-200.197 L -27.8722,-199.907 L -27.6703,-199.589 L -27.5099,-199.248 L -27.3935,-198.889
 L -27.3229,-198.519 L -27.2992,-198.143 L -27.3229,-197.767 L -27.3935,-197.397 L -27.5099,-197.039 L -27.6703,-196.698
 L -27.8722,-196.38 L -28.1123,-196.09 L -28.387,-195.832 L -28.6918,-195.61 L -29.0219,-195.429 L -29.3722,-195.29
 L -29.7371,-195.197 L -30.1109,-195.149 z
M 33.9155,-191.883 L 33.5417,-191.93 L 33.1768,-192.024 L 32.8265,-192.163 L 32.4964,-192.344 L 32.1916,-192.566
 L 31.9169,-192.824 L 31.6768,-193.114 L 31.4749,-193.432 L 31.3145,-193.773 L 31.1981,-194.131 L 31.1275,-194.501
 L 31.1039,-194.877 L 31.1275,-195.253 L 31.1981,-195.623 L 31.3145,-195.982 L 31.4749,-196.322 L 31.6768,-196.641
 L 31.9169,-196.931 L 32.1916,-197.189 L 32.4964,-197.41 L 32.8265,-197.592 L 33.1768,-197.73 L 33.5417,-197.824
 L 33.9155,-197.871 L 34.2922,-197.871 L 34.666,-197.824 L 35.0309,-197.73 L 35.3812,-197.592 L 35.7113,-197.41
 L 36.0161,-197.189 L 36.2908,-196.931 L 36.5309,-196.641 L 36.7328,-196.322 L 36.8932,-195.982 L 37.0096,-195.623
 L 37.0802,-195.253 L 37.1039,-194.877 L 37.0802,-194.501 L 37.0096,-194.131 L 36.8932,-193.773 L 36.7328,-193.432
 L 36.5309,-193.114 L 36.2908,-192.824 L 36.0161,-192.566 L 35.7113,-192.344 L 35.3812,-192.163 L 35.0309,-192.024
 L 34.666,-191.93 L 34.2922,-191.883 z
M -37.7469,-188.249 L -38.1207,-188.296 L -38.4856,-188.39 L -38.8359,-188.528 L -39.166,-188.71 L -39.4708,-188.931
 L -39.7454,-189.189 L -39.9856,-189.48 L -40.1874,-189.798 L -40.3479,-190.139 L -40.4643,-190.497 L -40.5349,-190.867
 L -40.5585,-191.243 L -40.5349,-191.619 L -40.4643,-191.989 L -40.3479,-192.347 L -40.1874,-192.688 L -39.9856,-193.006
 L -39.7454,-193.297 L -39.4708,-193.554 L -39.166,-193.776 L -38.8359,-193.957 L -38.4856,-194.096 L -38.1207,-194.19
 L -37.7469,-194.237 L -37.3701,-194.237 L -36.9964,-194.19 L -36.6315,-194.096 L -36.2812,-193.957 L -35.951,-193.776
 L -35.6463,-193.554 L -35.3716,-193.297 L -35.1315,-193.006 L -34.9296,-192.688 L -34.7692,-192.347 L -34.6528,-191.989
 L -34.5822,-191.619 L -34.5585,-191.243 L -34.5822,-190.867 L -34.6528,-190.497 L -34.7692,-190.139 L -34.9296,-189.798
 L -35.1315,-189.48 L -35.3716,-189.189 L -35.6463,-188.931 L -35.951,-188.71 L -36.2812,-188.528 L -36.6315,-188.39
 L -36.9964,-188.296 L -37.3701,-188.249 z
M 40.4394,-184.284 L 40.0656,-184.331 L 39.7007,-184.425 L 39.3504,-184.563 L 39.0203,-184.745 L 38.7155,-184.966
 L 38.4409,-185.224 L 38.2007,-185.514 L 37.9989,-185.833 L 37.8385,-186.173 L 37.722,-186.532 L 37.6514,-186.902
 L 37.6278,-187.278 L 37.6514,-187.654 L 37.722,-188.024 L 37.8385,-188.382 L 37.9989,-188.723 L 38.2007,-189.041
 L 38.4409,-189.331 L 38.7155,-189.589 L 39.0203,-189.811 L 39.3504,-189.992 L 39.7007,-190.131 L 40.0656,-190.225
 L 40.4394,-190.272 L 40.8162,-190.272 L 41.1899,-190.225 L 41.5548,-190.131 L 41.9051,-189.992 L 42.2353,-189.811
 L 42.5401,-189.589 L 42.8147,-189.331 L 43.0548,-189.041 L 43.2567,-188.723 L 43.4171,-188.382 L 43.5335,-188.024
 L 43.6041,-187.654 L 43.6278,-187.278 L 43.6041,-186.902 L 43.5335,-186.532 L 43.4171,-186.173 L 43.2567,-185.833
 L 43.0548,-185.514 L 42.8147,-185.224 L 42.5401,-184.966 L 42.2353,-184.745 L 41.9051,-184.563 L 41.5548,-184.425
 L 41.1899,-184.331 L 40.8162,-184.284 z
M -43.4685,-180.028 L -43.8423,-180.076 L -44.2072,-180.169 L -44.5575,-180.308 L -44.8876,-180.489 L -45.1924,-180.711
 L -45.4671,-180.969 L -45.7072,-181.259 L -45.9091,-181.577 L -46.0695,-181.918 L -46.1859,-182.276 L -46.2565,-182.646
 L -46.2802,-183.022 L -46.2565,-183.398 L -46.1859,-183.769 L -46.0695,-184.127 L -45.9091,-184.468 L -45.7072,-184.786
 L -45.4671,-185.076 L -45.1924,-185.334 L -44.8876,-185.555 L -44.5575,-185.737 L -44.2072,-185.876 L -43.8423,-185.969
 L -43.4685,-186.017 L -43.0918,-186.017 L -42.718,-185.969 L -42.3531,-185.876 L -42.0028,-185.737 L -41.6727,-185.555
 L -41.3679,-185.334 L -41.0932,-185.076 L -40.8531,-184.786 L -40.6512,-184.468 L -40.4908,-184.127 L -40.3744,-183.769
 L -40.3038,-183.398 L -40.2802,-183.022 L -40.3038,-182.646 L -40.3744,-182.276 L -40.4908,-181.918 L -40.6512,-181.577
 L -40.8531,-181.259 L -41.0932,-180.969 L -41.3679,-180.711 L -41.6727,-180.489 L -42.0028,-180.308 L -42.3531,-180.169
 L -42.718,-180.076 L -43.0918,-180.028 z
M 45.3,-175.527 L 44.9263,-175.574 L 44.5614,-175.667 L 44.2111,-175.806 L 43.8809,-175.988 L 43.5761,-176.209
 L 43.3015,-176.467 L 43.0614,-176.757 L 42.8595,-177.075 L 42.6991,-177.416 L 42.5827,-177.775 L 42.5121,-178.145
 L 42.4884,-178.521 L 42.5121,-178.897 L 42.5827,-179.267 L 42.6991,-179.625 L 42.8595,-179.966 L 43.0614,-180.284
 L 43.3015,-180.574 L 43.5761,-180.832 L 43.8809,-181.054 L 44.2111,-181.235 L 44.5614,-181.374 L 44.9263,-181.467
 L 45.3,-181.515 L 45.6768,-181.515 L 46.0506,-181.467 L 46.4155,-181.374 L 46.7657,-181.235 L 47.0959,-181.054
 L 47.4007,-180.832 L 47.6753,-180.574 L 47.9155,-180.284 L 48.1173,-179.966 L 48.2777,-179.625 L 48.3941,-179.267
 L 48.4648,-178.897 L 48.4884,-178.521 L 48.4648,-178.145 L 48.3941,-177.775 L 48.2777,-177.416 L 48.1173,-177.075
 L 47.9155,-176.757 L 47.6753,-176.467 L 47.4007,-176.209 L 47.0959,-175.988 L 46.7657,-175.806 L 46.4155,-175.667
 L 46.0506,-175.574 L 45.6768,-175.527 z
M -47.4183,-170.824 L -47.792,-170.872 L -48.1569,-170.965 L -48.5072,-171.104 L -48.8374,-171.285 L -49.1422,-171.507
 L -49.4168,-171.765 L -49.6569,-172.055 L -49.8588,-172.373 L -50.0192,-172.714 L -50.1356,-173.072 L -50.2062,-173.442
 L -50.2299,-173.818 L -50.2062,-174.194 L -50.1356,-174.565 L -50.0192,-174.923 L -49.8588,-175.264 L -49.6569,-175.582
 L -49.4168,-175.872 L -49.1422,-176.13 L -48.8374,-176.351 L -48.5072,-176.533 L -48.1569,-176.672 L -47.792,-176.765
 L -47.4183,-176.813 L -47.0415,-176.813 L -46.6677,-176.765 L -46.3028,-176.672 L -45.9525,-176.533 L -45.6224,-176.351
 L -45.3176,-176.13 L -45.043,-175.872 L -44.8028,-175.582 L -44.601,-175.264 L -44.4406,-174.923 L -44.3241,-174.565
 L -44.2535,-174.194 L -44.2299,-173.818 L -44.2535,-173.442 L -44.3241,-173.072 L -44.4406,-172.714 L -44.601,-172.373
 L -44.8028,-172.055 L -45.043,-171.765 L -45.3176,-171.507 L -45.6224,-171.285 L -45.9525,-171.104 L -46.3028,-170.965
 L -46.6677,-170.872 L -47.0415,-170.824 z
M 48.2984,-165.97 L 47.9246,-166.017 L 47.5597,-166.111 L 47.2094,-166.25 L 46.8792,-166.431 L 46.5744,-166.653
 L 46.2998,-166.911 L 46.0597,-167.201 L 45.8578,-167.519 L 45.6974,-167.86 L 45.581,-168.218 L 45.5104,-168.588
 L 45.4867,-168.964 L 45.5104,-169.34 L 45.581,-169.71 L 45.6974,-170.069 L 45.8578,-170.41 L 46.0597,-170.728
 L 46.2998,-171.018 L 46.5744,-171.276 L 46.8792,-171.497 L 47.2094,-171.679 L 47.5597,-171.817 L 47.9246,-171.911
 L 48.2984,-171.958 L 48.6751,-171.958 L 49.0489,-171.911 L 49.4138,-171.817 L 49.7641,-171.679 L 50.0942,-171.497
 L 50.399,-171.276 L 50.6736,-171.018 L 50.9138,-170.728 L 51.1156,-170.41 L 51.2761,-170.069 L 51.3925,-169.71
 L 51.4631,-169.34 L 51.4867,-168.964 L 51.4631,-168.588 L 51.3925,-168.218 L 51.2761,-167.86 L 51.1156,-167.519
 L 50.9138,-167.201 L 50.6736,-166.911 L 50.399,-166.653 L 50.0942,-166.431 L 49.7641,-166.25 L 49.4138,-166.111
 L 49.0489,-166.017 L 48.6751,-165.97 z
M -49.4344,-161.014 L -49.8082,-161.061 L -50.1731,-161.155 L -50.5234,-161.293 L -50.8535,-161.475 L -51.1583,-161.696
 L -51.4329,-161.954 L -51.6731,-162.244 L -51.8749,-162.563 L -52.0354,-162.903 L -52.1518,-163.262 L -52.2224,-163.632
 L -52.246,-164.008 L -52.2224,-164.384 L -52.1518,-164.754 L -52.0354,-165.112 L -51.8749,-165.453 L -51.6731,-165.771
 L -51.4329,-166.061 L -51.1583,-166.319 L -50.8535,-166.541 L -50.5234,-166.722 L -50.1731,-166.861 L -49.8082,-166.955
 L -49.4344,-167.002 L -49.0576,-167.002 L -48.6839,-166.955 L -48.319,-166.861 L -47.9687,-166.722 L -47.6385,-166.541
 L -47.3338,-166.319 L -47.0591,-166.061 L -46.819,-165.771 L -46.6171,-165.453 L -46.4567,-165.112 L -46.3403,-164.754
 L -46.2697,-164.384 L -46.246,-164.008 L -46.2697,-163.632 L -46.3403,-163.262 L -46.4567,-162.903 L -46.6171,-162.563
 L -46.819,-162.244 L -47.0591,-161.954 L -47.3338,-161.696 L -47.6385,-161.475 L -47.9687,-161.293 L -48.319,-161.155
 L -48.6839,-161.061 L -49.0576,-161.014 z
M 59.8116,-156.006 L 59.4379,-156.053 L 59.0729,-156.147 L 58.7227,-156.286 L 58.3925,-156.467 L 58.0877,-156.688
 L 57.8131,-156.946 L 57.5729,-157.237 L 57.3711,-157.555 L 57.2107,-157.896 L 57.0942,-158.254 L 57.0237,-158.624
 L 57,-159 L 57.0237,-159.376 L 57.0942,-159.746 L 57.2107,-160.104 L 57.3711,-160.445 L 57.5729,-160.763
 L 57.8131,-161.054 L 58.0877,-161.312 L 58.3925,-161.533 L 58.7227,-161.714 L 59.0729,-161.853 L 59.4379,-161.947
 L 59.8116,-161.994 L 60.1884,-161.994 L 60.5621,-161.947 L 60.927,-161.853 L 61.2773,-161.714 L 61.6075,-161.533
 L 61.9123,-161.312 L 62.1869,-161.054 L 62.427,-160.763 L 62.6289,-160.445 L 62.7893,-160.104 L 62.9057,-159.746
 L 62.9763,-159.376 L 63,-159 L 62.9763,-158.624 L 62.9057,-158.254 L 62.7893,-157.896 L 62.6289,-157.555
 L 62.427,-157.237 L 62.1869,-156.946 L 61.9123,-156.688 L 61.6075,-156.467 L 61.2773,-156.286 L 60.927,-156.147
 L 60.5621,-156.053 L 60.1884,-156.006 z
M 49.3116,-156.006 L 48.9379,-156.053 L 48.5729,-156.147 L 48.2227,-156.286 L 47.8925,-156.467 L 47.5877,-156.688
 L 47.3131,-156.946 L 47.0729,-157.237 L 46.8711,-157.555 L 46.7107,-157.896 L 46.5942,-158.254 L 46.5237,-158.624
 L 46.5,-159 L 46.5237,-159.376 L 46.5942,-159.746 L 46.7107,-160.104 L 46.8711,-160.445 L 47.0729,-160.763
 L 47.3131,-161.054 L 47.5877,-161.312 L 47.8925,-161.533 L 48.2227,-161.714 L 48.5729,-161.853 L 48.9379,-161.947
 L 49.3116,-161.994 L 49.6884,-161.994 L 50.0621,-161.947 L 50.427,-161.853 L 50.7773,-161.714 L 51.1075,-161.533
 L 51.4123,-161.312 L 51.6869,-161.054 L 51.927,-160.763 L 52.1289,-160.445 L 52.2893,-160.104 L 52.4057,-159.746
 L 52.4763,-159.376 L 52.5,-159 L 52.4763,-158.624 L 52.4057,-158.254 L 52.2893,-157.896 L 52.1289,-157.555
 L 51.927,-157.237 L 51.6869,-156.946 L 51.4123,-156.688 L 51.1075,-156.467 L 50.7773,-156.286 L 50.427,-156.147
 L 50.0621,-156.053 L 49.6884,-156.006 z
M -60.1884,-156.006 L -60.5621,-156.053 L -60.927,-156.147 L -61.2773,-156.286 L -61.6075,-156.467 L -61.9123,-156.688
 L -62.1869,-156.946 L -62.427,-157.237 L -62.6289,-157.555 L -62.7893,-157.896 L -62.9057,-158.254 L -62.9763,-158.624
 L -63,-159 L -62.9763,-159.376 L -62.9057,-159.746 L -62.7893,-160.104 L -62.6289,-160.445 L -62.427,-160.763
 L -62.1869,-161.054 L -61.9123,-161.312 L -61.6075,-161.533 L -61.2773,-161.714 L -60.927,-161.853 L -60.5621,-161.947
 L -60.1884,-161.994 L -59.8116,-161.994 L -59.4379,-161.947 L -59.0729,-161.853 L -58.7227,-161.714 L -58.3925,-161.533
 L -58.0877,-161.312 L -57.8131,-161.054 L -57.5729,-160.763 L -57.3711,-160.445 L -57.2107,-160.104 L -57.0942,-159.746
 L -57.0237,-159.376 L -57,-159 L -57.0237,-158.624 L -57.0942,-158.254 L -57.2107,-157.896 L -57.3711,-157.555
 L -57.5729,-157.237 L -57.8131,-156.946 L -58.0877,-156.688 L -58.3925,-156.467 L -58.7227,-156.286 L -59.0729,-156.147
 L -59.4379,-156.053 L -59.8116,-156.006 z
M -49.4344,-150.998 L -49.8082,-151.045 L -50.1731,-151.139 L -50.5234,-151.278 L -50.8535,-151.459 L -51.1583,-151.681
 L -51.4329,-151.939 L -51.6731,-152.229 L -51.8749,-152.547 L -52.0354,-152.888 L -52.1518,-153.246 L -52.2224,-153.616
 L -52.246,-153.992 L -52.2224,-154.368 L -52.1518,-154.738 L -52.0354,-155.097 L -51.8749,-155.437 L -51.6731,-155.756
 L -51.4329,-156.046 L -51.1583,-156.304 L -50.8535,-156.525 L -50.5234,-156.707 L -50.1731,-156.845 L -49.8082,-156.939
 L -49.4344,-156.986 L -49.0576,-156.986 L -48.6839,-156.939 L -48.319,-156.845 L -47.9687,-156.707 L -47.6385,-156.525
 L -47.3338,-156.304 L -47.0591,-156.046 L -46.819,-155.756 L -46.6171,-155.437 L -46.4567,-155.097 L -46.3403,-154.738
 L -46.2697,-154.368 L -46.246,-153.992 L -46.2697,-153.616 L -46.3403,-153.246 L -46.4567,-152.888 L -46.6171,-152.547
 L -46.819,-152.229 L -47.0591,-151.939 L -47.3338,-151.681 L -47.6385,-151.459 L -47.9687,-151.278 L -48.319,-151.139
 L -48.6839,-151.045 L -49.0576,-150.998 z
M 48.2984,-146.042 L 47.9246,-146.089 L 47.5597,-146.183 L 47.2094,-146.321 L 46.8792,-146.503 L 46.5744,-146.724
 L 46.2998,-146.982 L 46.0597,-147.272 L 45.8578,-147.59 L 45.6974,-147.931 L 45.581,-148.29 L 45.5104,-148.66
 L 45.4867,-149.036 L 45.5104,-149.412 L 45.581,-149.782 L 45.6974,-150.14 L 45.8578,-150.481 L 46.0597,-150.799
 L 46.2998,-151.089 L 46.5744,-151.347 L 46.8792,-151.569 L 47.2094,-151.75 L 47.5597,-151.889 L 47.9246,-151.983
 L 48.2984,-152.03 L 48.6751,-152.03 L 49.0489,-151.983 L 49.4138,-151.889 L 49.7641,-151.75 L 50.0942,-151.569
 L 50.399,-151.347 L 50.6736,-151.089 L 50.9138,-150.799 L 51.1156,-150.481 L 51.2761,-150.14 L 51.3925,-149.782
 L 51.4631,-149.412 L 51.4867,-149.036 L 51.4631,-148.66 L 51.3925,-148.29 L 51.2761,-147.931 L 51.1156,-147.59
 L 50.9138,-147.272 L 50.6736,-146.982 L 50.399,-146.724 L 50.0942,-146.503 L 49.7641,-146.321 L 49.4138,-146.183
 L 49.0489,-146.089 L 48.6751,-146.042 z
M -47.4183,-141.187 L -47.792,-141.235 L -48.1569,-141.328 L -48.5072,-141.467 L -48.8374,-141.649 L -49.1422,-141.87
 L -49.4168,-142.128 L -49.6569,-142.418 L -49.8588,-142.736 L -50.0192,-143.077 L -50.1356,-143.435 L -50.2062,-143.806
 L -50.2299,-144.182 L -50.2062,-144.558 L -50.1356,-144.928 L -50.0192,-145.286 L -49.8588,-145.627 L -49.6569,-145.945
 L -49.4168,-146.235 L -49.1422,-146.493 L -48.8374,-146.715 L -48.5072,-146.896 L -48.1569,-147.035 L -47.792,-147.128
 L -47.4183,-147.176 L -47.0415,-147.176 L -46.6677,-147.128 L -46.3028,-147.035 L -45.9525,-146.896 L -45.6224,-146.715
 L -45.3176,-146.493 L -45.043,-146.235 L -44.8028,-145.945 L -44.601,-145.627 L -44.4406,-145.286 L -44.3241,-144.928
 L -44.2535,-144.558 L -44.2299,-144.182 L -44.2535,-143.806 L -44.3241,-143.435 L -44.4406,-143.077 L -44.601,-142.736
 L -44.8028,-142.418 L -45.043,-142.128 L -45.3176,-141.87 L -45.6224,-141.649 L -45.9525,-141.467 L -46.3028,-141.328
 L -46.6677,-141.235 L -47.0415,-141.187 z
M 45.3,-136.485 L 44.9263,-136.533 L 44.5614,-136.626 L 44.2111,-136.765 L 43.8809,-136.946 L 43.5761,-137.168
 L 43.3015,-137.426 L 43.0614,-137.716 L 42.8595,-138.034 L 42.6991,-138.375 L 42.5827,-138.733 L 42.5121,-139.103
 L 42.4884,-139.479 L 42.5121,-139.855 L 42.5827,-140.225 L 42.6991,-140.584 L 42.8595,-140.925 L 43.0614,-141.243
 L 43.3015,-141.533 L 43.5761,-141.791 L 43.8809,-142.012 L 44.2111,-142.194 L 44.5614,-142.333 L 44.9263,-142.426
 L 45.3,-142.473 L 45.6768,-142.473 L 46.0506,-142.426 L 46.4155,-142.333 L 46.7657,-142.194 L 47.0959,-142.012
 L 47.4007,-141.791 L 47.6753,-141.533 L 47.9155,-141.243 L 48.1173,-140.925 L 48.2777,-140.584 L 48.3941,-140.225
 L 48.4648,-139.855 L 48.4884,-139.479 L 48.4648,-139.103 L 48.3941,-138.733 L 48.2777,-138.375 L 48.1173,-138.034
 L 47.9155,-137.716 L 47.6753,-137.426 L 47.4007,-137.168 L 47.0959,-136.946 L 46.7657,-136.765 L 46.4155,-136.626
 L 46.0506,-136.533 L 45.6768,-136.485 z
M -43.4685,-131.983 L -43.8423,-132.031 L -44.2072,-132.124 L -44.5575,-132.263 L -44.8876,-132.445 L -45.1924,-132.666
 L -45.4671,-132.924 L -45.7072,-133.214 L -45.9091,-133.532 L -46.0695,-133.873 L -46.1859,-134.231 L -46.2565,-134.602
 L -46.2802,-134.978 L -46.2565,-135.354 L -46.1859,-135.724 L -46.0695,-136.082 L -45.9091,-136.423 L -45.7072,-136.741
 L -45.4671,-137.031 L -45.1924,-137.289 L -44.8876,-137.511 L -44.5575,-137.692 L -44.2072,-137.831 L -43.8423,-137.924
 L -43.4685,-137.972 L -43.0918,-137.972 L -42.718,-137.924 L -42.3531,-137.831 L -42.0028,-137.692 L -41.6727,-137.511
 L -41.3679,-137.289 L -41.0932,-137.031 L -40.8531,-136.741 L -40.6512,-136.423 L -40.4908,-136.082 L -40.3744,-135.724
 L -40.3038,-135.354 L -40.2802,-134.978 L -40.3038,-134.602 L -40.3744,-134.231 L -40.4908,-133.873 L -40.6512,-133.532
 L -40.8531,-133.214 L -41.0932,-132.924 L -41.3679,-132.666 L -41.6727,-132.445 L -42.0028,-132.263 L -42.3531,-132.124
 L -42.718,-132.031 L -43.0918,-131.983 z
M 40.4394,-127.728 L 40.0656,-127.775 L 39.7007,-127.869 L 39.3504,-128.008 L 39.0203,-128.189 L 38.7155,-128.411
 L 38.4409,-128.669 L 38.2007,-128.959 L 37.9989,-129.277 L 37.8385,-129.618 L 37.722,-129.976 L 37.6514,-130.346
 L 37.6278,-130.722 L 37.6514,-131.098 L 37.722,-131.468 L 37.8385,-131.827 L 37.9989,-132.167 L 38.2007,-132.486
 L 38.4409,-132.776 L 38.7155,-133.034 L 39.0203,-133.255 L 39.3504,-133.437 L 39.7007,-133.575 L 40.0656,-133.669
 L 40.4394,-133.716 L 40.8162,-133.716 L 41.1899,-133.669 L 41.5548,-133.575 L 41.9051,-133.437 L 42.2353,-133.255
 L 42.5401,-133.034 L 42.8147,-132.776 L 43.0548,-132.486 L 43.2567,-132.167 L 43.4171,-131.827 L 43.5335,-131.468
 L 43.6041,-131.098 L 43.6278,-130.722 L 43.6041,-130.346 L 43.5335,-129.976 L 43.4171,-129.618 L 43.2567,-129.277
 L 43.0548,-128.959 L 42.8147,-128.669 L 42.5401,-128.411 L 42.2353,-128.189 L 41.9051,-128.008 L 41.5548,-127.869
 L 41.1899,-127.775 L 40.8162,-127.728 z
M -37.7469,-123.763 L -38.1207,-123.81 L -38.4856,-123.904 L -38.8359,-124.043 L -39.166,-124.224 L -39.4708,-124.446
 L -39.7454,-124.703 L -39.9856,-124.994 L -40.1874,-125.312 L -40.3479,-125.653 L -40.4643,-126.011 L -40.5349,-126.381
 L -40.5585,-126.757 L -40.5349,-127.133 L -40.4643,-127.503 L -40.3479,-127.861 L -40.1874,-128.202 L -39.9856,-128.52
 L -39.7454,-128.811 L -39.4708,-129.069 L -39.166,-129.29 L -38.8359,-129.472 L -38.4856,-129.61 L -38.1207,-129.704
 L -37.7469,-129.751 L -37.3701,-129.751 L -36.9964,-129.704 L -36.6315,-129.61 L -36.2812,-129.472 L -35.951,-129.29
 L -35.6463,-129.069 L -35.3716,-128.811 L -35.1315,-128.52 L -34.9296,-128.202 L -34.7692,-127.861 L -34.6528,-127.503
 L -34.5822,-127.133 L -34.5585,-126.757 L -34.5822,-126.381 L -34.6528,-126.011 L -34.7692,-125.653 L -34.9296,-125.312
 L -35.1315,-124.994 L -35.3716,-124.703 L -35.6463,-124.446 L -35.951,-124.224 L -36.2812,-124.043 L -36.6315,-123.904
 L -36.9964,-123.81 L -37.3701,-123.763 z
M 33.9155,-120.129 L 33.5417,-120.176 L 33.1768,-120.27 L 32.8265,-120.408 L 32.4964,-120.59 L 32.1916,-120.811
 L 31.9169,-121.069 L 31.6768,-121.359 L 31.4749,-121.678 L 31.3145,-122.018 L 31.1981,-122.377 L 31.1275,-122.747
 L 31.1039,-123.123 L 31.1275,-123.499 L 31.1981,-123.869 L 31.3145,-124.227 L 31.4749,-124.568 L 31.6768,-124.886
 L 31.9169,-125.176 L 32.1916,-125.434 L 32.4964,-125.656 L 32.8265,-125.837 L 33.1768,-125.976 L 33.5417,-126.07
 L 33.9155,-126.117 L 34.2922,-126.117 L 34.666,-126.07 L 35.0309,-125.976 L 35.3812,-125.837 L 35.7113,-125.656
 L 36.0161,-125.434 L 36.2908,-125.176 L 36.5309,-124.886 L 36.7328,-124.568 L 36.8932,-124.227 L 37.0096,-123.869
 L 37.0802,-123.499 L 37.1039,-123.123 L 37.0802,-122.747 L 37.0096,-122.377 L 36.8932,-122.018 L 36.7328,-121.678
 L 36.5309,-121.359 L 36.2908,-121.069 L 36.0161,-120.811 L 35.7113,-120.59 L 35.3812,-120.408 L 35.0309,-120.27
 L 34.666,-120.176 L 34.2922,-120.129 z
M -30.4876,-116.863 L -30.8614,-116.91 L -31.2263,-117.003 L -31.5766,-117.142 L -31.9067,-117.324 L -32.2115,-117.545
 L -32.4861,-117.803 L -32.7263,-118.093 L -32.9282,-118.411 L -33.0886,-118.752 L -33.205,-119.111 L -33.2756,-119.481
 L -33.2992,-119.857 L -33.2756,-120.233 L -33.205,-120.603 L -33.0886,-120.961 L -32.9282,-121.302 L -32.7263,-121.62
 L -32.4861,-121.91 L -32.2115,-122.168 L -31.9067,-122.39 L -31.5766,-122.571 L -31.2263,-122.71 L -30.8614,-122.803
 L -30.4876,-122.851 L -30.1109,-122.851 L -29.7371,-122.803 L -29.3722,-122.71 L -29.0219,-122.571 L -28.6918,-122.39
 L -28.387,-122.168 L -28.1123,-121.91 L -27.8722,-121.62 L -27.6703,-121.302 L -27.5099,-120.961 L -27.3935,-120.603
 L -27.3229,-120.233 L -27.2992,-119.857 L -27.3229,-119.481 L -27.3935,-119.111 L -27.5099,-118.752 L -27.6703,-118.411
 L -27.8722,-118.093 L -28.1123,-117.803 L -28.387,-117.545 L -28.6918,-117.324 L -29.0219,-117.142 L -29.3722,-117.003
 L -29.7371,-116.91 L -30.1109,-116.863 z
M 25.9953,-113.998 L 25.6216,-114.045 L 25.2567,-114.139 L 24.9064,-114.278 L 24.5762,-114.459 L 24.2714,-114.681
 L 23.9968,-114.938 L 23.7567,-115.229 L 23.5548,-115.547 L 23.3944,-115.888 L 23.278,-116.246 L 23.2074,-116.616
 L 23.1837,-116.992 L 23.2074,-117.368 L 23.278,-117.738 L 23.3944,-118.096 L 23.5548,-118.437 L 23.7567,-118.755
 L 23.9968,-119.046 L 24.2714,-119.304 L 24.5762,-119.525 L 24.9064,-119.707 L 25.2567,-119.845 L 25.6216,-119.939
 L 25.9953,-119.986 L 26.3721,-119.986 L 26.7458,-119.939 L 27.1108,-119.845 L 27.461,-119.707 L 27.7912,-119.525
 L 28.096,-119.304 L 28.3706,-119.046 L 28.6108,-118.755 L 28.8126,-118.437 L 28.973,-118.096 L 29.0895,-117.738
 L 29.16,-117.368 L 29.1837,-116.992 L 29.16,-116.616 L 29.0895,-116.246 L 28.973,-115.888 L 28.8126,-115.547
 L 28.6108,-115.229 L 28.3706,-114.938 L 28.096,-114.681 L 27.7912,-114.459 L 27.461,-114.278 L 27.1108,-114.139
 L 26.7458,-114.045 L 26.3721,-113.998 z
M -21.9879,-111.565 L -22.3616,-111.612 L -22.7265,-111.706 L -23.0768,-111.844 L -23.407,-112.026 L -23.7118,-112.247
 L -23.9864,-112.505 L -24.2265,-112.795 L -24.4284,-113.113 L -24.5888,-113.454 L -24.7052,-113.813 L -24.7758,-114.183
 L -24.7995,-114.559 L -24.7758,-114.935 L -24.7052,-115.305 L -24.5888,-115.663 L -24.4284,-116.004 L -24.2265,-116.322
 L -23.9864,-116.612 L -23.7118,-116.87 L -23.407,-117.092 L -23.0768,-117.273 L -22.7265,-117.412 L -22.3616,-117.506
 L -21.9879,-117.553 L -21.6111,-117.553 L -21.2374,-117.506 L -20.8725,-117.412 L -20.5222,-117.273 L -20.192,-117.092
 L -19.8872,-116.87 L -19.6126,-116.612 L -19.3725,-116.322 L -19.1706,-116.004 L -19.0102,-115.663 L -18.8938,-115.305
 L -18.8232,-114.935 L -18.7995,-114.559 L -18.8232,-114.183 L -18.8938,-113.813 L -19.0102,-113.454 L -19.1706,-113.113
 L -19.3725,-112.795 L -19.6126,-112.505 L -19.8872,-112.247 L -20.192,-112.026 L -20.5222,-111.844 L -20.8725,-111.706
 L -21.2374,-111.612 L -21.6111,-111.565 z
M 17.0032,-109.587 L 16.6295,-109.634 L 16.2646,-109.728 L 15.9143,-109.867 L 15.5841,-110.048 L 15.2793,-110.27
 L 15.0047,-110.528 L 14.7646,-110.818 L 14.5627,-111.136 L 14.4023,-111.477 L 14.2859,-111.835 L 14.2153,-112.205
 L 14.1916,-112.581 L 14.2153,-112.957 L 14.2859,-113.327 L 14.4023,-113.686 L 14.5627,-114.027 L 14.7646,-114.345
 L 15.0047,-114.635 L 15.2793,-114.893 L 15.5841,-115.114 L 15.9143,-115.296 L 16.2646,-115.434 L 16.6295,-115.528
 L 17.0032,-115.575 L 17.38,-115.575 L 17.7538,-115.528 L 18.1187,-115.434 L 18.4689,-115.296 L 18.7991,-115.114
 L 19.1039,-114.893 L 19.3785,-114.635 L 19.6187,-114.345 L 19.8205,-114.027 L 19.9809,-113.686 L 20.0974,-113.327
 L 20.168,-112.957 L 20.1916,-112.581 L 20.168,-112.205 L 20.0974,-111.835 L 19.9809,-111.477 L 19.8205,-111.136
 L 19.6187,-110.818 L 19.3785,-110.528 L 19.1039,-110.27 L 18.7991,-110.048 L 18.4689,-109.867 L 18.1187,-109.728
 L 17.7538,-109.634 L 17.38,-109.587 z
M -12.5957,-108.086 L -12.9694,-108.133 L -13.3344,-108.227 L -13.6846,-108.366 L -14.0148,-108.547 L -14.3196,-108.769
 L -14.5942,-109.027 L -14.8344,-109.317 L -15.0362,-109.635 L -15.1966,-109.976 L -15.313,-110.334 L -15.3836,-110.704
 L -15.4073,-111.08 L -15.3836,-111.456 L -15.313,-111.826 L -15.1966,-112.185 L -15.0362,-112.525 L -14.8344,-112.844
 L -14.5942,-113.134 L -14.3196,-113.392 L -14.0148,-113.613 L -13.6846,-113.795 L -13.3344,-113.933 L -12.9694,-114.027
 L -12.5957,-114.074 L -12.2189,-114.074 L -11.8452,-114.027 L -11.4802,-113.933 L -11.13,-113.795 L -10.7998,-113.613
 L -10.495,-113.392 L -10.2204,-113.134 L -9.98024,-112.844 L -9.77837,-112.525 L -9.61797,-112.185 L -9.50154,-111.826
 L -9.43095,-111.456 L -9.40729,-111.08 L -9.43095,-110.704 L -9.50154,-110.334 L -9.61797,-109.976 L -9.77837,-109.635
 L -9.98024,-109.317 L -10.2204,-109.027 L -10.495,-108.769 L -10.7998,-108.547 L -11.13,-108.366 L -11.4802,-108.227
 L -11.8452,-108.133 L -12.2189,-108.086 z
M 7.3073,-107.077 L 6.93352,-107.124 L 6.56862,-107.218 L 6.21832,-107.356 L 5.88818,-107.538 L 5.58339,-107.759
 L 5.30876,-108.017 L 5.06862,-108.307 L 4.86674,-108.626 L 4.70634,-108.966 L 4.58992,-109.325 L 4.51932,-109.695
 L 4.49567,-110.071 L 4.51932,-110.447 L 4.58992,-110.817 L 4.70634,-111.175 L 4.86674,-111.516 L 5.06862,-111.834
 L 5.30876,-112.124 L 5.58339,-112.382 L 5.88818,-112.604 L 6.21832,-112.785 L 6.56862,-112.924 L 6.93352,-113.018
 L 7.3073,-113.065 L 7.68404,-113.065 L 8.05782,-113.018 L 8.42271,-112.924 L 8.77301,-112.785 L 9.10315,-112.604
 L 9.40794,-112.382 L 9.68257,-112.124 L 9.92271,-111.834 L 10.1246,-111.516 L 10.285,-111.175 L 10.4014,-110.817
 L 10.472,-110.447 L 10.4957,-110.071 L 10.472,-109.695 L 10.4014,-109.325 L 10.285,-108.966 L 10.1246,-108.626
 L 9.92271,-108.307 L 9.68257,-108.017 L 9.40794,-107.759 L 9.10315,-107.538 L 8.77301,-107.356 L 8.42271,-107.218
 L 8.05782,-107.124 L 7.68404,-107.077 z
M -2.6955,-106.569 L -3.06927,-106.617 L -3.43417,-106.71 L -3.78447,-106.849 L -4.11461,-107.031 L -4.4194,-107.252
 L -4.69403,-107.51 L -4.93417,-107.8 L -5.13605,-108.118 L -5.29646,-108.459 L -5.41287,-108.817 L -5.48347,-109.188
 L -5.50713,-109.564 L -5.48347,-109.94 L -5.41287,-110.31 L -5.29646,-110.668 L -5.13605,-111.009 L -4.93417,-111.327
 L -4.69403,-111.617 L -4.4194,-111.875 L -4.11461,-112.097 L -3.78447,-112.278 L -3.43417,-112.417 L -3.06927,-112.51
 L -2.6955,-112.558 L -2.31876,-112.558 L -1.94498,-112.51 L -1.58008,-112.417 L -1.22978,-112.278 L -0.899643,-112.097
 L -0.594849,-111.875 L -0.320221,-111.617 L -0.0800781,-111.327 L 0.12178,-111.009 L 0.282181,-110.668 L 0.398605,-110.31
 L 0.469208,-109.94 L 0.492859,-109.564 L 0.469208,-109.188 L 0.398605,-108.817 L 0.282181,-108.459 L 0.12178,-108.118
 L -0.0800781,-107.8 L -0.320221,-107.51 L -0.594849,-107.252 L -0.899643,-107.031 L -1.22978,-106.849 L -1.58008,-106.71
 L -1.94498,-106.617 L -2.31876,-106.569 z
M -0.18837,-96.0059 L -0.562134,-96.0531 L -0.927048,-96.1468 L -1.27733,-96.2855 L -1.60747,-96.467 L -1.91226,-96.6885
 L -2.1869,-96.9464 L -2.42705,-97.2366 L -2.62891,-97.5547 L -2.78932,-97.8956 L -2.90575,-98.2539 L -2.97633,-98.624
 L -3,-99 L -2.97633,-99.376 L -2.90575,-99.7461 L -2.78932,-100.104 L -2.62891,-100.445 L -2.42705,-100.763
 L -2.1869,-101.054 L -1.91226,-101.312 L -1.60747,-101.533 L -1.27733,-101.714 L -0.927048,-101.853 L -0.562134,-101.947
 L -0.18837,-101.994 L 0.18837,-101.994 L 0.562134,-101.947 L 0.927048,-101.853 L 1.27733,-101.714 L 1.60747,-101.533
 L 1.91226,-101.312 L 2.1869,-101.054 L 2.42705,-100.763 L 2.62891,-100.445 L 2.78932,-100.104 L 2.90575,-99.7461
 L 2.97633,-99.376 L 3,-99 L 2.97633,-98.624 L 2.90575,-98.2539 L 2.78932,-97.8956 L 2.62891,-97.5547
 L 2.42705,-97.2366 L 2.1869,-96.9464 L 1.91226,-96.6885 L 1.60747,-96.467 L 1.27733,-96.2855 L 0.927048,-96.1468
 L 0.562134,-96.0531 L 0.18837,-96.0059 z
M 12.5545,65.8132 L 20.7041,63.7208 L 28.5272,60.6234 L 35.9004,56.57 L 42.7074,51.6244 L 48.8409,45.8647
 L 54.2041,39.3816 L 58.7125,32.2775 L 62.295,24.6643 L 64.8951,16.6622 L 66.4717,8.39732 L 67,-0
 L 66.4717,-8.39732 L 64.8951,-16.6622 L 62.295,-24.6643 L 58.7125,-32.2775 L 54.2041,-39.3816 L 48.8409,-45.8647
 L 42.7074,-51.6244 L 35.9004,-56.57 L 28.5272,-60.6234 L 20.7041,-63.7208 L 12.5545,-65.8132 L 4.20695,-66.8678
 L -4.20695,-66.8678 L -12.5545,-65.8132 L -20.7041,-63.7208 L -28.5272,-60.6234 L -35.9004,-56.57 L -42.7074,-51.6244
 L -48.8409,-45.8647 L -54.2041,-39.3816 L -58.7125,-32.2775 L -62.295,-24.6643 L -64.8951,-16.6622 L -66.4717,-8.39732
 L -67,-0 L -66.4717,8.39732 L -64.8951,16.6622 L -62.295,24.6643 L -58.7125,32.2775 L -54.2041,39.3816
 L -48.8409,45.8647 L -42.7074,51.6244 L -35.9004,56.57 L -28.5272,60.6234 L -20.7041,63.7208 L -12.5545,65.8132
 L -4.20695,66.8678 L 4.20695,66.8678 z
M -0.18837,-57.0059 L -0.562134,-57.0531 L -0.927048,-57.1468 L -1.27733,-57.2855 L -1.60747,-57.467 L -1.91226,-57.6885
 L -2.1869,-57.9464 L -2.42705,-58.2366 L -2.62891,-58.5547 L -2.78932,-58.8956 L -2.90575,-59.2539 L -2.97633,-59.624
 L -3,-60 L -2.97633,-60.376 L -2.90575,-60.7461 L -2.78932,-61.1044 L -2.62891,-61.4453 L -2.42705,-61.7634
 L -2.1869,-62.0536 L -1.91226,-62.3115 L -1.60747,-62.533 L -1.27733,-62.7145 L -0.927048,-62.8532 L -0.562134,-62.9469
 L -0.18837,-62.9941 L 0.18837,-62.9941 L 0.562134,-62.9469 L 0.927048,-62.8532 L 1.27733,-62.7145 L 1.60747,-62.533
 L 1.91226,-62.3115 L 2.1869,-62.0536 L 2.42705,-61.7634 L 2.62891,-61.4453 L 2.78932,-61.1044 L 2.90575,-60.7461
 L 2.97633,-60.376 L 3,-60 L 2.97633,-59.624 L 2.90575,-59.2539 L 2.78932,-58.8956 L 2.62891,-58.5547
 L 2.42705,-58.2366 L 2.1869,-57.9464 L 1.91226,-57.6885 L 1.60747,-57.467 L 1.27733,-57.2855 L 0.927048,-57.1468
 L 0.562134,-57.0531 L 0.18837,-57.0059 z
M -2.6955,-46.4424 L -3.06927,-46.4896 L -3.43417,-46.5833 L -3.78447,-46.722 L -4.11461,-46.9035 L -4.4194,-47.1249
 L -4.69403,-47.3828 L -4.93417,-47.6731 L -5.13605,-47.9912 L -5.29646,-48.3321 L -5.41287,-48.6904 L -5.48347,-49.0605
 L -5.50713,-49.4365 L -5.48347,-49.8125 L -5.41287,-50.1825 L -5.29646,-50.5408 L -5.13605,-50.8817 L -4.93417,-51.1998
 L -4.69403,-51.4901 L -4.4194,-51.748 L -4.11461,-51.9695 L -3.78447,-52.1509 L -3.43417,-52.2896 L -3.06927,-52.3833
 L -2.6955,-52.4305 L -2.31876,-52.4305 L -1.94498,-52.3833 L -1.58008,-52.2896 L -1.22978,-52.1509 L -0.899643,-51.9695
 L -0.594849,-51.748 L -0.320221,-51.4901 L -0.0800781,-51.1998 L 0.12178,-50.8817 L 0.282181,-50.5408 L 0.398605,-50.1825
 L 0.469208,-49.8125 L 0.492859,-49.4365 L 0.469208,-49.0605 L 0.398605,-48.6904 L 0.282181,-48.3321 L 0.12178,-47.9912
 L -0.0800781,-47.6731 L -0.320221,-47.3828 L -0.594849,-47.1249 L -0.899643,-46.9035 L -1.22978,-46.722 L -1.58008,-46.5833
 L -1.94498,-46.4896 L -2.31876,-46.4424 z
M 7.3073,-45.9351 L 6.93352,-45.9823 L 6.56862,-46.076 L 6.21832,-46.2147 L 5.88818,-46.3962 L 5.58339,-46.6176
 L 5.30876,-46.8755 L 5.06862,-47.1658 L 4.86674,-47.4839 L 4.70634,-47.8248 L 4.58992,-48.1831 L 4.51932,-48.5532
 L 4.49567,-48.9292 L 4.51932,-49.3052 L 4.58992,-49.6752 L 4.70634,-50.0336 L 4.86674,-50.3744 L 5.06862,-50.6925
 L 5.30876,-50.9828 L 5.58339,-51.2407 L 5.88818,-51.4622 L 6.21832,-51.6437 L 6.56862,-51.7823 L 6.93352,-51.876
 L 7.3073,-51.9233 L 7.68404,-51.9233 L 8.05782,-51.876 L 8.42271,-51.7823 L 8.77301,-51.6437 L 9.10315,-51.4622
 L 9.40794,-51.2407 L 9.68257,-50.9828 L 9.92271,-50.6925 L 10.1246,-50.3744 L 10.285,-50.0336 L 10.4014,-49.6752
 L 10.472,-49.3052 L 10.4957,-48.9292 L 10.472,-48.5532 L 10.4014,-48.1831 L 10.285,-47.8248 L 10.1246,-47.4839
 L 9.92271,-47.1658 L 9.68257,-46.8755 L 9.40794,-46.6176 L 9.10315,-46.3962 L 8.77301,-46.2147 L 8.42271,-46.076
 L 8.05782,-45.9823 L 7.68404,-45.9351 z
M -12.5957,-44.9257 L -12.9694,-44.9729 L -13.3344,-45.0666 L -13.6846,-45.2053 L -14.0148,-45.3868 L -14.3196,-45.6083
 L -14.5942,-45.8662 L -14.8344,-46.1564 L -15.0362,-46.4745 L -15.1966,-46.8154 L -15.313,-47.1737 L -15.3836,-47.5438
 L -15.4073,-47.9198 L -15.3836,-48.2958 L -15.313,-48.6659 L -15.1966,-49.0242 L -15.0362,-49.3651 L -14.8344,-49.6832
 L -14.5942,-49.9734 L -14.3196,-50.2314 L -14.0148,-50.4528 L -13.6846,-50.6343 L -13.3344,-50.773 L -12.9694,-50.8667
 L -12.5957,-50.9139 L -12.2189,-50.9139 L -11.8452,-50.8667 L -11.4802,-50.773 L -11.13,-50.6343 L -10.7998,-50.4528
 L -10.495,-50.2314 L -10.2204,-49.9734 L -9.98024,-49.6832 L -9.77837,-49.3651 L -9.61797,-49.0242 L -9.50154,-48.6659
 L -9.43095,-48.2958 L -9.40729,-47.9198 L -9.43095,-47.5438 L -9.50154,-47.1737 L -9.61797,-46.8154 L -9.77837,-46.4745
 L -9.98024,-46.1564 L -10.2204,-45.8662 L -10.495,-45.6083 L -10.7998,-45.3868 L -11.13,-45.2053 L -11.4802,-45.0666
 L -11.8452,-44.9729 L -12.2189,-44.9257 z
M 17.0032,-43.4247 L 16.6295,-43.4719 L 16.2646,-43.5656 L 15.9143,-43.7042 L 15.5841,-43.8857 L 15.2793,-44.1072
 L 15.0047,-44.3651 L 14.7646,-44.6554 L 14.5627,-44.9735 L 14.4023,-45.3143 L 14.2859,-45.6727 L 14.2153,-46.0427
 L 14.1916,-46.4187 L 14.2153,-46.7947 L 14.2859,-47.1648 L 14.4023,-47.5231 L 14.5627,-47.864 L 14.7646,-48.1821
 L 15.0047,-48.4724 L 15.2793,-48.7303 L 15.5841,-48.9517 L 15.9143,-49.1332 L 16.2646,-49.2719 L 16.6295,-49.3656
 L 17.0032,-49.4128 L 17.38,-49.4128 L 17.7538,-49.3656 L 18.1187,-49.2719 L 18.4689,-49.1332 L 18.7991,-48.9517
 L 19.1039,-48.7303 L 19.3785,-48.4724 L 19.6187,-48.1821 L 19.8205,-47.864 L 19.9809,-47.5231 L 20.0974,-47.1648
 L 20.168,-46.7947 L 20.1916,-46.4187 L 20.168,-46.0427 L 20.0974,-45.6727 L 19.9809,-45.3143 L 19.8205,-44.9735
 L 19.6187,-44.6554 L 19.3785,-44.3651 L 19.1039,-44.1072 L 18.7991,-43.8857 L 18.4689,-43.7042 L 18.1187,-43.5656
 L 17.7538,-43.4719 L 17.38,-43.4247 z
M -21.9879,-41.4472 L -22.3616,-41.4945 L -22.7265,-41.5882 L -23.0768,-41.7268 L -23.407,-41.9083 L -23.7118,-42.1298
 L -23.9864,-42.3877 L -24.2265,-42.678 L -24.4284,-42.9961 L -24.5888,-43.3369 L -24.7052,-43.6953 L -24.7758,-44.0653
 L -24.7995,-44.4413 L -24.7758,-44.8173 L -24.7052,-45.1874 L -24.5888,-45.5457 L -24.4284,-45.8866 L -24.2265,-46.2047
 L -23.9864,-46.495 L -23.7118,-46.7529 L -23.407,-46.9743 L -23.0768,-47.1558 L -22.7265,-47.2945 L -22.3616,-47.3882
 L -21.9879,-47.4354 L -21.6111,-47.4354 L -21.2374,-47.3882 L -20.8725,-47.2945 L -20.5222,-47.1558 L -20.192,-46.9743
 L -19.8872,-46.7529 L -19.6126,-46.495 L -19.3725,-46.2047 L -19.1706,-45.8866 L -19.0102,-45.5457 L -18.8938,-45.1874
 L -18.8232,-44.8173 L -18.7995,-44.4413 L -18.8232,-44.0653 L -18.8938,-43.6953 L -19.0102,-43.3369 L -19.1706,-42.9961
 L -19.3725,-42.678 L -19.6126,-42.3877 L -19.8872,-42.1298 L -20.192,-41.9083 L -20.5222,-41.7268 L -20.8725,-41.5882
 L -21.2374,-41.4945 L -21.6111,-41.4472 z
M 25.9953,-39.0138 L 25.6216,-39.061 L 25.2567,-39.1547 L 24.9064,-39.2934 L 24.5762,-39.4749 L 24.2714,-39.6964
 L 23.9968,-39.9542 L 23.7567,-40.2445 L 23.5548,-40.5626 L 23.3944,-40.9035 L 23.278,-41.2618 L 23.2074,-41.6319
 L 23.1837,-42.0079 L 23.2074,-42.3839 L 23.278,-42.754 L 23.3944,-43.1123 L 23.5548,-43.4531 L 23.7567,-43.7712
 L 23.9968,-44.0615 L 24.2714,-44.3194 L 24.5762,-44.5409 L 24.9064,-44.7224 L 25.2567,-44.8611 L 25.6216,-44.9547
 L 25.9953,-45.002 L 26.3721,-45.002 L 26.7458,-44.9547 L 27.1108,-44.8611 L 27.461,-44.7224 L 27.7912,-44.5409
 L 28.096,-44.3194 L 28.3706,-44.0615 L 28.6108,-43.7712 L 28.8126,-43.4531 L 28.973,-43.1123 L 29.0895,-42.754
 L 29.16,-42.3839 L 29.1837,-42.0079 L 29.16,-41.6319 L 29.0895,-41.2618 L 28.973,-40.9035 L 28.8126,-40.5626
 L 28.6108,-40.2445 L 28.3706,-39.9542 L 28.096,-39.6964 L 27.7912,-39.4749 L 27.461,-39.2934 L 27.1108,-39.1547
 L 26.7458,-39.061 L 26.3721,-39.0138 z
M -30.4876,-36.1493 L -30.8614,-36.1965 L -31.2263,-36.2902 L -31.5766,-36.4289 L -31.9067,-36.6104 L -32.2115,-36.8318
 L -32.4861,-37.0898 L -32.7263,-37.38 L -32.9282,-37.6981 L -33.0886,-38.039 L -33.205,-38.3973 L -33.2756,-38.7674
 L -33.2992,-39.1434 L -33.2756,-39.5194 L -33.205,-39.8895 L -33.0886,-40.2478 L -32.9282,-40.5887 L -32.7263,-40.9068
 L -32.4861,-41.197 L -32.2115,-41.4549 L -31.9067,-41.6764 L -31.5766,-41.8579 L -31.2263,-41.9966 L -30.8614,-42.0903
 L -30.4876,-42.1375 L -30.1109,-42.1375 L -29.7371,-42.0903 L -29.3722,-41.9966 L -29.0219,-41.8579 L -28.6918,-41.6764
 L -28.387,-41.4549 L -28.1123,-41.197 L -27.8722,-40.9068 L -27.6703,-40.5887 L -27.5099,-40.2478 L -27.3935,-39.8895
 L -27.3229,-39.5194 L -27.2992,-39.1434 L -27.3229,-38.7674 L -27.3935,-38.3973 L -27.5099,-38.039 L -27.6703,-37.6981
 L -27.8722,-37.38 L -28.1123,-37.0898 L -28.387,-36.8318 L -28.6918,-36.6104 L -29.0219,-36.4289 L -29.3722,-36.2902
 L -29.7371,-36.1965 L -30.1109,-36.1493 z
M 33.9155,-32.8832 L 33.5417,-32.9304 L 33.1768,-33.0241 L 32.8265,-33.1628 L 32.4964,-33.3443 L 32.1916,-33.5657
 L 31.9169,-33.8236 L 31.6768,-34.1139 L 31.4749,-34.432 L 31.3145,-34.7729 L 31.1981,-35.1312 L 31.1275,-35.5012
 L 31.1039,-35.8772 L 31.1275,-36.2532 L 31.1981,-36.6233 L 31.3145,-36.9816 L 31.4749,-37.3225 L 31.6768,-37.6406
 L 31.9169,-37.9309 L 32.1916,-38.1888 L 32.4964,-38.4102 L 32.8265,-38.5917 L 33.1768,-38.7304 L 33.5417,-38.8241
 L 33.9155,-38.8713 L 34.2922,-38.8713 L 34.666,-38.8241 L 35.0309,-38.7304 L 35.3812,-38.5917 L 35.7113,-38.4102
 L 36.0161,-38.1888 L 36.2908,-37.9309 L 36.5309,-37.6406 L 36.7328,-37.3225 L 36.8932,-36.9816 L 37.0096,-36.6233
 L 37.0802,-36.2532 L 37.1039,-35.8772 L 37.0802,-35.5012 L 37.0096,-35.1312 L 36.8932,-34.7729 L 36.7328,-34.432
 L 36.5309,-34.1139 L 36.2908,-33.8236 L 36.0161,-33.5657 L 35.7113,-33.3443 L 35.3812,-33.1628 L 35.0309,-33.0241
 L 34.666,-32.9304 L 34.2922,-32.8832 z
M -37.7469,-29.2489 L -38.1207,-29.2961 L -38.4856,-29.3898 L -38.8359,-29.5285 L -39.166,-29.7099 L -39.4708,-29.9314
 L -39.7454,-30.1893 L -39.9856,-30.4796 L -40.1874,-30.7977 L -40.3479,-31.1386 L -40.4643,-31.4969 L -40.5349,-31.8669
 L -40.5585,-32.2429 L -40.5349,-32.6189 L -40.4643,-32.989 L -40.3479,-33.3473 L -40.1874,-33.6882 L -39.9856,-34.0063
 L -39.7454,-34.2966 L -39.4708,-34.5545 L -39.166,-34.7759 L -38.8359,-34.9574 L -38.4856,-35.0961 L -38.1207,-35.1898
 L -37.7469,-35.237 L -37.3701,-35.237 L -36.9964,-35.1898 L -36.6315,-35.0961 L -36.2812,-34.9574 L -35.951,-34.7759
 L -35.6463,-34.5545 L -35.3716,-34.2966 L -35.1315,-34.0063 L -34.9296,-33.6882 L -34.7692,-33.3473 L -34.6528,-32.989
 L -34.5822,-32.6189 L -34.5585,-32.2429 L -34.5822,-31.8669 L -34.6528,-31.4969 L -34.7692,-31.1386 L -34.9296,-30.7977
 L -35.1315,-30.4796 L -35.3716,-30.1893 L -35.6463,-29.9314 L -35.951,-29.7099 L -36.2812,-29.5285 L -36.6315,-29.3898
 L -36.9964,-29.2961 L -37.3701,-29.2489 z
M 40.4394,-25.2837 L 40.0656,-25.3309 L 39.7007,-25.4246 L 39.3504,-25.5633 L 39.0203,-25.7448 L 38.7155,-25.9662
 L 38.4409,-26.2241 L 38.2007,-26.5144 L 37.9989,-26.8325 L 37.8385,-27.1734 L 37.722,-27.5317 L 37.6514,-27.9018
 L 37.6278,-28.2778 L 37.6514,-28.6538 L 37.722,-29.0238 L 37.8385,-29.3821 L 37.9989,-29.723 L 38.2007,-30.0411
 L 38.4409,-30.3314 L 38.7155,-30.5893 L 39.0203,-30.8108 L 39.3504,-30.9922 L 39.7007,-31.1309 L 40.0656,-31.2246
 L 40.4394,-31.2719 L 40.8162,-31.2719 L 41.1899,-31.2246 L 41.5548,-31.1309 L 41.9051,-30.9922 L 42.2353,-30.8108
 L 42.5401,-30.5893 L 42.8147,-30.3314 L 43.0548,-30.0411 L 43.2567,-29.723 L 43.4171,-29.3821 L 43.5335,-29.0238
 L 43.6041,-28.6538 L 43.6278,-28.2778 L 43.6041,-27.9018 L 43.5335,-27.5317 L 43.4171,-27.1734 L 43.2567,-26.8325
 L 43.0548,-26.5144 L 42.8147,-26.2241 L 42.5401,-25.9662 L 42.2353,-25.7448 L 41.9051,-25.5633 L 41.5548,-25.4246
 L 41.1899,-25.3309 L 40.8162,-25.2837 z
M -43.4685,-21.0284 L -43.8423,-21.0756 L -44.2072,-21.1693 L -44.5575,-21.308 L -44.8876,-21.4895 L -45.1924,-21.7109
 L -45.4671,-21.9688 L -45.7072,-22.2591 L -45.9091,-22.5772 L -46.0695,-22.9181 L -46.1859,-23.2764 L -46.2565,-23.6464
 L -46.2802,-24.0224 L -46.2565,-24.3984 L -46.1859,-24.7685 L -46.0695,-25.1268 L -45.9091,-25.4677 L -45.7072,-25.7858
 L -45.4671,-26.0761 L -45.1924,-26.334 L -44.8876,-26.5554 L -44.5575,-26.7369 L -44.2072,-26.8756 L -43.8423,-26.9693
 L -43.4685,-27.0165 L -43.0918,-27.0165 L -42.718,-26.9693 L -42.3531,-26.8756 L -42.0028,-26.7369 L -41.6727,-26.5554
 L -41.3679,-26.334 L -41.0932,-26.0761 L -40.8531,-25.7858 L -40.6512,-25.4677 L -40.4908,-25.1268 L -40.3744,-24.7685
 L -40.3038,-24.3984 L -40.2802,-24.0224 L -40.3038,-23.6464 L -40.3744,-23.2764 L -40.4908,-22.9181 L -40.6512,-22.5772
 L -40.8531,-22.2591 L -41.0932,-21.9688 L -41.3679,-21.7109 L -41.6727,-21.4895 L -42.0028,-21.308 L -42.3531,-21.1693
 L -42.718,-21.0756 L -43.0918,-21.0284 z
M 45.3,-16.5265 L 44.9263,-16.5737 L 44.5614,-16.6674 L 44.2111,-16.8061 L 43.8809,-16.9876 L 43.5761,-17.2091
 L 43.3015,-17.467 L 43.0614,-17.7572 L 42.8595,-18.0753 L 42.6991,-18.4162 L 42.5827,-18.7745 L 42.5121,-19.1446
 L 42.4884,-19.5206 L 42.5121,-19.8966 L 42.5827,-20.2667 L 42.6991,-20.625 L 42.8595,-20.9659 L 43.0614,-21.284
 L 43.3015,-21.5742 L 43.5761,-21.8322 L 43.8809,-22.0536 L 44.2111,-22.2351 L 44.5614,-22.3738 L 44.9263,-22.4675
 L 45.3,-22.5147 L 45.6768,-22.5147 L 46.0506,-22.4675 L 46.4155,-22.3738 L 46.7657,-22.2351 L 47.0959,-22.0536
 L 47.4007,-21.8322 L 47.6753,-21.5742 L 47.9155,-21.284 L 48.1173,-20.9659 L 48.2777,-20.625 L 48.3941,-20.2667
 L 48.4648,-19.8966 L 48.4884,-19.5206 L 48.4648,-19.1446 L 48.3941,-18.7745 L 48.2777,-18.4162 L 48.1173,-18.0753
 L 47.9155,-17.7572 L 47.6753,-17.467 L 47.4007,-17.2091 L 47.0959,-16.9876 L 46.7657,-16.8061 L 46.4155,-16.6674
 L 46.0506,-16.5737 L 45.6768,-16.5265 z
M -47.4183,-11.8244 L -47.792,-11.8716 L -48.1569,-11.9653 L -48.5072,-12.104 L -48.8374,-12.2855 L -49.1422,-12.5069
 L -49.4168,-12.7648 L -49.6569,-13.0551 L -49.8588,-13.3732 L -50.0192,-13.7141 L -50.1356,-14.0724 L -50.2062,-14.4425
 L -50.2299,-14.8185 L -50.2062,-15.1945 L -50.1356,-15.5645 L -50.0192,-15.9228 L -49.8588,-16.2637 L -49.6569,-16.5818
 L -49.4168,-16.8721 L -49.1422,-17.13 L -48.8374,-17.3515 L -48.5072,-17.5329 L -48.1569,-17.6716 L -47.792,-17.7653
 L -47.4183,-17.8125 L -47.0415,-17.8125 L -46.6677,-17.7653 L -46.3028,-17.6716 L -45.9525,-17.5329 L -45.6224,-17.3515
 L -45.3176,-17.13 L -45.043,-16.8721 L -44.8028,-16.5818 L -44.601,-16.2637 L -44.4406,-15.9228 L -44.3241,-15.5645
 L -44.2535,-15.1945 L -44.2299,-14.8185 L -44.2535,-14.4425 L -44.3241,-14.0724 L -44.4406,-13.7141 L -44.601,-13.3732
 L -44.8028,-13.0551 L -45.043,-12.7648 L -45.3176,-12.5069 L -45.6224,-12.2855 L -45.9525,-12.104 L -46.3028,-11.9653
 L -46.6677,-11.8716 L -47.0415,-11.8244 z
M 48.2984,-6.97018 L 47.9246,-7.01741 L 47.5597,-7.1111 L 47.2094,-7.24979 L 46.8792,-7.43129 L 46.5744,-7.65273
 L 46.2998,-7.91063 L 46.0597,-8.20091 L 45.8578,-8.51901 L 45.6974,-8.85989 L 45.581,-9.2182 L 45.5104,-9.58827
 L 45.4867,-9.96426 L 45.5104,-10.3403 L 45.581,-10.7103 L 45.6974,-11.0686 L 45.8578,-11.4095 L 46.0597,-11.7276
 L 46.2998,-12.0179 L 46.5744,-12.2758 L 46.8792,-12.4973 L 47.2094,-12.6788 L 47.5597,-12.8174 L 47.9246,-12.9111
 L 48.2984,-12.9583 L 48.6751,-12.9583 L 49.0489,-12.9111 L 49.4138,-12.8174 L 49.7641,-12.6788 L 50.0942,-12.4973
 L 50.399,-12.2758 L 50.6736,-12.0179 L 50.9138,-11.7276 L 51.1156,-11.4095 L 51.2761,-11.0686 L 51.3925,-10.7103
 L 51.4631,-10.3403 L 51.4867,-9.96426 L 51.4631,-9.58827 L 51.3925,-9.2182 L 51.2761,-8.85989 L 51.1156,-8.51901
 L 50.9138,-8.20091 L 50.6736,-7.91063 L 50.399,-7.65273 L 50.0942,-7.43129 L 49.7641,-7.24979 L 49.4138,-7.1111
 L 49.0489,-7.01741 L 48.6751,-6.97018 z
M -49.4344,-2.01375 L -49.8082,-2.06096 L -50.1731,-2.15465 L -50.5234,-2.29335 L -50.8535,-2.47484 L -51.1583,-2.69629
 L -51.4329,-2.95418 L -51.6731,-3.24446 L -51.8749,-3.56256 L -52.0354,-3.90346 L -52.1518,-4.26175 L -52.2224,-4.63182
 L -52.246,-5.00783 L -52.2224,-5.38382 L -52.1518,-5.75389 L -52.0354,-6.1122 L -51.8749,-6.45308 L -51.6731,-6.77118
 L -51.4329,-7.06146 L -51.1583,-7.31937 L -50.8535,-7.5408 L -50.5234,-7.72231 L -50.1731,-7.86099 L -49.8082,-7.95468
 L -49.4344,-8.00191 L -49.0576,-8.00191 L -48.6839,-7.95468 L -48.319,-7.86099 L -47.9687,-7.72231 L -47.6385,-7.5408
 L -47.3338,-7.31937 L -47.0591,-7.06146 L -46.819,-6.77118 L -46.6171,-6.45308 L -46.4567,-6.1122 L -46.3403,-5.75389
 L -46.2697,-5.38382 L -46.246,-5.00783 L -46.2697,-4.63182 L -46.3403,-4.26175 L -46.4567,-3.90346 L -46.6171,-3.56256
 L -46.819,-3.24446 L -47.0591,-2.95418 L -47.3338,-2.69629 L -47.6385,-2.47484 L -47.9687,-2.29335 L -48.319,-2.15465
 L -48.6839,-2.06096 L -49.0576,-2.01375 z
M 59.8116,2.99408 L 59.4379,2.94685 L 59.0729,2.85316 L 58.7227,2.71448 L 58.3925,2.53297 L 58.0877,2.31154
 L 57.8131,2.05363 L 57.5729,1.76335 L 57.3711,1.44525 L 57.2107,1.10437 L 57.0942,0.746063 L 57.0237,0.375992
 L 57,-0 L 57.0237,-0.375992 L 57.0942,-0.746063 L 57.2107,-1.10437 L 57.3711,-1.44525 L 57.5729,-1.76335
 L 57.8131,-2.05363 L 58.0877,-2.31154 L 58.3925,-2.53297 L 58.7227,-2.71448 L 59.0729,-2.85316 L 59.4379,-2.94685
 L 59.8116,-2.99408 L 60.1884,-2.99408 L 60.5621,-2.94685 L 60.927,-2.85316 L 61.2773,-2.71448 L 61.6075,-2.53297
 L 61.9123,-2.31154 L 62.1869,-2.05363 L 62.427,-1.76335 L 62.6289,-1.44525 L 62.7893,-1.10437 L 62.9057,-0.746063
 L 62.9763,-0.375992 L 63,-0 L 62.9763,0.375992 L 62.9057,0.746063 L 62.7893,1.10437 L 62.6289,1.44525
 L 62.427,1.76335 L 62.1869,2.05363 L 61.9123,2.31154 L 61.6075,2.53297 L 61.2773,2.71448 L 60.927,2.85316
 L 60.5621,2.94685 L 60.1884,2.99408 z
M 49.3116,2.99408 L 48.9379,2.94685 L 48.5729,2.85316 L 48.2227,2.71448 L 47.8925,2.53297 L 47.5877,2.31154
 L 47.3131,2.05363 L 47.0729,1.76335 L 46.8711,1.44525 L 46.7107,1.10437 L 46.5942,0.746063 L 46.5237,0.375992
 L 46.5,-0 L 46.5237,-0.375992 L 46.5942,-0.746063 L 46.7107,-1.10437 L 46.8711,-1.44525 L 47.0729,-1.76335
 L 47.3131,-2.05363 L 47.5877,-2.31154 L 47.8925,-2.53297 L 48.2227,-2.71448 L 48.5729,-2.85316 L 48.9379,-2.94685
 L 49.3116,-2.99408 L 49.6884,-2.99408 L 50.0621,-2.94685 L 50.427,-2.85316 L 50.7773,-2.71448 L 51.1075,-2.53297
 L 51.4123,-2.31154 L 51.6869,-2.05363 L 51.927,-1.76335 L 52.1289,-1.44525 L 52.2893,-1.10437 L 52.4057,-0.746063
 L 52.4763,-0.375992 L 52.5,-0 L 52.4763,0.375992 L 52.4057,0.746063 L 52.2893,1.10437 L 52.1289,1.44525
 L 51.927,1.76335 L 51.6869,2.05363 L 51.4123,2.31154 L 51.1075,2.53297 L 50.7773,2.71448 L 50.427,2.85316
 L 50.0621,2.94685 L 49.6884,2.99408 z
M -60.1884,2.99408 L -60.5621,2.94685 L -60.927,2.85316 L -61.2773,2.71448 L -61.6075,2.53297 L -61.9123,2.31154
 L -62.1869,2.05363 L -62.427,1.76335 L -62.6289,1.44525 L -62.7893,1.10437 L -62.9057,0.746063 L -62.9763,0.375992
 L -63,-0 L -62.9763,-0.375992 L -62.9057,-0.746063 L -62.7893,-1.10437 L -62.6289,-1.44525 L -62.427,-1.76335
 L -62.1869,-2.05363 L -61.9123,-2.31154 L -61.6075,-2.53297 L -61.2773,-2.71448 L -60.927,-2.85316 L -60.5621,-2.94685
 L -60.1884,-2.99408 L -59.8116,-2.99408 L -59.4379,-2.94685 L -59.0729,-2.85316 L -58.7227,-2.71448 L -58.3925,-2.53297
 L -58.0877,-2.31154 L -57.8131,-2.05363 L -57.5729,-1.76335 L -57.3711,-1.44525 L -57.2107,-1.10437 L -57.0942,-0.746063
 L -57.0237,-0.375992 L -57,-0 L -57.0237,0.375992 L -57.0942,0.746063 L -57.2107,1.10437 L -57.3711,1.44525
 L -57.5729,1.76335 L -57.8131,2.05363 L -58.0877,2.31154 L -58.3925,2.53297 L -58.7227,2.71448 L -59.0729,2.85316
 L -59.4379,2.94685 L -59.8116,2.99408 z
M -49.4344,8.00191 L -49.8082,7.95468 L -50.1731,7.86099 L -50.5234,7.72231 L -50.8535,7.5408 L -51.1583,7.31937
 L -51.4329,7.06146 L -51.6731,6.77118 L -51.8749,6.45308 L -52.0354,6.1122 L -52.1518,5.75389 L -52.2224,5.38382
 L -52.246,5.00783 L -52.2224,4.63182 L -52.1518,4.26175 L -52.0354,3.90346 L -51.8749,3.56256 L -51.6731,3.24446
 L -51.4329,2.95418 L -51.1583,2.69629 L -50.8535,2.47484 L -50.5234,2.29335 L -50.1731,2.15465 L -49.8082,2.06096
 L -49.4344,2.01375 L -49.0576,2.01375 L -48.6839,2.06096 L -48.319,2.15465 L -47.9687,2.29335 L -47.6385,2.47484
 L -47.3338,2.69629 L -47.0591,2.95418 L -46.819,3.24446 L -46.6171,3.56256 L -46.4567,3.90346 L -46.3403,4.26175
 L -46.2697,4.63182 L -46.246,5.00783 L -46.2697,5.38382 L -46.3403,5.75389 L -46.4567,6.1122 L -46.6171,6.45308
 L -46.819,6.77118 L -47.0591,7.06146 L -47.3338,7.31937 L -47.6385,7.5408 L -47.9687,7.72231 L -48.319,7.86099
 L -48.6839,7.95468 L -49.0576,8.00191 z
M 48.2984,12.9583 L 47.9246,12.9111 L 47.5597,12.8174 L 47.2094,12.6788 L 46.8792,12.4973 L 46.5744,12.2758
 L 46.2998,12.0179 L 46.0597,11.7276 L 45.8578,11.4095 L 45.6974,11.0686 L 45.581,10.7103 L 45.5104,10.3403
 L 45.4867,9.96426 L 45.5104,9.58827 L 45.581,9.2182 L 45.6974,8.85989 L 45.8578,8.51901 L 46.0597,8.20091
 L 46.2998,7.91063 L 46.5744,7.65273 L 46.8792,7.43129 L 47.2094,7.24979 L 47.5597,7.1111 L 47.9246,7.01741
 L 48.2984,6.97018 L 48.6751,6.97018 L 49.0489,7.01741 L 49.4138,7.1111 L 49.7641,7.24979 L 50.0942,7.43129
 L 50.399,7.65273 L 50.6736,7.91063 L 50.9138,8.20091 L 51.1156,8.51901 L 51.2761,8.85989 L 51.3925,9.2182
 L 51.4631,9.58827 L 51.4867,9.96426 L 51.4631,10.3403 L 51.3925,10.7103 L 51.2761,11.0686 L 51.1156,11.4095
 L 50.9138,11.7276 L 50.6736,12.0179 L 50.399,12.2758 L 50.0942,12.4973 L 49.7641,12.6788 L 49.4138,12.8174
 L 49.0489,12.9111 L 48.6751,12.9583 z
M -47.4183,17.8125 L -47.792,17.7653 L -48.1569,17.6716 L -48.5072,17.5329 L -48.8374,17.3515 L -49.1422,17.13
 L -49.4168,16.8721 L -49.6569,16.5818 L -49.8588,16.2637 L -50.0192,15.9228 L -50.1356,15.5645 L -50.2062,15.1945
 L -50.2299,14.8185 L -50.2062,14.4425 L -50.1356,14.0724 L -50.0192,13.7141 L -49.8588,13.3732 L -49.6569,13.0551
 L -49.4168,12.7648 L -49.1422,12.5069 L -48.8374,12.2855 L -48.5072,12.104 L -48.1569,11.9653 L -47.792,11.8716
 L -47.4183,11.8244 L -47.0415,11.8244 L -46.6677,11.8716 L -46.3028,11.9653 L -45.9525,12.104 L -45.6224,12.2855
 L -45.3176,12.5069 L -45.043,12.7648 L -44.8028,13.0551 L -44.601,13.3732 L -44.4406,13.7141 L -44.3241,14.0724
 L -44.2535,14.4425 L -44.2299,14.8185 L -44.2535,15.1945 L -44.3241,15.5645 L -44.4406,15.9228 L -44.601,16.2637
 L -44.8028,16.5818 L -45.043,16.8721 L -45.3176,17.13 L -45.6224,17.3515 L -45.9525,17.5329 L -46.3028,17.6716
 L -46.6677,17.7653 L -47.0415,17.8125 z
M 45.3,22.5147 L 44.9263,22.4675 L 44.5614,22.3738 L 44.2111,22.2351 L 43.8809,22.0536 L 43.5761,21.8322
 L 43.3015,21.5742 L 43.0614,21.284 L 42.8595,20.9659 L 42.6991,20.625 L 42.5827,20.2667 L 42.5121,19.8966
 L 42.4884,19.5206 L 42.5121,19.1446 L 42.5827,18.7745 L 42.6991,18.4162 L 42.8595,18.0753 L 43.0614,17.7572
 L 43.3015,17.467 L 43.5761,17.2091 L 43.8809,16.9876 L 44.2111,16.8061 L 44.5614,16.6674 L 44.9263,16.5737
 L 45.3,16.5265 L 45.6768,16.5265 L 46.0506,16.5737 L 46.4155,16.6674 L 46.7657,16.8061 L 47.0959,16.9876
 L 47.4007,17.2091 L 47.6753,17.467 L 47.9155,17.7572 L 48.1173,18.0753 L 48.2777,18.4162 L 48.3941,18.7745
 L 48.4648,19.1446 L 48.4884,19.5206 L 48.4648,19.8966 L 48.3941,20.2667 L 48.2777,20.625 L 48.1173,20.9659
 L 47.9155,21.284 L 47.6753,21.5742 L 47.4007,21.8322 L 47.0959,22.0536 L 46.7657,22.2351 L 46.4155,22.3738
 L 46.0506,22.4675 L 45.6768,22.5147 z
M -43.4685,27.0165 L -43.8423,26.9693 L -44.2072,26.8756 L -44.5575,26.7369 L -44.8876,26.5554 L -45.1924,26.334
 L -45.4671,26.0761 L -45.7072,25.7858 L -45.9091,25.4677 L -46.0695,25.1268 L -46.1859,24.7685 L -46.2565,24.3984
 L -46.2802,24.0224 L -46.2565,23.6464 L -46.1859,23.2764 L -46.0695,22.9181 L -45.9091,22.5772 L -45.7072,22.2591
 L -45.4671,21.9688 L -45.1924,21.7109 L -44.8876,21.4895 L -44.5575,21.308 L -44.2072,21.1693 L -43.8423,21.0756
 L -43.4685,21.0284 L -43.0918,21.0284 L -42.718,21.0756 L -42.3531,21.1693 L -42.0028,21.308 L -41.6727,21.4895
 L -41.3679,21.7109 L -41.0932,21.9688 L -40.8531,22.2591 L -40.6512,22.5772 L -40.4908,22.9181 L -40.3744,23.2764
 L -40.3038,23.6464 L -40.2802,24.0224 L -40.3038,24.3984 L -40.3744,24.7685 L -40.4908,25.1268 L -40.6512,25.4677
 L -40.8531,25.7858 L -41.0932,26.0761 L -41.3679,26.334 L -41.6727,26.5554 L -42.0028,26.7369 L -42.3531,26.8756
 L -42.718,26.9693 L -43.0918,27.0165 z
M 40.4394,31.2719 L 40.0656,31.2246 L 39.7007,31.1309 L 39.3504,30.9922 L 39.0203,30.8108 L 38.7155,30.5893
 L 38.4409,30.3314 L 38.2007,30.0411 L 37.9989,29.723 L 37.8385,29.3821 L 37.722,29.0238 L 37.6514,28.6538
 L 37.6278,28.2778 L 37.6514,27.9018 L 37.722,27.5317 L 37.8385,27.1734 L 37.9989,26.8325 L 38.2007,26.5144
 L 38.4409,26.2241 L 38.7155,25.9662 L 39.0203,25.7448 L 39.3504,25.5633 L 39.7007,25.4246 L 40.0656,25.3309
 L 40.4394,25.2837 L 40.8162,25.2837 L 41.1899,25.3309 L 41.5548,25.4246 L 41.9051,25.5633 L 42.2353,25.7448
 L 42.5401,25.9662 L 42.8147,26.2241 L 43.0548,26.5144 L 43.2567,26.8325 L 43.4171,27.1734 L 43.5335,27.5317
 L 43.6041,27.9018 L 43.6278,28.2778 L 43.6041,28.6538 L 43.5335,29.0238 L 43.4171,29.3821 L 43.2567,29.723
 L 43.0548,30.0411 L 42.8147,30.3314 L 42.5401,30.5893 L 42.2353,30.8108 L 41.9051,30.9922 L 41.5548,31.1309
 L 41.1899,31.2246 L 40.8162,31.2719 z
M -37.7469,35.237 L -38.1207,35.1898 L -38.4856,35.0961 L -38.8359,34.9574 L -39.166,34.7759 L -39.4708,34.5545
 L -39.7454,34.2966 L -39.9856,34.0063 L -40.1874,33.6882 L -40.3479,33.3473 L -40.4643,32.989 L -40.5349,32.6189
 L -40.5585,32.2429 L -40.5349,31.8669 L -40.4643,31.4969 L -40.3479,31.1386 L -40.1874,30.7977 L -39.9856,30.4796
 L -39.7454,30.1893 L -39.4708,29.9314 L -39.166,29.7099 L -38.8359,29.5285 L -38.4856,29.3898 L -38.1207,29.2961
 L -37.7469,29.2489 L -37.3701,29.2489 L -36.9964,29.2961 L -36.6315,29.3898 L -36.2812,29.5285 L -35.951,29.7099
 L -35.6463,29.9314 L -35.3716,30.1893 L -35.1315,30.4796 L -34.9296,30.7977 L -34.7692,31.1386 L -34.6528,31.4969
 L -34.5822,31.8669 L -34.5585,32.2429 L -34.5822,32.6189 L -34.6528,32.989 L -34.7692,33.3473 L -34.9296,33.6882
 L -35.1315,34.0063 L -35.3716,34.2966 L -35.6463,34.5545 L -35.951,34.7759 L -36.2812,34.9574 L -36.6315,35.0961
 L -36.9964,35.1898 L -37.3701,35.237 z
M 33.9155,38.8713 L 33.5417,38.8241 L 33.1768,38.7304 L 32.8265,38.5917 L 32.4964,38.4102 L 32.1916,38.1888
 L 31.9169,37.9309 L 31.6768,37.6406 L 31.4749,37.3225 L 31.3145,36.9816 L 31.1981,36.6233 L 31.1275,36.2532
 L 31.1039,35.8772 L 31.1275,35.5012 L 31.1981,35.1312 L 31.3145,34.7729 L 31.4749,34.432 L 31.6768,34.1139
 L 31.9169,33.8236 L 32.1916,33.5657 L 32.4964,33.3443 L 32.8265,33.1628 L 33.1768,33.0241 L 33.5417,32.9304
 L 33.9155,32.8832 L 34.2922,32.8832 L 34.666,32.9304 L 35.0309,33.0241 L 35.3812,33.1628 L 35.7113,33.3443
 L 36.0161,33.5657 L 36.2908,33.8236 L 36.5309,34.1139 L 36.7328,34.432 L 36.8932,34.7729 L 37.0096,35.1312
 L 37.0802,35.5012 L 37.1039,35.8772 L 37.0802,36.2532 L 37.0096,36.6233 L 36.8932,36.9816 L 36.7328,37.3225
 L 36.5309,37.6406 L 36.2908,37.9309 L 36.0161,38.1888 L 35.7113,38.4102 L 35.3812,38.5917 L 35.0309,38.7304
 L 34.666,38.8241 L 34.2922,38.8713 z
M -30.4876,42.1375 L -30.8614,42.0903 L -31.2263,41.9966 L -31.5766,41.8579 L -31.9067,41.6764 L -32.2115,41.4549
 L -32.4861,41.197 L -32.7263,40.9068 L -32.9282,40.5887 L -33.0886,40.2478 L -33.205,39.8895 L -33.2756,39.5194
 L -33.2992,39.1434 L -33.2756,38.7674 L -33.205,38.3973 L -33.0886,38.039 L -32.9282,37.6981 L -32.7263,37.38
 L -32.4861,37.0898 L -32.2115,36.8318 L -31.9067,36.6104 L -31.5766,36.4289 L -31.2263,36.2902 L -30.8614,36.1965
 L -30.4876,36.1493 L -30.1109,36.1493 L -29.7371,36.1965 L -29.3722,36.2902 L -29.0219,36.4289 L -28.6918,36.6104
 L -28.387,36.8318 L -28.1123,37.0898 L -27.8722,37.38 L -27.6703,37.6981 L -27.5099,38.039 L -27.3935,38.3973
 L -27.3229,38.7674 L -27.2992,39.1434 L -27.3229,39.5194 L -27.3935,39.8895 L -27.5099,40.2478 L -27.6703,40.5887
 L -27.8722,40.9068 L -28.1123,41.197 L -28.387,41.4549 L -28.6918,41.6764 L -29.0219,41.8579 L -29.3722,41.9966
 L -29.7371,42.0903 L -30.1109,42.1375 z
M 25.9953,45.002 L 25.6216,44.9547 L 25.2567,44.8611 L 24.9064,44.7224 L 24.5762,44.5409 L 24.2714,44.3194
 L 23.9968,44.0615 L 23.7567,43.7712 L 23.5548,43.4531 L 23.3944,43.1123 L 23.278,42.754 L 23.2074,42.3839
 L 23.1837,42.0079 L 23.2074,41.6319 L 23.278,41.2618 L 23.3944,40.9035 L 23.5548,40.5626 L 23.7567,40.2445
 L 23.9968,39.9542 L 24.2714,39.6964 L 24.5762,39.4749 L 24.9064,39.2934 L 25.2567,39.1547 L 25.6216,39.061
 L 25.9953,39.0138 L 26.3721,39.0138 L 26.7458,39.061 L 27.1108,39.1547 L 27.461,39.2934 L 27.7912,39.4749
 L 28.096,39.6964 L 28.3706,39.9542 L 28.6108,40.2445 L 28.8126,40.5626 L 28.973,40.9035 L 29.0895,41.2618
 L 29.16,41.6319 L 29.1837,42.0079 L 29.16,42.3839 L 29.0895,42.754 L 28.973,43.1123 L 28.8126,43.4531
 L 28.6108,43.7712 L 28.3706,44.0615 L 28.096,44.3194 L 27.7912,44.5409 L 27.461,44.7224 L 27.1108,44.8611
 L 26.7458,44.9547 L 26.3721,45.002 z
M -21.9879,47.4354 L -22.3616,47.3882 L -22.7265,47.2945 L -23.0768,47.1558 L -23.407,46.9743 L -23.7118,46.7529
 L -23.9864,46.495 L -24.2265,46.2047 L -24.4284,45.8866 L -24.5888,45.5457 L -24.7052,45.1874 L -24.7758,44.8173
 L -24.7995,44.4413 L -24.7758,44.0653 L -24.7052,43.6953 L -24.5888,43.3369 L -24.4284,42.9961 L -24.2265,42.678
 L -23.9864,42.3877 L -23.7118,42.1298 L -23.407,41.9083 L -23.0768,41.7268 L -22.7265,41.5882 L -22.3616,41.4945
 L -21.9879,41.4472 L -21.6111,41.4472 L -21.2374,41.4945 L -20.8725,41.5882 L -20.5222,41.7268 L -20.192,41.9083
 L -19.8872,42.1298 L -19.6126,42.3877 L -19.3725,42.678 L -19.1706,42.9961 L -19.0102,43.3369 L -18.8938,43.6953
 L -18.8232,44.0653 L -18.7995,44.4413 L -18.8232,44.8173 L -18.8938,45.1874 L -19.0102,45.5457 L -19.1706,45.8866
 L -19.3725,46.2047 L -19.6126,46.495 L -19.8872,46.7529 L -20.192,46.9743 L -20.5222,47.1558 L -20.8725,47.2945
 L -21.2374,47.3882 L -21.6111,47.4354 z
M 17.0032,49.4128 L 16.6295,49.3656 L 16.2646,49.2719 L 15.9143,49.1332 L 15.5841,48.9517 L 15.2793,48.7303
 L 15.0047,48.4724 L 14.7646,48.1821 L 14.5627,47.864 L 14.4023,47.5231 L 14.2859,47.1648 L 14.2153,46.7947
 L 14.1916,46.4187 L 14.2153,46.0427 L 14.2859,45.6727 L 14.4023,45.3143 L 14.5627,44.9735 L 14.7646,44.6554
 L 15.0047,44.3651 L 15.2793,44.1072 L 15.5841,43.8857 L 15.9143,43.7042 L 16.2646,43.5656 L 16.6295,43.4719
 L 17.0032,43.4247 L 17.38,43.4247 L 17.7538,43.4719 L 18.1187,43.5656 L 18.4689,43.7042 L 18.7991,43.8857
 L 19.1039,44.1072 L 19.3785,44.3651 L 19.6187,44.6554 L 19.8205,44.9735 L 19.9809,45.3143 L 20.0974,45.6727
 L 20.168,46.0427 L 20.1916,46.4187 L 20.168,46.7947 L 20.0974,47.1648 L 19.9809,47.5231 L 19.8205,47.864
 L 19.6187,48.1821 L 19.3785,48.4724 L 19.1039,48.7303 L 18.7991,48.9517 L 18.4689,49.1332 L 18.1187,49.2719
 L 17.7538,49.3656 L 17.38,49.4128 z
M -12.5957,50.9139 L -12.9694,50.8667 L -13.3344,50.773 L -13.6846,50.6343 L -14.0148,50.4528 L -14.3196,50.2314
 L -14.5942,49.9734 L -14.8344,49.6832 L -15.0362,49.3651 L -15.1966,49.0242 L -15.313,48.6659 L -15.3836,48.2958
 L -15.4073,47.9198 L -15.3836,47.5438 L -15.313,47.1737 L -15.1966,46.8154 L -15.0362,46.4745 L -14.8344,46.1564
 L -14.5942,45.8662 L -14.3196,45.6083 L -14.0148,45.3868 L -13.6846,45.2053 L -13.3344,45.0666 L -12.9694,44.9729
 L -12.5957,44.9257 L -12.2189,44.9257 L -11.8452,44.9729 L -11.4802,45.0666 L -11.13,45.2053 L -10.7998,45.3868
 L -10.495,45.6083 L -10.2204,45.8662 L -9.98024,46.1564 L -9.77837,46.4745 L -9.61797,46.8154 L -9.50154,47.1737
 L -9.43095,47.5438 L -9.40729,47.9198 L -9.43095,48.2958 L -9.50154,48.6659 L -9.61797,49.0242 L -9.77837,49.3651
 L -9.98024,49.6832 L -10.2204,49.9734 L -10.495,50.2314 L -10.7998,50.4528 L -11.13,50.6343 L -11.4802,50.773
 L -11.8452,50.8667 L -12.2189,50.9139 z
M 7.3073,51.9233 L 6.93352,51.876 L 6.56862,51.7823 L 6.21832,51.6437 L 5.88818,51.4622 L 5.58339,51.2407
 L 5.30876,50.9828 L 5.06862,50.6925 L 4.86674,50.3744 L 4.70634,50.0336 L 4.58992,49.6752 L 4.51932,49.3052
 L 4.49567,48.9292 L 4.51932,48.5532 L 4.58992,48.1831 L 4.70634,47.8248 L 4.86674,47.4839 L 5.06862,47.1658
 L 5.30876,46.8755 L 5.58339,46.6176 L 5.88818,46.3962 L 6.21832,46.2147 L 6.56862,46.076 L 6.93352,45.9823
 L 7.3073,45.9351 L 7.68404,45.9351 L 8.05782,45.9823 L 8.42271,46.076 L 8.77301,46.2147 L 9.10315,46.3962
 L 9.40794,46.6176 L 9.68257,46.8755 L 9.92271,47.1658 L 10.1246,47.4839 L 10.285,47.8248 L 10.4014,48.1831
 L 10.472,48.5532 L 10.4957,48.9292 L 10.472,49.3052 L 10.4014,49.6752 L 10.285,50.0336 L 10.1246,50.3744
 L 9.92271,50.6925 L 9.68257,50.9828 L 9.40794,51.2407 L 9.10315,51.4622 L 8.77301,51.6437 L 8.42271,51.7823
 L 8.05782,51.876 L 7.68404,51.9233 z
M -2.6955,52.4305 L -3.06927,52.3833 L -3.43417,52.2896 L -3.78447,52.1509 L -4.11461,51.9695 L -4.4194,51.748
 L -4.69403,51.4901 L -4.93417,51.1998 L -5.13605,50.8817 L -5.29646,50.5408 L -5.41287,50.1825 L -5.48347,49.8125
 L -5.50713,49.4365 L -5.48347,49.0605 L -5.41287,48.6904 L -5.29646,48.3321 L -5.13605,47.9912 L -4.93417,47.6731
 L -4.69403,47.3828 L -4.4194,47.1249 L -4.11461,46.9035 L -3.78447,46.722 L -3.43417,46.5833 L -3.06927,46.4896
 L -2.6955,46.4424 L -2.31876,46.4424 L -1.94498,46.4896 L -1.58008,46.5833 L -1.22978,46.722 L -0.899643,46.9035
 L -0.594849,47.1249 L -0.320221,47.3828 L -0.0800781,47.6731 L 0.12178,47.9912 L 0.282181,48.3321 L 0.398605,48.6904
 L 0.469208,49.0605 L 0.492859,49.4365 L 0.469208,49.8125 L 0.398605,50.1825 L 0.282181,50.5408 L 0.12178,50.8817
 L -0.0800781,51.1998 L -0.320221,51.4901 L -0.594849,51.748 L -0.899643,51.9695 L -1.22978,52.1509 L -1.58008,52.2896
 L -1.94498,52.3833 L -2.31876,52.4305 z
M -0.18837,62.9941 L -0.562134,62.9469 L -0.927048,62.8532 L -1.27733,62.7145 L -1.60747,62.533 L -1.91226,62.3115
 L -2.1869,62.0536 L -2.42705,61.7634 L -2.62891,61.4453 L -2.78932,61.1044 L -2.90575,60.7461 L -2.97633,60.376
 L -3,60 L -2.97633,59.624 L -2.90575,59.2539 L -2.78932,58.8956 L -2.62891,58.5547 L -2.42705,58.2366
 L -2.1869,57.9464 L -1.91226,57.6885 L -1.60747,57.467 L -1.27733,57.2855 L -0.927048,57.1468 L -0.562134,57.0531
 L -0.18837,57.0059 L 0.18837,57.0059 L 0.562134,57.0531 L 0.927048,57.1468 L 1.27733,57.2855 L 1.60747,57.467
 L 1.91226,57.6885 L 2.1869,57.9464 L 2.42705,58.2366 L 2.62891,58.5547 L 2.78932,58.8956 L 2.90575,59.2539
 L 2.97633,59.624 L 3,60 L 2.97633,60.376 L 2.90575,60.7461 L 2.78932,61.1044 L 2.62891,61.4453
 L 2.42705,61.7634 L 2.1869,62.0536 L 1.91226,62.3115 L 1.60747,62.533 L 1.27733,62.7145 L 0.927048,62.8532
 L 0.562134,62.9469 L 0.18837,62.9941 z
" stroke="black" fill="lightgray" stroke-width="0.5"/>
</svg>
