<?xml version="1.0" standalone="no"?>
<!DOCTYPE svg PUBLIC "-//W3C//DTD SVG 1.1//EN" "http://www.w3.org/Graphics/SVG/1.1/DTD/svg11.dtd">
<svg width="234mm" height="134mm" viewBox="-67 -67 234 134" xmlns="http://www.w3.org/2000/svg" version="1.1">
<title>OpenSCAD Model</title>
<path d="
M 12.5545,65.8132 L 20.7041,63.7208 L 28.5272,60.6234 L 35.9004,56.57 L 42.7074,51.6244 L 48.8409,45.8647
 L 50,44.4635 L 51.1591,45.8647 L 57.2926,51.6244 L 64.0996,56.57 L 71.4728,60.6234 L 79.2959,63.7208
 L 87.4454,65.8132 L 95.793,66.8678 L 104.207,66.8678 L 112.555,65.8132 L 120.704,63.7208 L 128.527,60.6234
 L 135.9,56.57 L 142.707,51.6244 L 148.841,45.8647 L 154.204,39.3816 L 158.713,32.2775 L 162.295,24.6643
 L 164.895,16.6622 L 166.472,8.39732 L 167,-0 L 166.472,-8.39732 L 164.895,-16.6622 L 162.295,-24.6643
 L 158.713,-32.2775 L 154.204,-39.3816 L 148.841,-45.8647 L 142.707,-51.6244 L 135.9,-56.57 L 128.527,-60.6234
 L 120.704,-63.7208 L 112.555,-65.8132 L 104.207,-66.8678 L 95.793,-66.8678 L 87.4454,-65.8132 L 79.2959,-63.7208
 L 71.4728,-60.6234 L 64.0996,-56.57 L 57.2926,-51.6244 L 51.1591,-45.8647 L 50,-44.4635 L 48.8409,-45.8647
 L 42.7074,-51.6244 L 35.9004,-56.57 L 28.5272,-60.6234 L 20.7041,-63.7208 L 12.5545,-65.8132 L 4.20695,-66.8678
 L -4.20695,-66.8678 L -12.5545,-65.8132 L -20.7041,-63.7208 L -28.5272,-60.6234 L -35.9004,-56.57 L -42.7074,-51.6244
 L -48.8409,-45.8647 L -54.2041,-39.3816 L -58.7125,-32.2775 L -62.295,-24.6643 L -64.8951,-16.6622 L -66.4717,-8.39732
 L -67,-0 L -66.4717,8.39732 L -64.8951,16.6622 L -62.295,24.6643 L -58.7125,32.2775 L -54.2041,39.3816
 L -48.8409,45.8647 L -42.7074,51.6244 L -35.9004,56.57 L -28.5272,60.6234 L -20.7041,63.7208 L -12.5545,65.8132
 L -4.20695,66.8678 L 4.20695,66.8678 z
M -0.18837,-57.0059 L -0.562134,-57.0531 L -0.927048,-57.1468 L -1.27733,-57.2855 L -1.60747,-57.467 L -1.91226,-57.6885
 L -2.1869,-57.9464 L -2.42705,-58.2366 L -2.62891,-58.5547 L -2.78932,-58.8956 L -2.90575,-59.2539 L -2.97633,-59.624
 L -3,-60 L -2.97633,-60.376 L -2.90575,-60.7461 L -2.78932,-61.1044 L -2.62891,-61.4453 L -2.42705,-61.7634
 L -2.1869,-62.0536 L -1.91226,-62.3115 L -1.60747,-62.533 L -1.27733,-62.7145 L -0.927048,-62.8532 L -0.562134,-62.9469
 L -0.18837,-62.9941 L 0.18837,-62.9941 L 0.562134,-62.9469 L 0.927048,-62.8532 L 1.27733,-62.7145 L 1.60747,-62.533
 L 1.91226,-62.3115 L 2.1869,-62.0536 L 2.42705,-61.7634 L 2.62891,-61.4453 L 2.78932,-61.1044 L 2.90575,-60.7461
 L 2.97633,-60.376 L 3,-60 L 2.97633,-59.624 L 2.90575,-59.2539 L 2.78932,-58.8956 L 2.62891,-58.5547
 L 2.42705,-58.2366 L 2.1869,-57.9464 L 1.91226,-57.6885 L 1.60747,-57.467 L 1.27733,-57.2855 L 0.927048,-57.1468
 L 0.562134,-57.0531 L 0.18837,-57.0059 z
M 99.8116,-57.0059 L 99.4379,-57.0531 L 99.073,-57.1468 L 98.7227,-57.2855 L 98.3925,-57.467 L 98.0877,-57.6885
 L 97.8131,-57.9464 L 97.573,-58.2366 L 97.3711,-58.5547 L 97.2107,-58.8956 L 97.0943,-59.2539 L 97.0237,-59.624
 L 97,-60 L 97.0237,-60.376 L 97.0943,-60.7461 L 97.2107,-61.1044 L 97.3711,-61.4453 L 97.573,-61.7634
 L 97.8131,-62.0536 L 98.0877,-62.3115 L 98.3925,-62.533 L 98.7227,-62.7145 L 99.073,-62.8532 L 99.4379,-62.9469
 L 99.8116,-62.9941 L 100.188,-62.9941 L 100.562,-62.9469 L 100.927,-62.8532 L 101.277,-62.7145 L 101.607,-62.533
 L 101.912,-62.3115 L 102.187,-62.0536 L 102.427,-61.7634 L 102.629,-61.4453 L 102.789,-61.1044 L 102.906,-60.7461
 L 102.976,-60.376 L 103,-60 L 102.976,-59.624 L 102.906,-59.2539 L 102.789,-58.8956 L 102.629,-58.5547
 L 102.427,-58.2366 L 102.187,-57.9464 L 101.912,-57.6885 L 101.607,-57.467 L 101.277,-57.2855 L 100.927,-57.1468
 L 100.562,-57.0531 L 100.188,-57.0059 z
M -2.72083,-46.9417 L -3.09459,-46.989 L -3.4595,-47.0827 L -3.80978,-47.2213 L -4.13994,-47.4028 L -4.44472,-47.6243
 L -4.71936,-47.8822 L -4.9595,-48.1725 L -5.16138,-48.4906 L -5.32178,-48.8315 L -5.4382,-49.1897 L -5.50879,-49.5598
 L -5.53246,-49.9358 L -5.50879,-50.3118 L -5.4382,-50.6819 L -5.32178,-51.0402 L -5.16138,-51.3811 L -4.9595,-51.6992
 L -4.71936,-51.9895 L -4.44472,-52.2474 L -4.13994,-52.4688 L -3.80978,-52.6503 L -3.4595,-52.789 L -3.09459,-52.8827
 L -2.72083,-52.9299 L -2.34409,-52.9299 L -1.97031,-52.8827 L -1.60539,-52.789 L -1.25511,-52.6503 L -0.924973,-52.4688
 L -0.620178,-52.2474 L -0.345551,-51.9895 L -0.105392,-51.6992 L 0.0964508,-51.3811 L 0.256866,-51.0402 L 0.373291,-50.6819
 L 0.443878,-50.3118 L 0.467529,-49.9358 L 0.443878,-49.5598 L 0.373291,-49.1897 L 0.256866,-48.8315 L 0.0964508,-48.4906
 L -0.105392,-48.1725 L -0.345551,-47.8822 L -0.620178,-47.6243 L -0.924973,-47.4028 L -1.25511,-47.2213 L -1.60539,-47.0827
 L -1.97031,-46.989 L -2.34409,-46.9417 z
M 97.2792,-46.9417 L 96.9054,-46.989 L 96.5405,-47.0827 L 96.1902,-47.2213 L 95.8601,-47.4028 L 95.5553,-47.6243
 L 95.2806,-47.8822 L 95.0405,-48.1725 L 94.8386,-48.4906 L 94.6782,-48.8315 L 94.5618,-49.1897 L 94.4912,-49.5598
 L 94.4675,-49.9358 L 94.4912,-50.3118 L 94.5618,-50.6819 L 94.6782,-51.0402 L 94.8386,-51.3811 L 95.0405,-51.6992
 L 95.2806,-51.9895 L 95.5553,-52.2474 L 95.8601,-52.4688 L 96.1902,-52.6503 L 96.5405,-52.789 L 96.9054,-52.8827
 L 97.2792,-52.9299 L 97.6559,-52.9299 L 98.0297,-52.8827 L 98.3946,-52.789 L 98.7449,-52.6503 L 99.075,-52.4688
 L 99.3798,-52.2474 L 99.6544,-51.9895 L 99.8946,-51.6992 L 100.096,-51.3811 L 100.257,-51.0402 L 100.373,-50.6819
 L 100.444,-50.3118 L 100.468,-49.9358 L 100.444,-49.5598 L 100.373,-49.1897 L 100.257,-48.8315 L 100.096,-48.4906
 L 99.8946,-48.1725 L 99.6544,-47.8822 L 99.3798,-47.6243 L 99.075,-47.4028 L 98.7449,-47.2213 L 98.3946,-47.0827
 L 98.0297,-46.989 L 97.6559,-46.9417 z
M 7.38301,-46.4293 L 7.00923,-46.4765 L 6.64433,-46.5702 L 6.29404,-46.7089 L 5.9639,-46.8904 L 5.6591,-47.1119
 L 5.38448,-47.3698 L 5.14433,-47.66 L 4.94246,-47.9781 L 4.78206,-48.319 L 4.66563,-48.6773 L 4.59503,-49.0474
 L 4.57138,-49.4234 L 4.59503,-49.7994 L 4.66563,-50.1695 L 4.78206,-50.5278 L 4.94246,-50.8687 L 5.14433,-51.1868
 L 5.38448,-51.4771 L 5.6591,-51.735 L 5.9639,-51.9564 L 6.29404,-52.1379 L 6.64433,-52.2766 L 7.00923,-52.3703
 L 7.38301,-52.4175 L 7.75975,-52.4175 L 8.13353,-52.3703 L 8.49843,-52.2766 L 8.84872,-52.1379 L 9.17886,-51.9564
 L 9.48366,-51.735 L 9.75829,-51.4771 L 9.99843,-51.1868 L 10.2003,-50.8687 L 10.3607,-50.5278 L 10.4771,-50.1695
 L 10.5477,-49.7994 L 10.5714,-49.4234 L 10.5477,-49.0474 L 10.4771,-48.6773 L 10.3607,-48.319 L 10.2003,-47.9781
 L 9.99843,-47.66 L 9.75829,-47.3698 L 9.48366,-47.1119 L 9.17886,-46.8904 L 8.84872,-46.7089 L 8.49843,-46.5702
 L 8.13353,-46.4765 L 7.75975,-46.4293 z
M 107.383,-46.4293 L 107.009,-46.4765 L 106.644,-46.5702 L 106.294,-46.7089 L 105.964,-46.8904 L 105.659,-47.1119
 L 105.384,-47.3698 L 105.144,-47.66 L 104.942,-47.9781 L 104.782,-48.319 L 104.666,-48.6773 L 104.595,-49.0474
 L 104.571,-49.4234 L 104.595,-49.7994 L 104.666,-50.1695 L 104.782,-50.5278 L 104.942,-50.8687 L 105.144,-51.1868
 L 105.384,-51.4771 L 105.659,-51.735 L 105.964,-51.9564 L 106.294,-52.1379 L 106.644,-52.2766 L 107.009,-52.3703
 L 107.383,-52.4175 L 107.76,-52.4175 L 108.134,-52.3703 L 108.498,-52.2766 L 108.849,-52.1379 L 109.179,-51.9564
 L 109.484,-51.735 L 109.758,-51.4771 L 109.998,-51.1868 L 110.2,-50.8687 L 110.361,-50.5278 L 110.477,-50.1695
 L 110.548,-49.7994 L 110.571,-49.4234 L 110.548,-49.0474 L 110.477,-48.6773 L 110.361,-48.319 L 110.2,-47.9781
 L 109.998,-47.66 L 109.758,-47.3698 L 109.484,-47.1119 L 109.179,-46.8904 L 108.849,-46.7089 L 108.498,-46.5702
 L 108.134,-46.4765 L 107.76,-46.4293 z
M 87.279,-45.4098 L 86.9052,-45.457 L 86.5403,-45.5507 L 86.19,-45.6894 L 85.8599,-45.8709 L 85.5551,-46.0923
 L 85.2805,-46.3502 L 85.0403,-46.6405 L 84.8385,-46.9586 L 84.678,-47.2995 L 84.5616,-47.6578 L 84.491,-48.0278
 L 84.4674,-48.4039 L 84.491,-48.7798 L 84.5616,-49.1499 L 84.678,-49.5082 L 84.8385,-49.8491 L 85.0403,-50.1672
 L 85.2805,-50.4575 L 85.5551,-50.7154 L 85.8599,-50.9368 L 86.19,-51.1183 L 86.5403,-51.257 L 86.9052,-51.3507
 L 87.279,-51.3979 L 87.6557,-51.3979 L 88.0295,-51.3507 L 88.3944,-51.257 L 88.7447,-51.1183 L 89.0748,-50.9368
 L 89.3796,-50.7154 L 89.6543,-50.4575 L 89.8944,-50.1672 L 90.0963,-49.8491 L 90.2567,-49.5082 L 90.3731,-49.1499
 L 90.4437,-48.7798 L 90.4674,-48.4039 L 90.4437,-48.0278 L 90.3731,-47.6578 L 90.2567,-47.2995 L 90.0963,-46.9586
 L 89.8944,-46.6405 L 89.6543,-46.3502 L 89.3796,-46.0923 L 89.0748,-45.8709 L 88.7447,-45.6894 L 88.3944,-45.5507
 L 88.0295,-45.457 L 87.6557,-45.4098 z
M -12.721,-45.4098 L -13.0948,-45.457 L -13.4597,-45.5507 L -13.81,-45.6894 L -14.1401,-45.8709 L -14.4449,-46.0923
 L -14.7195,-46.3502 L -14.9597,-46.6405 L -15.1615,-46.9586 L -15.3219,-47.2995 L -15.4384,-47.6578 L -15.509,-48.0278
 L -15.5326,-48.4039 L -15.509,-48.7798 L -15.4384,-49.1499 L -15.3219,-49.5082 L -15.1615,-49.8491 L -14.9597,-50.1672
 L -14.7195,-50.4575 L -14.4449,-50.7154 L -14.1401,-50.9368 L -13.81,-51.1183 L -13.4597,-51.257 L -13.0948,-51.3507
 L -12.721,-51.3979 L -12.3443,-51.3979 L -11.9705,-51.3507 L -11.6056,-51.257 L -11.2553,-51.1183 L -10.9251,-50.9368
 L -10.6203,-50.7154 L -10.3457,-50.4575 L -10.1056,-50.1672 L -9.9037,-49.8491 L -9.74329,-49.5082 L -9.62688,-49.1499
 L -9.55627,-48.7798 L -9.53262,-48.4039 L -9.55627,-48.0278 L -9.62688,-47.6578 L -9.74329,-47.2995 L -9.9037,-46.9586
 L -10.1056,-46.6405 L -10.3457,-46.3502 L -10.6203,-46.0923 L -10.9251,-45.8709 L -11.2553,-45.6894 L -11.6056,-45.5507
 L -11.9705,-45.457 L -12.3443,-45.4098 z
M 117.177,-43.8935 L 116.803,-43.9407 L 116.438,-44.0344 L 116.088,-44.1731 L 115.758,-44.3546 L 115.453,-44.5761
 L 115.178,-44.834 L 114.938,-45.1243 L 114.736,-45.4423 L 114.576,-45.7832 L 114.46,-46.1415 L 114.389,-46.5116
 L 114.365,-46.8876 L 114.389,-47.2636 L 114.46,-47.6337 L 114.576,-47.992 L 114.736,-48.3329 L 114.938,-48.651
 L 115.178,-48.9412 L 115.453,-49.1991 L 115.758,-49.4206 L 116.088,-49.6021 L 116.438,-49.7408 L 116.803,-49.8345
 L 117.177,-49.8817 L 117.554,-49.8817 L 117.927,-49.8345 L 118.292,-49.7408 L 118.643,-49.6021 L 118.973,-49.4206
 L 119.278,-49.1991 L 119.552,-48.9412 L 119.792,-48.651 L 119.994,-48.3329 L 120.155,-47.992 L 120.271,-47.6337
 L 120.342,-47.2636 L 120.365,-46.8876 L 120.342,-46.5116 L 120.271,-46.1415 L 120.155,-45.7832 L 119.994,-45.4423
 L 119.792,-45.1243 L 119.552,-44.834 L 119.278,-44.5761 L 118.973,-44.3546 L 118.643,-44.1731 L 118.292,-44.0344
 L 117.927,-43.9407 L 117.554,-43.8935 z
M 17.1769,-43.8935 L 16.8031,-43.9407 L 16.4382,-44.0344 L 16.0879,-44.1731 L 15.7578,-44.3546 L 15.453,-44.5761
 L 15.1783,-44.834 L 14.9382,-45.1243 L 14.7363,-45.4423 L 14.5759,-45.7832 L 14.4595,-46.1415 L 14.3889,-46.5116
 L 14.3652,-46.8876 L 14.3889,-47.2636 L 14.4595,-47.6337 L 14.5759,-47.992 L 14.7363,-48.3329 L 14.9382,-48.651
 L 15.1783,-48.9412 L 15.453,-49.1991 L 15.7578,-49.4206 L 16.0879,-49.6021 L 16.4382,-49.7408 L 16.8031,-49.8345
 L 17.1769,-49.8817 L 17.5536,-49.8817 L 17.9274,-49.8345 L 18.2923,-49.7408 L 18.6426,-49.6021 L 18.9727,-49.4206
 L 19.2775,-49.1991 L 19.5522,-48.9412 L 19.7923,-48.651 L 19.9942,-48.3329 L 20.1546,-47.992 L 20.271,-47.6337
 L 20.3416,-47.2636 L 20.3652,-46.8876 L 20.3416,-46.5116 L 20.271,-46.1415 L 20.1546,-45.7832 L 19.9942,-45.4423
 L 19.7923,-45.1243 L 19.5522,-44.834 L 19.2775,-44.5761 L 18.9727,-44.3546 L 18.6426,-44.1731 L 18.2923,-44.0344
 L 17.9274,-43.9407 L 17.5536,-43.8935 z
M 77.7919,-41.8961 L 77.4182,-41.9434 L 77.0532,-42.037 L 76.703,-42.1757 L 76.3728,-42.3572 L 76.068,-42.5787
 L 75.7934,-42.8366 L 75.5532,-43.1269 L 75.3514,-43.445 L 75.191,-43.7858 L 75.0745,-44.1441 L 75.004,-44.5142
 L 74.9803,-44.8902 L 75.004,-45.2662 L 75.0745,-45.6363 L 75.191,-45.9946 L 75.3514,-46.3355 L 75.5532,-46.6536
 L 75.7934,-46.9439 L 76.068,-47.2018 L 76.3728,-47.4232 L 76.703,-47.6047 L 77.0532,-47.7434 L 77.4182,-47.8371
 L 77.7919,-47.8843 L 78.1687,-47.8843 L 78.5424,-47.8371 L 78.9073,-47.7434 L 79.2576,-47.6047 L 79.5878,-47.4232
 L 79.8926,-47.2018 L 80.1672,-46.9439 L 80.4073,-46.6536 L 80.6092,-46.3355 L 80.7696,-45.9946 L 80.886,-45.6363
 L 80.9566,-45.2662 L 80.9803,-44.8902 L 80.9566,-44.5142 L 80.886,-44.1441 L 80.7696,-43.7858 L 80.6092,-43.445
 L 80.4073,-43.1269 L 80.1672,-42.8366 L 79.8926,-42.5787 L 79.5878,-42.3572 L 79.2576,-42.1757 L 78.9073,-42.037
 L 78.5424,-41.9434 L 78.1687,-41.8961 z
M -22.2081,-41.8961 L -22.5818,-41.9434 L -22.9467,-42.037 L -23.297,-42.1757 L -23.6272,-42.3572 L -23.932,-42.5787
 L -24.2066,-42.8366 L -24.4467,-43.1269 L -24.6486,-43.445 L -24.809,-43.7858 L -24.9254,-44.1441 L -24.996,-44.5142
 L -25.0197,-44.8902 L -24.996,-45.2662 L -24.9254,-45.6363 L -24.809,-45.9946 L -24.6486,-46.3355 L -24.4467,-46.6536
 L -24.2066,-46.9439 L -23.932,-47.2018 L -23.6272,-47.4232 L -23.297,-47.6047 L -22.9467,-47.7434 L -22.5818,-47.8371
 L -22.2081,-47.8843 L -21.8313,-47.8843 L -21.4576,-47.8371 L -21.0927,-47.7434 L -20.7424,-47.6047 L -20.4122,-47.4232
 L -20.1074,-47.2018 L -19.8328,-46.9439 L -19.5927,-46.6536 L -19.3908,-46.3355 L -19.2304,-45.9946 L -19.114,-45.6363
 L -19.0434,-45.2662 L -19.0197,-44.8902 L -19.0434,-44.5142 L -19.114,-44.1441 L -19.2304,-43.7858 L -19.3908,-43.445
 L -19.5927,-43.1269 L -19.8328,-42.8366 L -20.1074,-42.5787 L -20.4122,-42.3572 L -20.7424,-42.1757 L -21.0927,-42.037
 L -21.4576,-41.9434 L -21.8313,-41.8961 z
M 26.2598,-39.4381 L 25.886,-39.4854 L 25.5211,-39.579 L 25.1709,-39.7177 L 24.8407,-39.8992 L 24.5359,-40.1207
 L 24.2613,-40.3786 L 24.0211,-40.6689 L 23.8193,-40.987 L 23.6589,-41.3278 L 23.5424,-41.6861 L 23.4718,-42.0562
 L 23.4482,-42.4322 L 23.4718,-42.8082 L 23.5424,-43.1783 L 23.6589,-43.5366 L 23.8193,-43.8775 L 24.0211,-44.1956
 L 24.2613,-44.4859 L 24.5359,-44.7437 L 24.8407,-44.9652 L 25.1709,-45.1467 L 25.5211,-45.2854 L 25.886,-45.3791
 L 26.2598,-45.4263 L 26.6366,-45.4263 L 27.0103,-45.3791 L 27.3752,-45.2854 L 27.7255,-45.1467 L 28.0557,-44.9652
 L 28.3605,-44.7437 L 28.6351,-44.4859 L 28.8752,-44.1956 L 29.0771,-43.8775 L 29.2375,-43.5366 L 29.3539,-43.1783
 L 29.4245,-42.8082 L 29.4482,-42.4322 L 29.4245,-42.0562 L 29.3539,-41.6861 L 29.2375,-41.3278 L 29.0771,-40.987
 L 28.8752,-40.6689 L 28.6351,-40.3786 L 28.3605,-40.1207 L 28.0557,-39.8992 L 27.7255,-39.7177 L 27.3752,-39.579
 L 27.0103,-39.4854 L 26.6366,-39.4381 z
M 126.26,-39.4381 L 125.886,-39.4854 L 125.521,-39.579 L 125.171,-39.7177 L 124.841,-39.8992 L 124.536,-40.1207
 L 124.261,-40.3786 L 124.021,-40.6689 L 123.819,-40.987 L 123.659,-41.3278 L 123.542,-41.6861 L 123.472,-42.0562
 L 123.448,-42.4322 L 123.472,-42.8082 L 123.542,-43.1783 L 123.659,-43.5366 L 123.819,-43.8775 L 124.021,-44.1956
 L 124.261,-44.4859 L 124.536,-44.7437 L 124.841,-44.9652 L 125.171,-45.1467 L 125.521,-45.2854 L 125.886,-45.3791
 L 126.26,-45.4263 L 126.637,-45.4263 L 127.01,-45.3791 L 127.375,-45.2854 L 127.726,-45.1467 L 128.056,-44.9652
 L 128.36,-44.7437 L 128.635,-44.4859 L 128.875,-44.1956 L 129.077,-43.8775 L 129.238,-43.5366 L 129.354,-43.1783
 L 129.425,-42.8082 L 129.448,-42.4322 L 129.425,-42.0562 L 129.354,-41.6861 L 129.238,-41.3278 L 129.077,-40.987
 L 128.875,-40.6689 L 128.635,-40.3786 L 128.36,-40.1207 L 128.056,-39.8992 L 127.726,-39.7177 L 127.375,-39.579
 L 127.01,-39.4854 L 126.637,-39.4381 z
M -30.7937,-36.5447 L -31.1674,-36.5919 L -31.5323,-36.6856 L -31.8826,-36.8243 L -32.2128,-37.0058 L -32.5176,-37.2272
 L -32.7922,-37.4851 L -33.0323,-37.7754 L -33.2342,-38.0935 L -33.3946,-38.4344 L -33.511,-38.7927 L -33.5816,-39.1628
 L -33.6053,-39.5388 L -33.5816,-39.9148 L -33.511,-40.2849 L -33.3946,-40.6432 L -33.2342,-40.984 L -33.0323,-41.3021
 L -32.7922,-41.5924 L -32.5176,-41.8503 L -32.2128,-42.0718 L -31.8826,-42.2533 L -31.5323,-42.392 L -31.1674,-42.4856
 L -30.7937,-42.5329 L -30.4169,-42.5329 L -30.0432,-42.4856 L -29.6782,-42.392 L -29.328,-42.2533 L -28.9978,-42.0718
 L -28.693,-41.8503 L -28.4184,-41.5924 L -28.1782,-41.3021 L -27.9764,-40.984 L -27.816,-40.6432 L -27.6995,-40.2849
 L -27.629,-39.9148 L -27.6053,-39.5388 L -27.629,-39.1628 L -27.6995,-38.7927 L -27.816,-38.4344 L -27.9764,-38.0935
 L -28.1782,-37.7754 L -28.4184,-37.4851 L -28.693,-37.2272 L -28.9978,-37.0058 L -29.328,-36.8243 L -29.6782,-36.6856
 L -30.0432,-36.5919 L -30.4169,-36.5447 z
M 69.2063,-36.5447 L 68.8326,-36.5919 L 68.4677,-36.6856 L 68.1174,-36.8243 L 67.7872,-37.0058 L 67.4824,-37.2272
 L 67.2078,-37.4851 L 66.9677,-37.7754 L 66.7658,-38.0935 L 66.6054,-38.4344 L 66.489,-38.7927 L 66.4184,-39.1628
 L 66.3947,-39.5388 L 66.4184,-39.9148 L 66.489,-40.2849 L 66.6054,-40.6432 L 66.7658,-40.984 L 66.9677,-41.3021
 L 67.2078,-41.5924 L 67.4824,-41.8503 L 67.7872,-42.0718 L 68.1174,-42.2533 L 68.4677,-42.392 L 68.8326,-42.4856
 L 69.2063,-42.5329 L 69.5831,-42.5329 L 69.9568,-42.4856 L 70.3217,-42.392 L 70.672,-42.2533 L 71.0022,-42.0718
 L 71.307,-41.8503 L 71.5816,-41.5924 L 71.8217,-41.3021 L 72.0236,-40.984 L 72.184,-40.6432 L 72.3004,-40.2849
 L 72.371,-39.9148 L 72.3947,-39.5388 L 72.371,-39.1628 L 72.3004,-38.7927 L 72.184,-38.4344 L 72.0236,-38.0935
 L 71.8217,-37.7754 L 71.5816,-37.4851 L 71.307,-37.2272 L 71.0022,-37.0058 L 70.672,-36.8243 L 70.3217,-36.6856
 L 69.9568,-36.5919 L 69.5831,-36.5447 z
M 134.26,-33.2456 L 133.886,-33.2928 L 133.521,-33.3865 L 133.171,-33.5251 L 132.841,-33.7066 L 132.536,-33.9281
 L 132.261,-34.186 L 132.021,-34.4763 L 131.819,-34.7944 L 131.659,-35.1353 L 131.543,-35.4936 L 131.472,-35.8636
 L 131.448,-36.2396 L 131.472,-36.6156 L 131.543,-36.9857 L 131.659,-37.344 L 131.819,-37.6849 L 132.021,-38.003
 L 132.261,-38.2933 L 132.536,-38.5512 L 132.841,-38.7726 L 133.171,-38.9541 L 133.521,-39.0928 L 133.886,-39.1865
 L 134.26,-39.2337 L 134.637,-39.2337 L 135.01,-39.1865 L 135.375,-39.0928 L 135.726,-38.9541 L 136.056,-38.7726
 L 136.361,-38.5512 L 136.635,-38.2933 L 136.875,-38.003 L 137.077,-37.6849 L 137.238,-37.344 L 137.354,-36.9857
 L 137.425,-36.6156 L 137.448,-36.2396 L 137.425,-35.8636 L 137.354,-35.4936 L 137.238,-35.1353 L 137.077,-34.7944
 L 136.875,-34.4763 L 136.635,-34.186 L 136.361,-33.9281 L 136.056,-33.7066 L 135.726,-33.5251 L 135.375,-33.3865
 L 135.01,-33.2928 L 134.637,-33.2456 z
M 34.26,-33.2456 L 33.8862,-33.2928 L 33.5213,-33.3865 L 33.171,-33.5251 L 32.8409,-33.7066 L 32.5361,-33.9281
 L 32.2614,-34.186 L 32.0213,-34.4763 L 31.8194,-34.7944 L 31.659,-35.1353 L 31.5426,-35.4936 L 31.472,-35.8636
 L 31.4483,-36.2396 L 31.472,-36.6156 L 31.5426,-36.9857 L 31.659,-37.344 L 31.8194,-37.6849 L 32.0213,-38.003
 L 32.2614,-38.2933 L 32.5361,-38.5512 L 32.8409,-38.7726 L 33.171,-38.9541 L 33.5213,-39.0928 L 33.8862,-39.1865
 L 34.26,-39.2337 L 34.6367,-39.2337 L 35.0105,-39.1865 L 35.3754,-39.0928 L 35.7257,-38.9541 L 36.0558,-38.7726
 L 36.3606,-38.5512 L 36.6352,-38.2933 L 36.8754,-38.003 L 37.0773,-37.6849 L 37.2377,-37.344 L 37.3541,-36.9857
 L 37.4247,-36.6156 L 37.4483,-36.2396 L 37.4247,-35.8636 L 37.3541,-35.4936 L 37.2377,-35.1353 L 37.0773,-34.7944
 L 36.8754,-34.4763 L 36.6352,-34.186 L 36.3606,-33.9281 L 36.0558,-33.7066 L 35.7257,-33.5251 L 35.3754,-33.3865
 L 35.0105,-33.2928 L 34.6367,-33.2456 z
M 99.4663,-21.5168 L 98.4073,-21.6506 L 97.3734,-21.916 L 96.3809,-22.309 L 95.4455,-22.8232 L 94.5819,-23.4506
 L 93.8038,-24.1814 L 93.1234,-25.0038 L 92.5514,-25.9051 L 92.0969,-26.8709 L 91.767,-27.8861 L 91.567,-28.9347
 L 91.5,-30 L 91.567,-31.0653 L 91.767,-32.1139 L 92.0969,-33.1291 L 92.5514,-34.0949 L 93.1234,-34.9962
 L 93.8038,-35.8186 L 94.5819,-36.5494 L 95.4455,-37.1768 L 96.3809,-37.691 L 97.3734,-38.084 L 98.4073,-38.3494
 L 99.4663,-38.4832 L 100.534,-38.4832 L 101.593,-38.3494 L 102.627,-38.084 L 103.619,-37.691 L 104.555,-37.1768
 L 105.418,-36.5494 L 106.196,-35.8186 L 106.877,-34.9962 L 107.449,-34.0949 L 107.903,-33.1291 L 108.233,-32.1139
 L 108.433,-31.0653 L 108.5,-30 L 108.433,-28.9347 L 108.233,-27.8861 L 107.903,-26.8709 L 107.449,-25.9051
 L 106.877,-25.0038 L 106.196,-24.1814 L 105.418,-23.4506 L 104.555,-22.8232 L 103.619,-22.309 L 102.627,-21.916
 L 101.593,-21.6506 L 100.534,-21.5168 z
M -0.533707,-21.5168 L -1.59273,-21.6506 L -2.62663,-21.916 L -3.61911,-22.309 L -4.55452,-22.8232 L -5.41809,-23.4506
 L -6.19623,-24.1814 L -6.87663,-25.0038 L -7.44859,-25.9051 L -7.90309,-26.8709 L -8.23296,-27.8861 L -8.43297,-28.9347
 L -8.5,-30 L -8.43297,-31.0653 L -8.23296,-32.1139 L -7.90309,-33.1291 L -7.44859,-34.0949 L -6.87663,-34.9962
 L -6.19623,-35.8186 L -5.41809,-36.5494 L -4.55452,-37.1768 L -3.61911,-37.691 L -2.62663,-38.084 L -1.59273,-38.3494
 L -0.533707,-38.4832 L 0.533707,-38.4832 L 1.59273,-38.3494 L 2.62663,-38.084 L 3.61911,-37.691 L 4.55452,-37.1768
 L 5.41809,-36.5494 L 6.19623,-35.8186 L 6.87663,-34.9962 L 7.44859,-34.0949 L 7.90309,-33.1291 L 8.23296,-32.1139
 L 8.43297,-31.0653 L 8.5,-30 L 8.43297,-28.9347 L 8.23296,-27.8861 L 7.90309,-26.8709 L 7.44859,-25.9051
 L 6.87663,-25.0038 L 6.19623,-24.1814 L 5.41809,-23.4506 L 4.55452,-22.8232 L 3.61911,-22.309 L 2.62663,-21.916
 L 1.59273,-21.6506 L 0.533707,-21.5168 z
M 61.8737,-29.5745 L 61.4999,-29.6217 L 61.135,-29.7155 L 60.7847,-29.8541 L 60.4546,-30.0356 L 60.1498,-30.2571
 L 59.8752,-30.515 L 59.635,-30.8053 L 59.4332,-31.1234 L 59.2728,-31.4642 L 59.1563,-31.8225 L 59.0857,-32.1926
 L 59.0621,-32.5686 L 59.0857,-32.9446 L 59.1563,-33.3147 L 59.2728,-33.673 L 59.4332,-34.0139 L 59.635,-34.332
 L 59.8752,-34.6223 L 60.1498,-34.8802 L 60.4546,-35.1016 L 60.7847,-35.2831 L 61.135,-35.4218 L 61.4999,-35.5155
 L 61.8737,-35.5627 L 62.2505,-35.5627 L 62.6242,-35.5155 L 62.9891,-35.4218 L 63.3394,-35.2831 L 63.6696,-35.1016
 L 63.9744,-34.8802 L 64.249,-34.6223 L 64.4891,-34.332 L 64.691,-34.0139 L 64.8514,-33.673 L 64.9678,-33.3147
 L 65.0384,-32.9446 L 65.0621,-32.5686 L 65.0384,-32.1926 L 64.9678,-31.8225 L 64.8514,-31.4642 L 64.691,-31.1234
 L 64.4891,-30.8053 L 64.249,-30.515 L 63.9744,-30.2571 L 63.6696,-30.0356 L 63.3394,-29.8541 L 62.9891,-29.7155
 L 62.6242,-29.6217 L 62.2505,-29.5745 z
M -38.1263,-29.5745 L -38.5,-29.6217 L -38.8649,-29.7155 L -39.2152,-29.8541 L -39.5454,-30.0356 L -39.8502,-30.2571
 L -40.1248,-30.515 L -40.3649,-30.8053 L -40.5668,-31.1234 L -40.7272,-31.4642 L -40.8436,-31.8225 L -40.9142,-32.1926
 L -40.9379,-32.5686 L -40.9142,-32.9446 L -40.8436,-33.3147 L -40.7272,-33.673 L -40.5668,-34.0139 L -40.3649,-34.332
 L -40.1248,-34.6223 L -39.8502,-34.8802 L -39.5454,-35.1016 L -39.2152,-35.2831 L -38.8649,-35.4218 L -38.5,-35.5155
 L -38.1263,-35.5627 L -37.7495,-35.5627 L -37.3758,-35.5155 L -37.0108,-35.4218 L -36.6606,-35.2831 L -36.3304,-35.1016
 L -36.0256,-34.8802 L -35.751,-34.6223 L -35.5108,-34.332 L -35.309,-34.0139 L -35.1486,-33.673 L -35.0322,-33.3147
 L -34.9616,-32.9446 L -34.9379,-32.5686 L -34.9616,-32.1926 L -35.0322,-31.8225 L -35.1486,-31.4642 L -35.309,-31.1234
 L -35.5108,-30.8053 L -35.751,-30.515 L -36.0256,-30.2571 L -36.3304,-30.0356 L -36.6606,-29.8541 L -37.0108,-29.7155
 L -37.3758,-29.6217 L -37.7495,-29.5745 z
M 140.85,-25.5693 L 140.476,-25.6165 L 140.111,-25.7102 L 139.761,-25.8489 L 139.431,-26.0304 L 139.126,-26.2519
 L 138.851,-26.5098 L 138.611,-26.8 L 138.409,-27.1181 L 138.249,-27.459 L 138.132,-27.8173 L 138.062,-28.1874
 L 138.038,-28.5634 L 138.062,-28.9394 L 138.132,-29.3095 L 138.249,-29.6678 L 138.409,-30.0087 L 138.611,-30.3268
 L 138.851,-30.6171 L 139.126,-30.8749 L 139.431,-31.0964 L 139.761,-31.2779 L 140.111,-31.4166 L 140.476,-31.5103
 L 140.85,-31.5575 L 141.227,-31.5575 L 141.6,-31.5103 L 141.965,-31.4166 L 142.316,-31.2779 L 142.646,-31.0964
 L 142.95,-30.8749 L 143.225,-30.6171 L 143.465,-30.3268 L 143.667,-30.0087 L 143.827,-29.6678 L 143.944,-29.3095
 L 144.015,-28.9394 L 144.038,-28.5634 L 144.015,-28.1874 L 143.944,-27.8173 L 143.827,-27.459 L 143.667,-27.1181
 L 143.465,-26.8 L 143.225,-26.5098 L 142.95,-26.2519 L 142.646,-26.0304 L 142.316,-25.8489 L 141.965,-25.7102
 L 141.6,-25.6165 L 141.227,-25.5693 z
M 40.8498,-25.5693 L 40.476,-25.6165 L 40.1111,-25.7102 L 39.7608,-25.8489 L 39.4307,-26.0304 L 39.1259,-26.2519
 L 38.8513,-26.5098 L 38.6111,-26.8 L 38.4092,-27.1181 L 38.2488,-27.459 L 38.1324,-27.8173 L 38.0618,-28.1874
 L 38.0382,-28.5634 L 38.0618,-28.9394 L 38.1324,-29.3095 L 38.2488,-29.6678 L 38.4092,-30.0087 L 38.6111,-30.3268
 L 38.8513,-30.6171 L 39.1259,-30.8749 L 39.4307,-31.0964 L 39.7608,-31.2779 L 40.1111,-31.4166 L 40.476,-31.5103
 L 40.8498,-31.5575 L 41.2265,-31.5575 L 41.6003,-31.5103 L 41.9652,-31.4166 L 42.3155,-31.2779 L 42.6456,-31.0964
 L 42.9504,-30.8749 L 43.2251,-30.6171 L 43.4652,-30.3268 L 43.6671,-30.0087 L 43.8275,-29.6678 L 43.9439,-29.3095
 L 44.0145,-28.9394 L 44.0382,-28.5634 L 44.0145,-28.1874 L 43.9439,-27.8173 L 43.8275,-27.459 L 43.6671,-27.1181
 L 43.4652,-26.8 L 43.2251,-26.5098 L 42.9504,-26.2519 L 42.6456,-26.0304 L 42.3155,-25.8489 L 41.9652,-25.7102
 L 41.6003,-25.6165 L 41.2265,-25.5693 z
M -43.9057,-21.271 L -44.2795,-21.3182 L -44.6444,-21.4119 L -44.9947,-21.5506 L -45.3248,-21.7321 L -45.6296,-21.9536
 L -45.9042,-22.2115 L -46.1444,-22.5017 L -46.3463,-22.8198 L -46.5067,-23.1607 L -46.6231,-23.519 L -46.6937,-23.8891
 L -46.7173,-24.2651 L -46.6937,-24.6411 L -46.6231,-25.0112 L -46.5067,-25.3695 L -46.3463,-25.7104 L -46.1444,-26.0284
 L -45.9042,-26.3187 L -45.6296,-26.5766 L -45.3248,-26.7981 L -44.9947,-26.9796 L -44.6444,-27.1183 L -44.2795,-27.212
 L -43.9057,-27.2592 L -43.5289,-27.2592 L -43.1552,-27.212 L -42.7903,-27.1183 L -42.44,-26.9796 L -42.1098,-26.7981
 L -41.8051,-26.5766 L -41.5304,-26.3187 L -41.2903,-26.0284 L -41.0884,-25.7104 L -40.928,-25.3695 L -40.8116,-25.0112
 L -40.741,-24.6411 L -40.7173,-24.2651 L -40.741,-23.8891 L -40.8116,-23.519 L -40.928,-23.1607 L -41.0884,-22.8198
 L -41.2903,-22.5017 L -41.5304,-22.2115 L -41.8051,-21.9536 L -42.1098,-21.7321 L -42.44,-21.5506 L -42.7903,-21.4119
 L -43.1552,-21.3182 L -43.5289,-21.271 z
M 45.7595,-16.7237 L 45.3857,-16.7709 L 45.0208,-16.8646 L 44.6705,-17.0033 L 44.3404,-17.1848 L 44.0356,-17.4062
 L 43.761,-17.6641 L 43.5208,-17.9544 L 43.319,-18.2725 L 43.1586,-18.6134 L 43.0421,-18.9717 L 42.9715,-19.3418
 L 42.9479,-19.7178 L 42.9715,-20.0938 L 43.0421,-20.4639 L 43.1586,-20.8222 L 43.319,-21.163 L 43.5208,-21.4811
 L 43.761,-21.7714 L 44.0356,-22.0293 L 44.3404,-22.2508 L 44.6705,-22.4323 L 45.0208,-22.571 L 45.3857,-22.6646
 L 45.7595,-22.7119 L 46.1363,-22.7119 L 46.51,-22.6646 L 46.8749,-22.571 L 47.2252,-22.4323 L 47.5554,-22.2508
 L 47.8602,-22.0293 L 48.1348,-21.7714 L 48.3749,-21.4811 L 48.5768,-21.163 L 48.7372,-20.8222 L 48.8536,-20.4639
 L 48.9242,-20.0938 L 48.9479,-19.7178 L 48.9242,-19.3418 L 48.8536,-18.9717 L 48.7372,-18.6134 L 48.5768,-18.2725
 L 48.3749,-17.9544 L 48.1348,-17.6641 L 47.8602,-17.4062 L 47.5554,-17.1848 L 47.2252,-17.0033 L 46.8749,-16.8646
 L 46.51,-16.7709 L 46.1363,-16.7237 z
M 145.76,-16.7237 L 145.386,-16.7709 L 145.021,-16.8646 L 144.671,-17.0033 L 144.34,-17.1848 L 144.036,-17.4062
 L 143.761,-17.6641 L 143.521,-17.9544 L 143.319,-18.2725 L 143.159,-18.6134 L 143.042,-18.9717 L 142.972,-19.3418
 L 142.948,-19.7178 L 142.972,-20.0938 L 143.042,-20.4639 L 143.159,-20.8222 L 143.319,-21.163 L 143.521,-21.4811
 L 143.761,-21.7714 L 144.036,-22.0293 L 144.34,-22.2508 L 144.671,-22.4323 L 145.021,-22.571 L 145.386,-22.6646
 L 145.76,-22.7119 L 146.136,-22.7119 L 146.51,-22.6646 L 146.875,-22.571 L 147.225,-22.4323 L 147.555,-22.2508
 L 147.86,-22.0293 L 148.135,-21.7714 L 148.375,-21.4811 L 148.577,-21.163 L 148.737,-20.8222 L 148.854,-20.4639
 L 148.924,-20.0938 L 148.948,-19.7178 L 148.924,-19.3418 L 148.854,-18.9717 L 148.737,-18.6134 L 148.577,-18.2725
 L 148.375,-17.9544 L 148.135,-17.6641 L 147.86,-17.4062 L 147.555,-17.1848 L 147.225,-17.0033 L 146.875,-16.8646
 L 146.51,-16.7709 L 146.136,-16.7237 z
M -47.8953,-11.9741 L -48.2691,-12.0213 L -48.634,-12.115 L -48.9843,-12.2537 L -49.3144,-12.4352 L -49.6192,-12.6566
 L -49.8939,-12.9145 L -50.134,-13.2048 L -50.3359,-13.5229 L -50.4963,-13.8638 L -50.6127,-14.2221 L -50.6833,-14.5921
 L -50.707,-14.9682 L -50.6833,-15.3441 L -50.6127,-15.7142 L -50.4963,-16.0725 L -50.3359,-16.4134 L -50.134,-16.7315
 L -49.8939,-17.0218 L -49.6192,-17.2797 L -49.3144,-17.5011 L -48.9843,-17.6826 L -48.634,-17.8213 L -48.2691,-17.915
 L -47.8953,-17.9622 L -47.5186,-17.9622 L -47.1448,-17.915 L -46.7799,-17.8213 L -46.4296,-17.6826 L -46.0995,-17.5011
 L -45.7947,-17.2797 L -45.5201,-17.0218 L -45.2799,-16.7315 L -45.078,-16.4134 L -44.9176,-16.0725 L -44.8012,-15.7142
 L -44.7306,-15.3441 L -44.707,-14.9682 L -44.7306,-14.5921 L -44.8012,-14.2221 L -44.9176,-13.8638 L -45.078,-13.5229
 L -45.2799,-13.2048 L -45.5201,-12.9145 L -45.7947,-12.6566 L -46.0995,-12.4352 L -46.4296,-12.2537 L -46.7799,-12.115
 L -47.1448,-12.0213 L -47.5186,-11.9741 z
M 84.887,-13.2036 L 84.6627,-13.2319 L 84.4438,-13.2881 L 84.2336,-13.3713 L 84.0355,-13.4802 L 83.8526,-13.6131
 L 83.6879,-13.7678 L 83.5438,-13.942 L 83.4226,-14.1328 L 83.3264,-14.3374 L 83.2565,-14.5524 L 83.2142,-14.7744
 L 83.2,-15 L 83.2142,-15.2256 L 83.2565,-15.4476 L 83.3264,-15.6626 L 83.4226,-15.8671 L 83.5438,-16.058
 L 83.6879,-16.2322 L 83.8526,-16.3869 L 84.0355,-16.5198 L 84.2336,-16.6287 L 84.4438,-16.7119 L 84.6627,-16.7681
 L 84.887,-16.7964 L 85.113,-16.7964 L 85.3373,-16.7681 L 85.5562,-16.7119 L 85.7664,-16.6287 L 85.9645,-16.5198
 L 86.1474,-16.3869 L 86.3121,-16.2322 L 86.4562,-16.058 L 86.5773,-15.8671 L 86.6736,-15.6626 L 86.7434,-15.4476
 L 86.7858,-15.2256 L 86.8,-15 L 86.7858,-14.7744 L 86.7434,-14.5524 L 86.6736,-14.3374 L 86.5773,-14.1328
 L 86.4562,-13.942 L 86.3121,-13.7678 L 86.1474,-13.6131 L 85.9645,-13.4802 L 85.7664,-13.3713 L 85.5562,-13.2881
 L 85.3373,-13.2319 L 85.113,-13.2036 z
M -15.113,-13.2036 L -15.3373,-13.2319 L -15.5562,-13.2881 L -15.7664,-13.3713 L -15.9645,-13.4802 L -16.1474,-13.6131
 L -16.3121,-13.7678 L -16.4562,-13.942 L -16.5773,-14.1328 L -16.6736,-14.3374 L -16.7434,-14.5524 L -16.7858,-14.7744
 L -16.8,-15 L -16.7858,-15.2256 L -16.7434,-15.4476 L -16.6736,-15.6626 L -16.5773,-15.8671 L -16.4562,-16.058
 L -16.3121,-16.2322 L -16.1474,-16.3869 L -15.9645,-16.5198 L -15.7664,-16.6287 L -15.5562,-16.7119 L -15.3373,-16.7681
 L -15.113,-16.7964 L -14.887,-16.7964 L -14.6627,-16.7681 L -14.4438,-16.7119 L -14.2336,-16.6287 L -14.0355,-16.5198
 L -13.8526,-16.3869 L -13.6879,-16.2322 L -13.5438,-16.058 L -13.4226,-15.8671 L -13.3264,-15.6626 L -13.2565,-15.4476
 L -13.2142,-15.2256 L -13.2,-15 L -13.2142,-14.7744 L -13.2565,-14.5524 L -13.3264,-14.3374 L -13.4226,-14.1328
 L -13.5438,-13.942 L -13.6879,-13.7678 L -13.8526,-13.6131 L -14.0355,-13.4802 L -14.2336,-13.3713 L -14.4438,-13.2881
 L -14.6627,-13.2319 L -14.887,-13.2036 z
M 14.887,-13.2036 L 14.6627,-13.2319 L 14.4438,-13.2881 L 14.2336,-13.3713 L 14.0355,-13.4802 L 13.8526,-13.6131
 L 13.6879,-13.7678 L 13.5438,-13.942 L 13.4226,-14.1328 L 13.3264,-14.3374 L 13.2565,-14.5524 L 13.2142,-14.7744
 L 13.2,-15 L 13.2142,-15.2256 L 13.2565,-15.4476 L 13.3264,-15.6626 L 13.4226,-15.8671 L 13.5438,-16.058
 L 13.6879,-16.2322 L 13.8526,-16.3869 L 14.0355,-16.5198 L 14.2336,-16.6287 L 14.4438,-16.7119 L 14.6627,-16.7681
 L 14.887,-16.7964 L 15.113,-16.7964 L 15.3373,-16.7681 L 15.5562,-16.7119 L 15.7664,-16.6287 L 15.9645,-16.5198
 L 16.1474,-16.3869 L 16.3121,-16.2322 L 16.4562,-16.058 L 16.5773,-15.8671 L 16.6736,-15.6626 L 16.7434,-15.4476
 L 16.7858,-15.2256 L 16.8,-15 L 16.7858,-14.7744 L 16.7434,-14.5524 L 16.6736,-14.3374 L 16.5773,-14.1328
 L 16.4562,-13.942 L 16.3121,-13.7678 L 16.1474,-13.6131 L 15.9645,-13.4802 L 15.7664,-13.3713 L 15.5562,-13.2881
 L 15.3373,-13.2319 L 15.113,-13.2036 z
M 114.887,-13.2036 L 114.663,-13.2319 L 114.444,-13.2881 L 114.234,-13.3713 L 114.036,-13.4802 L 113.853,-13.6131
 L 113.688,-13.7678 L 113.544,-13.942 L 113.423,-14.1328 L 113.326,-14.3374 L 113.257,-14.5524 L 113.214,-14.7744
 L 113.2,-15 L 113.214,-15.2256 L 113.257,-15.4476 L 113.326,-15.6626 L 113.423,-15.8671 L 113.544,-16.058
 L 113.688,-16.2322 L 113.853,-16.3869 L 114.036,-16.5198 L 114.234,-16.6287 L 114.444,-16.7119 L 114.663,-16.7681
 L 114.887,-16.7964 L 115.113,-16.7964 L 115.337,-16.7681 L 115.556,-16.7119 L 115.766,-16.6287 L 115.964,-16.5198
 L 116.147,-16.3869 L 116.312,-16.2322 L 116.456,-16.058 L 116.577,-15.8671 L 116.674,-15.6626 L 116.743,-15.4476
 L 116.786,-15.2256 L 116.8,-15 L 116.786,-14.7744 L 116.743,-14.5524 L 116.674,-14.3374 L 116.577,-14.1328
 L 116.456,-13.942 L 116.312,-13.7678 L 116.147,-13.6131 L 115.964,-13.4802 L 115.766,-13.3713 L 115.556,-13.2881
 L 115.337,-13.2319 L 115.113,-13.2036 z
M 98.9953,15.9684 L 97.0019,15.7166 L 95.0557,15.2169 L 93.1875,14.4772 L 91.4268,13.5092 L 89.8012,12.3282
 L 88.3365,10.9527 L 87.0557,9.40456 L 85.9791,7.70805 L 85.1236,5.88998 L 84.5027,3.97903 L 84.1262,2.00533
 L 84,-0 L 84.1262,-2.00533 L 84.5027,-3.97903 L 85.1236,-5.88998 L 85.9791,-7.70805 L 87.0557,-9.40456
 L 88.3365,-10.9527 L 89.8012,-12.3282 L 91.4268,-13.5092 L 93.1875,-14.4772 L 95.0557,-15.2169 L 97.0019,-15.7166
 L 98.9953,-15.9684 L 101.005,-15.9684 L 102.998,-15.7166 L 104.944,-15.2169 L 106.812,-14.4772 L 108.573,-13.5092
 L 110.199,-12.3282 L 111.663,-10.9527 L 112.944,-9.40456 L 114.021,-7.70805 L 114.876,-5.88998 L 115.497,-3.97903
 L 115.874,-2.00533 L 116,-0 L 115.874,2.00533 L 115.497,3.97903 L 114.876,5.88998 L 114.021,7.70805
 L 112.944,9.40456 L 111.663,10.9527 L 110.199,12.3282 L 108.573,13.5092 L 106.812,14.4772 L 104.944,15.2169
 L 102.998,15.7166 L 101.005,15.9684 z
M 102.342,12.2786 L 103.863,11.8882 L 105.322,11.3103 L 106.698,10.5541 L 107.968,9.63141 L 109.112,8.55682
 L 110.113,7.34731 L 110.954,6.02191 L 111.622,4.60155 L 112.107,3.10861 L 112.401,1.56665 L 112.5,-0
 L 112.401,-1.56665 L 112.107,-3.10861 L 111.622,-4.60155 L 110.954,-6.02191 L 110.113,-7.34731 L 109.112,-8.55682
 L 107.968,-9.63141 L 106.698,-10.5541 L 105.322,-11.3103 L 103.863,-11.8882 L 102.342,-12.2786 L 100.785,-12.4753
 L 99.2151,-12.4753 L 97.6577,-12.2786 L 96.1373,-11.8882 L 94.6777,-11.3103 L 93.3022,-10.5541 L 92.0322,-9.63141
 L 90.8879,-8.55682 L 89.8873,-7.34731 L 89.0462,-6.02191 L 88.3778,-4.60155 L 87.8927,-3.10861 L 87.5986,-1.56665
 L 87.5,-0 L 87.5986,1.56665 L 87.8927,3.10861 L 88.3778,4.60155 L 89.0462,6.02191 L 89.8873,7.34731
 L 90.8879,8.55682 L 92.0322,9.63141 L 93.3022,10.5541 L 94.6777,11.3103 L 96.1373,11.8882 L 97.6577,12.2786
 L 99.2151,12.4753 L 100.785,12.4753 z
M -1.00464,15.9684 L -2.99809,15.7166 L -4.94426,15.2169 L -6.81245,14.4772 L -8.57323,13.5092 L -10.1988,12.3282
 L -11.6635,10.9527 L -12.9443,9.40456 L -14.0209,7.70805 L -14.8764,5.88998 L -15.4973,3.97903 L -15.8738,2.00533
 L -16,-0 L -15.8738,-2.00533 L -15.4973,-3.97903 L -14.8764,-5.88998 L -14.0209,-7.70805 L -12.9443,-9.40456
 L -11.6635,-10.9527 L -10.1988,-12.3282 L -8.57323,-13.5092 L -6.81245,-14.4772 L -4.94426,-15.2169 L -2.99809,-15.7166
 L -1.00464,-15.9684 L 1.00464,-15.9684 L 2.99809,-15.7166 L 4.94426,-15.2169 L 6.81245,-14.4772 L 8.57323,-13.5092
 L 10.1988,-12.3282 L 11.6635,-10.9527 L 12.9443,-9.40456 L 14.0209,-7.70805 L 14.8764,-5.88998 L 15.4973,-3.97903
 L 15.8738,-2.00533 L 16,-0 L 15.8738,2.00533 L 15.4973,3.97903 L 14.8764,5.88998 L 14.0209,7.70805
 L 12.9443,9.40456 L 11.6635,10.9527 L 10.1988,12.3282 L 8.57323,13.5092 L 6.81245,14.4772 L 4.94426,15.2169
 L 2.99809,15.7166 L 1.00464,15.9684 z
M 2.34225,12.2786 L 3.8627,11.8882 L 5.32224,11.3103 L 6.69783,10.5541 L 7.96779,9.63141 L 9.11211,8.55682
 L 10.1127,7.34731 L 10.9538,6.02191 L 11.6222,4.60155 L 12.1073,3.10861 L 12.4014,1.56665 L 12.5,-0
 L 12.4014,-1.56665 L 12.1073,-3.10861 L 11.6222,-4.60155 L 10.9538,-6.02191 L 10.1127,-7.34731 L 9.11211,-8.55682
 L 7.96779,-9.63141 L 6.69783,-10.5541 L 5.32224,-11.3103 L 3.8627,-11.8882 L 2.34225,-12.2786 L 0.784866,-12.4753
 L -0.784866,-12.4753 L -2.34225,-12.2786 L -3.8627,-11.8882 L -5.32224,-11.3103 L -6.69783,-10.5541 L -7.96779,-9.63141
 L -9.11211,-8.55682 L -10.1127,-7.34731 L -10.9538,-6.02191 L -11.6222,-4.60155 L -12.1073,-3.10861 L -12.4014,-1.56665
 L -12.5,-0 L -12.4014,1.56665 L -12.1073,3.10861 L -11.6222,4.60155 L -10.9538,6.02191 L -10.1127,7.34731
 L -9.11211,8.55682 L -7.96779,9.63141 L -6.69783,10.5541 L -5.32224,11.3103 L -3.8627,11.8882 L -2.34225,12.2786
 L -0.784866,12.4753 L 0.784866,12.4753 z
M 48.7881,-7.07083 L 48.4144,-7.11806 L 48.0494,-7.21175 L 47.6992,-7.35043 L 47.369,-7.53194 L 47.0642,-7.75337
 L 46.7896,-8.01128 L 46.5494,-8.30156 L 46.3476,-8.61966 L 46.1872,-8.96054 L 46.0707,-9.31885 L 46.0002,-9.68892
 L 45.9765,-10.0649 L 46.0002,-10.4409 L 46.0707,-10.811 L 46.1872,-11.1693 L 46.3476,-11.5102 L 46.5494,-11.8283
 L 46.7896,-12.1186 L 47.0642,-12.3765 L 47.369,-12.5979 L 47.6992,-12.7794 L 48.0494,-12.9181 L 48.4144,-13.0118
 L 48.7881,-13.059 L 49.1649,-13.059 L 49.5386,-13.0118 L 49.9035,-12.9181 L 50.2538,-12.7794 L 50.584,-12.5979
 L 50.8888,-12.3765 L 51.1634,-12.1186 L 51.4035,-11.8283 L 51.6054,-11.5102 L 51.7658,-11.1693 L 51.8822,-10.811
 L 51.9528,-10.4409 L 51.9765,-10.0649 L 51.9528,-9.68892 L 51.8822,-9.31885 L 51.7658,-8.96054 L 51.6054,-8.61966
 L 51.4035,-8.30156 L 51.1634,-8.01128 L 50.8888,-7.75337 L 50.584,-7.53194 L 50.2538,-7.35043 L 49.9035,-7.21175
 L 49.5386,-7.11806 L 49.1649,-7.07083 z
M 148.788,-7.07083 L 148.414,-7.11806 L 148.049,-7.21175 L 147.699,-7.35043 L 147.369,-7.53194 L 147.064,-7.75337
 L 146.79,-8.01128 L 146.549,-8.30156 L 146.348,-8.61966 L 146.187,-8.96054 L 146.071,-9.31885 L 146,-9.68892
 L 145.977,-10.0649 L 146,-10.4409 L 146.071,-10.811 L 146.187,-11.1693 L 146.348,-11.5102 L 146.549,-11.8283
 L 146.79,-12.1186 L 147.064,-12.3765 L 147.369,-12.5979 L 147.699,-12.7794 L 148.049,-12.9181 L 148.414,-13.0118
 L 148.788,-13.059 L 149.165,-13.059 L 149.539,-13.0118 L 149.904,-12.9181 L 150.254,-12.7794 L 150.584,-12.5979
 L 150.889,-12.3765 L 151.163,-12.1186 L 151.404,-11.8283 L 151.605,-11.5102 L 151.766,-11.1693 L 151.882,-10.811
 L 151.953,-10.4409 L 151.977,-10.0649 L 151.953,-9.68892 L 151.882,-9.31885 L 151.766,-8.96054 L 151.605,-8.61966
 L 151.404,-8.30156 L 151.163,-8.01128 L 150.889,-7.75337 L 150.584,-7.53194 L 150.254,-7.35043 L 149.904,-7.21175
 L 149.539,-7.11806 L 149.165,-7.07083 z
M 129.466,8.48322 L 128.407,8.34944 L 127.373,8.08397 L 126.381,7.69102 L 125.445,7.17677 L 124.582,6.54936
 L 123.804,5.81865 L 123.123,4.99617 L 122.551,4.09489 L 122.097,3.12904 L 121.767,2.11386 L 121.567,1.06532
 L 121.5,-0 L 121.567,-1.06532 L 121.767,-2.11386 L 122.097,-3.12904 L 122.551,-4.09489 L 123.123,-4.99617
 L 123.804,-5.81865 L 124.582,-6.54936 L 125.445,-7.17677 L 126.381,-7.69102 L 127.373,-8.08397 L 128.407,-8.34944
 L 129.466,-8.48322 L 130.534,-8.48322 L 131.593,-8.34944 L 132.627,-8.08397 L 133.619,-7.69102 L 134.555,-7.17677
 L 135.418,-6.54936 L 136.196,-5.81865 L 136.877,-4.99617 L 137.449,-4.09489 L 137.903,-3.12904 L 138.233,-2.11386
 L 138.433,-1.06532 L 138.5,-0 L 138.433,1.06532 L 138.233,2.11386 L 137.903,3.12904 L 137.449,4.09489
 L 136.877,4.99617 L 136.196,5.81865 L 135.418,6.54936 L 134.555,7.17677 L 133.619,7.69102 L 132.627,8.08397
 L 131.593,8.34944 L 130.534,8.48322 z
M 29.4663,8.48322 L 28.4073,8.34944 L 27.3734,8.08397 L 26.3809,7.69102 L 25.4455,7.17677 L 24.5819,6.54936
 L 23.8038,5.81865 L 23.1234,4.99617 L 22.5514,4.09489 L 22.0969,3.12904 L 21.767,2.11386 L 21.567,1.06532
 L 21.5,-0 L 21.567,-1.06532 L 21.767,-2.11386 L 22.0969,-3.12904 L 22.5514,-4.09489 L 23.1234,-4.99617
 L 23.8038,-5.81865 L 24.5819,-6.54936 L 25.4455,-7.17677 L 26.3809,-7.69102 L 27.3734,-8.08397 L 28.4073,-8.34944
 L 29.4663,-8.48322 L 30.5337,-8.48322 L 31.5927,-8.34944 L 32.6266,-8.08397 L 33.6191,-7.69102 L 34.5545,-7.17677
 L 35.4181,-6.54936 L 36.1962,-5.81865 L 36.8766,-4.99617 L 37.4486,-4.09489 L 37.9031,-3.12904 L 38.233,-2.11386
 L 38.433,-1.06532 L 38.5,-0 L 38.433,1.06532 L 38.233,2.11386 L 37.9031,3.12904 L 37.4486,4.09489
 L 36.8766,4.99617 L 36.1962,5.81865 L 35.4181,6.54936 L 34.5545,7.17677 L 33.6191,7.69102 L 32.6266,8.08397
 L 31.5927,8.34944 L 30.5337,8.48322 z
M -30.5337,8.48322 L -31.5927,8.34944 L -32.6266,8.08397 L -33.6191,7.69102 L -34.5545,7.17677 L -35.4181,6.54936
 L -36.1962,5.81865 L -36.8766,4.99617 L -37.4486,4.09489 L -37.9031,3.12904 L -38.233,2.11386 L -38.433,1.06532
 L -38.5,-0 L -38.433,-1.06532 L -38.233,-2.11386 L -37.9031,-3.12904 L -37.4486,-4.09489 L -36.8766,-4.99617
 L -36.1962,-5.81865 L -35.4181,-6.54936 L -34.5545,-7.17677 L -33.6191,-7.69102 L -32.6266,-8.08397 L -31.5927,-8.34944
 L -30.5337,-8.48322 L -29.4663,-8.48322 L -28.4073,-8.34944 L -27.3734,-8.08397 L -26.3809,-7.69102 L -25.4455,-7.17677
 L -24.5819,-6.54936 L -23.8038,-5.81865 L -23.1234,-4.99617 L -22.5514,-4.09489 L -22.0969,-3.12904 L -21.767,-2.11386
 L -21.567,-1.06532 L -21.5,-0 L -21.567,1.06532 L -21.767,2.11386 L -22.0969,3.12904 L -22.5514,4.09489
 L -23.1234,4.99617 L -23.8038,5.81865 L -24.5819,6.54936 L -25.4455,7.17677 L -26.3809,7.69102 L -27.3734,8.08397
 L -28.4073,8.34944 L -29.4663,8.48322 z
M 69.4663,8.48322 L 68.4073,8.34944 L 67.3734,8.08397 L 66.5128,7.74327 L 67,-0 L 66.5128,-7.74327
 L 67.3734,-8.08397 L 68.4073,-8.34944 L 69.4663,-8.48322 L 70.5337,-8.48322 L 71.5927,-8.34944 L 72.6266,-8.08397
 L 73.6191,-7.69102 L 74.5545,-7.17677 L 75.4181,-6.54936 L 76.1962,-5.81865 L 76.8766,-4.99617 L 77.4486,-4.09489
 L 77.9031,-3.12904 L 78.233,-2.11386 L 78.433,-1.06532 L 78.5,-0 L 78.433,1.06532 L 78.233,2.11386
 L 77.9031,3.12904 L 77.4486,4.09489 L 76.8766,4.99617 L 76.1962,5.81865 L 75.4181,6.54936 L 74.5545,7.17677
 L 73.6191,7.69102 L 72.6266,8.08397 L 71.5927,8.34944 L 70.5337,8.48322 z
M -49.9318,-2.06433 L -50.3056,-2.11154 L -50.6705,-2.20525 L -51.0208,-2.34393 L -51.3509,-2.52542 L -51.6557,-2.74687
 L -51.9304,-3.00476 L -52.1705,-3.29506 L -52.3724,-3.61314 L -52.5328,-3.95404 L -52.6492,-4.31233 L -52.7198,-4.6824
 L -52.7435,-5.05841 L -52.7198,-5.4344 L -52.6492,-5.80447 L -52.5328,-6.16278 L -52.3724,-6.50366 L -52.1705,-6.82176
 L -51.9304,-7.11205 L -51.6557,-7.36995 L -51.3509,-7.59138 L -51.0208,-7.77289 L -50.6705,-7.91158 L -50.3056,-8.00526
 L -49.9318,-8.05249 L -49.5551,-8.05249 L -49.1813,-8.00526 L -48.8164,-7.91158 L -48.4661,-7.77289 L -48.136,-7.59138
 L -47.8312,-7.36995 L -47.5565,-7.11205 L -47.3164,-6.82176 L -47.1145,-6.50366 L -46.9541,-6.16278 L -46.8377,-5.80447
 L -46.7671,-5.4344 L -46.7435,-5.05841 L -46.7671,-4.6824 L -46.8377,-4.31233 L -46.9541,-3.95404 L -47.1145,-3.61314
 L -47.3164,-3.29506 L -47.5565,-3.00476 L -47.8312,-2.74687 L -48.136,-2.52542 L -48.4661,-2.34393 L -48.8164,-2.20525
 L -49.1813,-2.11154 L -49.5551,-2.06433 z
M 49.8116,2.99408 L 49.4379,2.94685 L 49.0729,2.85316 L 48.7227,2.71448 L 48.3925,2.53297 L 48.0877,2.31154
 L 47.8131,2.05363 L 47.5729,1.76335 L 47.3711,1.44525 L 47.2107,1.10437 L 47.0942,0.746063 L 47.0237,0.375992
 L 47,-0 L 47.0237,-0.375992 L 47.0942,-0.746063 L 47.2107,-1.10437 L 47.3711,-1.44525 L 47.5729,-1.76335
 L 47.8131,-2.05363 L 48.0877,-2.31154 L 48.3925,-2.53297 L 48.7227,-2.71448 L 49.0729,-2.85316 L 49.4379,-2.94685
 L 49.8116,-2.99408 L 50.1884,-2.99408 L 50.5621,-2.94685 L 50.927,-2.85316 L 51.2773,-2.71448 L 51.6075,-2.53297
 L 51.9123,-2.31154 L 52.1869,-2.05363 L 52.427,-1.76335 L 52.6289,-1.44525 L 52.7893,-1.10437 L 52.9057,-0.746063
 L 52.9763,-0.375992 L 53,-0 L 52.9763,0.375992 L 52.9057,0.746063 L 52.7893,1.10437 L 52.6289,1.44525
 L 52.427,1.76335 L 52.1869,2.05363 L 51.9123,2.31154 L 51.6075,2.53297 L 51.2773,2.71448 L 50.927,2.85316
 L 50.5621,2.94685 L 50.1884,2.99408 z
M 149.812,2.99408 L 149.438,2.94685 L 149.073,2.85316 L 148.723,2.71448 L 148.393,2.53297 L 148.088,2.31154
 L 147.813,2.05363 L 147.573,1.76335 L 147.371,1.44525 L 147.211,1.10437 L 147.094,0.746063 L 147.024,0.375992
 L 147,-0 L 147.024,-0.375992 L 147.094,-0.746063 L 147.211,-1.10437 L 147.371,-1.44525 L 147.573,-1.76335
 L 147.813,-2.05363 L 148.088,-2.31154 L 148.393,-2.53297 L 148.723,-2.71448 L 149.073,-2.85316 L 149.438,-2.94685
 L 149.812,-2.99408 L 150.188,-2.99408 L 150.562,-2.94685 L 150.927,-2.85316 L 151.277,-2.71448 L 151.607,-2.53297
 L 151.912,-2.31154 L 152.187,-2.05363 L 152.427,-1.76335 L 152.629,-1.44525 L 152.789,-1.10437 L 152.906,-0.746063
 L 152.976,-0.375992 L 153,-0 L 152.976,0.375992 L 152.906,0.746063 L 152.789,1.10437 L 152.629,1.44525
 L 152.427,1.76335 L 152.187,2.05363 L 151.912,2.31154 L 151.607,2.53297 L 151.277,2.71448 L 150.927,2.85316
 L 150.562,2.94685 L 150.188,2.99408 z
M -60.1884,2.99408 L -60.5621,2.94685 L -60.927,2.85316 L -61.2773,2.71448 L -61.6075,2.53297 L -61.9123,2.31154
 L -62.1869,2.05363 L -62.427,1.76335 L -62.6289,1.44525 L -62.7893,1.10437 L -62.9057,0.746063 L -62.9763,0.375992
 L -63,-0 L -62.9763,-0.375992 L -62.9057,-0.746063 L -62.7893,-1.10437 L -62.6289,-1.44525 L -62.427,-1.76335
 L -62.1869,-2.05363 L -61.9123,-2.31154 L -61.6075,-2.53297 L -61.2773,-2.71448 L -60.927,-2.85316 L -60.5621,-2.94685
 L -60.1884,-2.99408 L -59.8116,-2.99408 L -59.4379,-2.94685 L -59.0729,-2.85316 L -58.7227,-2.71448 L -58.3925,-2.53297
 L -58.0877,-2.31154 L -57.8131,-2.05363 L -57.5729,-1.76335 L -57.3711,-1.44525 L -57.2107,-1.10437 L -57.0942,-0.746063
 L -57.0237,-0.375992 L -57,-0 L -57.0237,0.375992 L -57.0942,0.746063 L -57.2107,1.10437 L -57.3711,1.44525
 L -57.5729,1.76335 L -57.8131,2.05363 L -58.0877,2.31154 L -58.3925,2.53297 L -58.7227,2.71448 L -59.0729,2.85316
 L -59.4379,2.94685 L -59.8116,2.99408 z
M 159.812,2.99408 L 159.438,2.94685 L 159.073,2.85316 L 158.723,2.71448 L 158.393,2.53297 L 158.088,2.31154
 L 157.813,2.05363 L 157.573,1.76335 L 157.371,1.44525 L 157.211,1.10437 L 157.094,0.746063 L 157.024,0.375992
 L 157,-0 L 157.024,-0.375992 L 157.094,-0.746063 L 157.211,-1.10437 L 157.371,-1.44525 L 157.573,-1.76335
 L 157.813,-2.05363 L 158.088,-2.31154 L 158.393,-2.53297 L 158.723,-2.71448 L 159.073,-2.85316 L 159.438,-2.94685
 L 159.812,-2.99408 L 160.188,-2.99408 L 160.562,-2.94685 L 160.927,-2.85316 L 161.277,-2.71448 L 161.607,-2.53297
 L 161.912,-2.31154 L 162.187,-2.05363 L 162.427,-1.76335 L 162.629,-1.44525 L 162.789,-1.10437 L 162.906,-0.746063
 L 162.976,-0.375992 L 163,-0 L 162.976,0.375992 L 162.906,0.746063 L 162.789,1.10437 L 162.629,1.44525
 L 162.427,1.76335 L 162.187,2.05363 L 161.912,2.31154 L 161.607,2.53297 L 161.277,2.71448 L 160.927,2.85316
 L 160.562,2.94685 L 160.188,2.99408 z
M 59.8116,2.99408 L 59.4379,2.94685 L 59.0729,2.85316 L 58.7227,2.71448 L 58.3925,2.53297 L 58.0877,2.31154
 L 57.8131,2.05363 L 57.5729,1.76335 L 57.3711,1.44525 L 57.2107,1.10437 L 57.0942,0.746063 L 57.0237,0.375992
 L 57,-0 L 57.0237,-0.375992 L 57.0942,-0.746063 L 57.2107,-1.10437 L 57.3711,-1.44525 L 57.5729,-1.76335
 L 57.8131,-2.05363 L 58.0877,-2.31154 L 58.3925,-2.53297 L 58.7227,-2.71448 L 59.0729,-2.85316 L 59.4379,-2.94685
 L 59.8116,-2.99408 L 60.1884,-2.99408 L 60.5621,-2.94685 L 60.927,-2.85316 L 61.2773,-2.71448 L 61.6075,-2.53297
 L 61.9123,-2.31154 L 62.1869,-2.05363 L 62.427,-1.76335 L 62.6289,-1.44525 L 62.7893,-1.10437 L 62.9057,-0.746063
 L 62.9763,-0.375992 L 63,-0 L 62.9763,0.375992 L 62.9057,0.746063 L 62.7893,1.10437 L 62.6289,1.44525
 L 62.427,1.76335 L 62.1869,2.05363 L 61.9123,2.31154 L 61.6075,2.53297 L 61.2773,2.71448 L 60.927,2.85316
 L 60.5621,2.94685 L 60.1884,2.99408 z
M -49.9318,8.05249 L -50.3056,8.00526 L -50.6705,7.91158 L -51.0208,7.77289 L -51.3509,7.59138 L -51.6557,7.36995
 L -51.9304,7.11205 L -52.1705,6.82176 L -52.3724,6.50366 L -52.5328,6.16278 L -52.6492,5.80447 L -52.7198,5.4344
 L -52.7435,5.05841 L -52.7198,4.6824 L -52.6492,4.31233 L -52.5328,3.95404 L -52.3724,3.61314 L -52.1705,3.29506
 L -51.9304,3.00476 L -51.6557,2.74687 L -51.3509,2.52542 L -51.0208,2.34393 L -50.6705,2.20525 L -50.3056,2.11154
 L -49.9318,2.06433 L -49.5551,2.06433 L -49.1813,2.11154 L -48.8164,2.20525 L -48.4661,2.34393 L -48.136,2.52542
 L -47.8312,2.74687 L -47.5565,3.00476 L -47.3164,3.29506 L -47.1145,3.61314 L -46.9541,3.95404 L -46.8377,4.31233
 L -46.7671,4.6824 L -46.7435,5.05841 L -46.7671,5.4344 L -46.8377,5.80447 L -46.9541,6.16278 L -47.1145,6.50366
 L -47.3164,6.82176 L -47.5565,7.11205 L -47.8312,7.36995 L -48.136,7.59138 L -48.4661,7.77289 L -48.8164,7.91158
 L -49.1813,8.00526 L -49.5551,8.05249 z
M 148.788,13.059 L 148.414,13.0118 L 148.049,12.9181 L 147.699,12.7794 L 147.369,12.5979 L 147.064,12.3765
 L 146.79,12.1186 L 146.549,11.8283 L 146.348,11.5102 L 146.187,11.1693 L 146.071,10.811 L 146,10.4409
 L 145.977,10.0649 L 146,9.68892 L 146.071,9.31885 L 146.187,8.96054 L 146.348,8.61966 L 146.549,8.30156
 L 146.79,8.01128 L 147.064,7.75337 L 147.369,7.53194 L 147.699,7.35043 L 148.049,7.21175 L 148.414,7.11806
 L 148.788,7.07083 L 149.165,7.07083 L 149.539,7.11806 L 149.904,7.21175 L 150.254,7.35043 L 150.584,7.53194
 L 150.889,7.75337 L 151.163,8.01128 L 151.404,8.30156 L 151.605,8.61966 L 151.766,8.96054 L 151.882,9.31885
 L 151.953,9.68892 L 151.977,10.0649 L 151.953,10.4409 L 151.882,10.811 L 151.766,11.1693 L 151.605,11.5102
 L 151.404,11.8283 L 151.163,12.1186 L 150.889,12.3765 L 150.584,12.5979 L 150.254,12.7794 L 149.904,12.9181
 L 149.539,13.0118 L 149.165,13.059 z
M 48.7881,13.059 L 48.4144,13.0118 L 48.0494,12.9181 L 47.6992,12.7794 L 47.369,12.5979 L 47.0642,12.3765
 L 46.7896,12.1186 L 46.5494,11.8283 L 46.3476,11.5102 L 46.1872,11.1693 L 46.0707,10.811 L 46.0002,10.4409
 L 45.9765,10.0649 L 46.0002,9.68892 L 46.0707,9.31885 L 46.1872,8.96054 L 46.3476,8.61966 L 46.5494,8.30156
 L 46.7896,8.01128 L 47.0642,7.75337 L 47.369,7.53194 L 47.6992,7.35043 L 48.0494,7.21175 L 48.4144,7.11806
 L 48.7881,7.07083 L 49.1649,7.07083 L 49.5386,7.11806 L 49.9035,7.21175 L 50.2538,7.35043 L 50.584,7.53194
 L 50.8888,7.75337 L 51.1634,8.01128 L 51.4035,8.30156 L 51.6054,8.61966 L 51.7658,8.96054 L 51.8822,9.31885
 L 51.9528,9.68892 L 51.9765,10.0649 L 51.9528,10.4409 L 51.8822,10.811 L 51.7658,11.1693 L 51.6054,11.5102
 L 51.4035,11.8283 L 51.1634,12.1186 L 50.8888,12.3765 L 50.584,12.5979 L 50.2538,12.7794 L 49.9035,12.9181
 L 49.5386,13.0118 L 49.1649,13.059 z
M -47.8953,17.9622 L -48.2691,17.915 L -48.634,17.8213 L -48.9843,17.6826 L -49.3144,17.5011 L -49.6192,17.2797
 L -49.8939,17.0218 L -50.134,16.7315 L -50.3359,16.4134 L -50.4963,16.0725 L -50.6127,15.7142 L -50.6833,15.3441
 L -50.707,14.9682 L -50.6833,14.5921 L -50.6127,14.2221 L -50.4963,13.8638 L -50.3359,13.5229 L -50.134,13.2048
 L -49.8939,12.9145 L -49.6192,12.6566 L -49.3144,12.4352 L -48.9843,12.2537 L -48.634,12.115 L -48.2691,12.0213
 L -47.8953,11.9741 L -47.5186,11.9741 L -47.1448,12.0213 L -46.7799,12.115 L -46.4296,12.2537 L -46.0995,12.4352
 L -45.7947,12.6566 L -45.5201,12.9145 L -45.2799,13.2048 L -45.078,13.5229 L -44.9176,13.8638 L -44.8012,14.2221
 L -44.7306,14.5921 L -44.707,14.9682 L -44.7306,15.3441 L -44.8012,15.7142 L -44.9176,16.0725 L -45.078,16.4134
 L -45.2799,16.7315 L -45.5201,17.0218 L -45.7947,17.2797 L -46.0995,17.5011 L -46.4296,17.6826 L -46.7799,17.8213
 L -47.1448,17.915 L -47.5186,17.9622 z
M 14.887,16.7964 L 14.6627,16.7681 L 14.4438,16.7119 L 14.2336,16.6287 L 14.0355,16.5198 L 13.8526,16.3869
 L 13.6879,16.2322 L 13.5438,16.058 L 13.4226,15.8671 L 13.3264,15.6626 L 13.2565,15.4476 L 13.2142,15.2256
 L 13.2,15 L 13.2142,14.7744 L 13.2565,14.5524 L 13.3264,14.3374 L 13.4226,14.1328 L 13.5438,13.942
 L 13.6879,13.7678 L 13.8526,13.6131 L 14.0355,13.4802 L 14.2336,13.3713 L 14.4438,13.2881 L 14.6627,13.2319
 L 14.887,13.2036 L 15.113,13.2036 L 15.3373,13.2319 L 15.5562,13.2881 L 15.7664,13.3713 L 15.9645,13.4802
 L 16.1474,13.6131 L 16.3121,13.7678 L 16.4562,13.942 L 16.5773,14.1328 L 16.6736,14.3374 L 16.7434,14.5524
 L 16.7858,14.7744 L 16.8,15 L 16.7858,15.2256 L 16.7434,15.4476 L 16.6736,15.6626 L 16.5773,15.8671
 L 16.4562,16.058 L 16.3121,16.2322 L 16.1474,16.3869 L 15.9645,16.5198 L 15.7664,16.6287 L 15.5562,16.7119
 L 15.3373,16.7681 L 15.113,16.7964 z
M 114.887,16.7964 L 114.663,16.7681 L 114.444,16.7119 L 114.234,16.6287 L 114.036,16.5198 L 113.853,16.3869
 L 113.688,16.2322 L 113.544,16.058 L 113.423,15.8671 L 113.326,15.6626 L 113.257,15.4476 L 113.214,15.2256
 L 113.2,15 L 113.214,14.7744 L 113.257,14.5524 L 113.326,14.3374 L 113.423,14.1328 L 113.544,13.942
 L 113.688,13.7678 L 113.853,13.6131 L 114.036,13.4802 L 114.234,13.3713 L 114.444,13.2881 L 114.663,13.2319
 L 114.887,13.2036 L 115.113,13.2036 L 115.337,13.2319 L 115.556,13.2881 L 115.766,13.3713 L 115.964,13.4802
 L 116.147,13.6131 L 116.312,13.7678 L 116.456,13.942 L 116.577,14.1328 L 116.674,14.3374 L 116.743,14.5524
 L 116.786,14.7744 L 116.8,15 L 116.786,15.2256 L 116.743,15.4476 L 116.674,15.6626 L 116.577,15.8671
 L 116.456,16.058 L 116.312,16.2322 L 116.147,16.3869 L 115.964,16.5198 L 115.766,16.6287 L 115.556,16.7119
 L 115.337,16.7681 L 115.113,16.7964 z
M 84.887,16.7964 L 84.6627,16.7681 L 84.4438,16.7119 L 84.2336,16.6287 L 84.0355,16.5198 L 83.8526,16.3869
 L 83.6879,16.2322 L 83.5438,16.058 L 83.4226,15.8671 L 83.3264,15.6626 L 83.2565,15.4476 L 83.2142,15.2256
 L 83.2,15 L 83.2142,14.7744 L 83.2565,14.5524 L 83.3264,14.3374 L 83.4226,14.1328 L 83.5438,13.942
 L 83.6879,13.7678 L 83.8526,13.6131 L 84.0355,13.4802 L 84.2336,13.3713 L 84.4438,13.2881 L 84.6627,13.2319
 L 84.887,13.2036 L 85.113,13.2036 L 85.3373,13.2319 L 85.5562,13.2881 L 85.7664,13.3713 L 85.9645,13.4802
 L 86.1474,13.6131 L 86.3121,13.7678 L 86.4562,13.942 L 86.5773,14.1328 L 86.6736,14.3374 L 86.7434,14.5524
 L 86.7858,14.7744 L 86.8,15 L 86.7858,15.2256 L 86.7434,15.4476 L 86.6736,15.6626 L 86.5773,15.8671
 L 86.4562,16.058 L 86.3121,16.2322 L 86.1474,16.3869 L 85.9645,16.5198 L 85.7664,16.6287 L 85.5562,16.7119
 L 85.3373,16.7681 L 85.113,16.7964 z
M -15.113,16.7964 L -15.3373,16.7681 L -15.5562,16.7119 L -15.7664,16.6287 L -15.9645,16.5198 L -16.1474,16.3869
 L -16.3121,16.2322 L -16.4562,16.058 L -16.5773,15.8671 L -16.6736,15.6626 L -16.7434,15.4476 L -16.7858,15.2256
 L -16.8,15 L -16.7858,14.7744 L -16.7434,14.5524 L -16.6736,14.3374 L -16.5773,14.1328 L -16.4562,13.942
 L -16.3121,13.7678 L -16.1474,13.6131 L -15.9645,13.4802 L -15.7664,13.3713 L -15.5562,13.2881 L -15.3373,13.2319
 L -15.113,13.2036 L -14.887,13.2036 L -14.6627,13.2319 L -14.4438,13.2881 L -14.2336,13.3713 L -14.0355,13.4802
 L -13.8526,13.6131 L -13.6879,13.7678 L -13.5438,13.942 L -13.4226,14.1328 L -13.3264,14.3374 L -13.2565,14.5524
 L -13.2142,14.7744 L -13.2,15 L -13.2142,15.2256 L -13.2565,15.4476 L -13.3264,15.6626 L -13.4226,15.8671
 L -13.5438,16.058 L -13.6879,16.2322 L -13.8526,16.3869 L -14.0355,16.5198 L -14.2336,16.6287 L -14.4438,16.7119
 L -14.6627,16.7681 L -14.887,16.7964 z
M 145.76,22.7119 L 145.386,22.6646 L 145.021,22.571 L 144.671,22.4323 L 144.34,22.2508 L 144.036,22.0293
 L 143.761,21.7714 L 143.521,21.4811 L 143.319,21.163 L 143.159,20.8222 L 143.042,20.4639 L 142.972,20.0938
 L 142.948,19.7178 L 142.972,19.3418 L 143.042,18.9717 L 143.159,18.6134 L 143.319,18.2725 L 143.521,17.9544
 L 143.761,17.6641 L 144.036,17.4062 L 144.34,17.1848 L 144.671,17.0033 L 145.021,16.8646 L 145.386,16.7709
 L 145.76,16.7237 L 146.136,16.7237 L 146.51,16.7709 L 146.875,16.8646 L 147.225,17.0033 L 147.555,17.1848
 L 147.86,17.4062 L 148.135,17.6641 L 148.375,17.9544 L 148.577,18.2725 L 148.737,18.6134 L 148.854,18.9717
 L 148.924,19.3418 L 148.948,19.7178 L 148.924,20.0938 L 148.854,20.4639 L 148.737,20.8222 L 148.577,21.163
 L 148.375,21.4811 L 148.135,21.7714 L 147.86,22.0293 L 147.555,22.2508 L 147.225,22.4323 L 146.875,22.571
 L 146.51,22.6646 L 146.136,22.7119 z
M 45.7595,22.7119 L 45.3857,22.6646 L 45.0208,22.571 L 44.6705,22.4323 L 44.3404,22.2508 L 44.0356,22.0293
 L 43.761,21.7714 L 43.5208,21.4811 L 43.319,21.163 L 43.1586,20.8222 L 43.0421,20.4639 L 42.9715,20.0938
 L 42.9479,19.7178 L 42.9715,19.3418 L 43.0421,18.9717 L 43.1586,18.6134 L 43.319,18.2725 L 43.5208,17.9544
 L 43.761,17.6641 L 44.0356,17.4062 L 44.3404,17.1848 L 44.6705,17.0033 L 45.0208,16.8646 L 45.3857,16.7709
 L 45.7595,16.7237 L 46.1363,16.7237 L 46.51,16.7709 L 46.8749,16.8646 L 47.2252,17.0033 L 47.5554,17.1848
 L 47.8602,17.4062 L 48.1348,17.6641 L 48.3749,17.9544 L 48.5768,18.2725 L 48.7372,18.6134 L 48.8536,18.9717
 L 48.9242,19.3418 L 48.9479,19.7178 L 48.9242,20.0938 L 48.8536,20.4639 L 48.7372,20.8222 L 48.5768,21.163
 L 48.3749,21.4811 L 48.1348,21.7714 L 47.8602,22.0293 L 47.5554,22.2508 L 47.2252,22.4323 L 46.8749,22.571
 L 46.51,22.6646 L 46.1363,22.7119 z
M -43.9057,27.2592 L -44.2795,27.212 L -44.6444,27.1183 L -44.9947,26.9796 L -45.3248,26.7981 L -45.6296,26.5766
 L -45.9042,26.3187 L -46.1444,26.0284 L -46.3463,25.7104 L -46.5067,25.3695 L -46.6231,25.0112 L -46.6937,24.6411
 L -46.7173,24.2651 L -46.6937,23.8891 L -46.6231,23.519 L -46.5067,23.1607 L -46.3463,22.8198 L -46.1444,22.5017
 L -45.9042,22.2115 L -45.6296,21.9536 L -45.3248,21.7321 L -44.9947,21.5506 L -44.6444,21.4119 L -44.2795,21.3182
 L -43.9057,21.271 L -43.5289,21.271 L -43.1552,21.3182 L -42.7903,21.4119 L -42.44,21.5506 L -42.1098,21.7321
 L -41.8051,21.9536 L -41.5304,22.2115 L -41.2903,22.5017 L -41.0884,22.8198 L -40.928,23.1607 L -40.8116,23.519
 L -40.741,23.8891 L -40.7173,24.2651 L -40.741,24.6411 L -40.8116,25.0112 L -40.928,25.3695 L -41.0884,25.7104
 L -41.2903,26.0284 L -41.5304,26.3187 L -41.8051,26.5766 L -42.1098,26.7981 L -42.44,26.9796 L -42.7903,27.1183
 L -43.1552,27.212 L -43.5289,27.2592 z
M -0.533707,38.4832 L -1.59273,38.3494 L -2.62663,38.084 L -3.61911,37.691 L -4.55452,37.1768 L -5.41809,36.5494
 L -6.19623,35.8186 L -6.87663,34.9962 L -7.44859,34.0949 L -7.90309,33.1291 L -8.23296,32.1139 L -8.43297,31.0653
 L -8.5,30 L -8.43297,28.9347 L -8.23296,27.8861 L -7.90309,26.8709 L -7.44859,25.9051 L -6.87663,25.0038
 L -6.19623,24.1814 L -5.41809,23.4506 L -4.55452,22.8232 L -3.61911,22.309 L -2.62663,21.916 L -1.59273,21.6506
 L -0.533707,21.5168 L 0.533707,21.5168 L 1.59273,21.6506 L 2.62663,21.916 L 3.61911,22.309 L 4.55452,22.8232
 L 5.41809,23.4506 L 6.19623,24.1814 L 6.87663,25.0038 L 7.44859,25.9051 L 7.90309,26.8709 L 8.23296,27.8861
 L 8.43297,28.9347 L 8.5,30 L 8.43297,31.0653 L 8.23296,32.1139 L 7.90309,33.1291 L 7.44859,34.0949
 L 6.87663,34.9962 L 6.19623,35.8186 L 5.41809,36.5494 L 4.55452,37.1768 L 3.61911,37.691 L 2.62663,38.084
 L 1.59273,38.3494 L 0.533707,38.4832 z
M 99.4663,38.4832 L 98.4073,38.3494 L 97.3734,38.084 L 96.3809,37.691 L 95.4455,37.1768 L 94.5819,36.5494
 L 93.8038,35.8186 L 93.1234,34.9962 L 92.5514,34.0949 L 92.0969,33.1291 L 91.767,32.1139 L 91.567,31.0653
 L 91.5,30 L 91.567,28.9347 L 91.767,27.8861 L 92.0969,26.8709 L 92.5514,25.9051 L 93.1234,25.0038
 L 93.8038,24.1814 L 94.5819,23.4506 L 95.4455,22.8232 L 96.3809,22.309 L 97.3734,21.916 L 98.4073,21.6506
 L 99.4663,21.5168 L 100.534,21.5168 L 101.593,21.6506 L 102.627,21.916 L 103.619,22.309 L 104.555,22.8232
 L 105.418,23.4506 L 106.196,24.1814 L 106.877,25.0038 L 107.449,25.9051 L 107.903,26.8709 L 108.233,27.8861
 L 108.433,28.9347 L 108.5,30 L 108.433,31.0653 L 108.233,32.1139 L 107.903,33.1291 L 107.449,34.0949
 L 106.877,34.9962 L 106.196,35.8186 L 105.418,36.5494 L 104.555,37.1768 L 103.619,37.691 L 102.627,38.084
 L 101.593,38.3494 L 100.534,38.4832 z
M 140.85,31.5575 L 140.476,31.5103 L 140.111,31.4166 L 139.761,31.2779 L 139.431,31.0964 L 139.126,30.8749
 L 138.851,30.6171 L 138.611,30.3268 L 138.409,30.0087 L 138.249,29.6678 L 138.132,29.3095 L 138.062,28.9394
 L 138.038,28.5634 L 138.062,28.1874 L 138.132,27.8173 L 138.249,27.459 L 138.409,27.1181 L 138.611,26.8
 L 138.851,26.5098 L 139.126,26.2519 L 139.431,26.0304 L 139.761,25.8489 L 140.111,25.7102 L 140.476,25.6165
 L 140.85,25.5693 L 141.227,25.5693 L 141.6,25.6165 L 141.965,25.7102 L 142.316,25.8489 L 142.646,26.0304
 L 142.95,26.2519 L 143.225,26.5098 L 143.465,26.8 L 143.667,27.1181 L 143.827,27.459 L 143.944,27.8173
 L 144.015,28.1874 L 144.038,28.5634 L 144.015,28.9394 L 143.944,29.3095 L 143.827,29.6678 L 143.667,30.0087
 L 143.465,30.3268 L 143.225,30.6171 L 142.95,30.8749 L 142.646,31.0964 L 142.316,31.2779 L 141.965,31.4166
 L 141.6,31.5103 L 141.227,31.5575 z
M 40.8498,31.5575 L 40.476,31.5103 L 40.1111,31.4166 L 39.7608,31.2779 L 39.4307,31.0964 L 39.1259,30.8749
 L 38.8513,30.6171 L 38.6111,30.3268 L 38.4092,30.0087 L 38.2488,29.6678 L 38.1324,29.3095 L 38.0618,28.9394
 L 38.0382,28.5634 L 38.0618,28.1874 L 38.1324,27.8173 L 38.2488,27.459 L 38.4092,27.1181 L 38.6111,26.8
 L 38.8513,26.5098 L 39.1259,26.2519 L 39.4307,26.0304 L 39.7608,25.8489 L 40.1111,25.7102 L 40.476,25.6165
 L 40.8498,25.5693 L 41.2265,25.5693 L 41.6003,25.6165 L 41.9652,25.7102 L 42.3155,25.8489 L 42.6456,26.0304
 L 42.9504,26.2519 L 43.2251,26.5098 L 43.4652,26.8 L 43.6671,27.1181 L 43.8275,27.459 L 43.9439,27.8173
 L 44.0145,28.1874 L 44.0382,28.5634 L 44.0145,28.9394 L 43.9439,29.3095 L 43.8275,29.6678 L 43.6671,30.0087
 L 43.4652,30.3268 L 43.2251,30.6171 L 42.9504,30.8749 L 42.6456,31.0964 L 42.3155,31.2779 L 41.9652,31.4166
 L 41.6003,31.5103 L 41.2265,31.5575 z
M -38.1263,35.5627 L -38.5,35.5155 L -38.8649,35.4218 L -39.2152,35.2831 L -39.5454,35.1016 L -39.8502,34.8802
 L -40.1248,34.6223 L -40.3649,34.332 L -40.5668,34.0139 L -40.7272,33.673 L -40.8436,33.3147 L -40.9142,32.9446
 L -40.9379,32.5686 L -40.9142,32.1926 L -40.8436,31.8225 L -40.7272,31.4642 L -40.5668,31.1234 L -40.3649,30.8053
 L -40.1248,30.515 L -39.8502,30.2571 L -39.5454,30.0356 L -39.2152,29.8541 L -38.8649,29.7155 L -38.5,29.6217
 L -38.1263,29.5745 L -37.7495,29.5745 L -37.3758,29.6217 L -37.0108,29.7155 L -36.6606,29.8541 L -36.3304,30.0356
 L -36.0256,30.2571 L -35.751,30.515 L -35.5108,30.8053 L -35.309,31.1234 L -35.1486,31.4642 L -35.0322,31.8225
 L -34.9616,32.1926 L -34.9379,32.5686 L -34.9616,32.9446 L -35.0322,33.3147 L -35.1486,33.673 L -35.309,34.0139
 L -35.5108,34.332 L -35.751,34.6223 L -36.0256,34.8802 L -36.3304,35.1016 L -36.6606,35.2831 L -37.0108,35.4218
 L -37.3758,35.5155 L -37.7495,35.5627 z
M 61.8737,35.5627 L 61.4999,35.5155 L 61.135,35.4218 L 60.7847,35.2831 L 60.4546,35.1016 L 60.1498,34.8802
 L 59.8752,34.6223 L 59.635,34.332 L 59.4332,34.0139 L 59.2728,33.673 L 59.1563,33.3147 L 59.0857,32.9446
 L 59.0621,32.5686 L 59.0857,32.1926 L 59.1563,31.8225 L 59.2728,31.4642 L 59.4332,31.1234 L 59.635,30.8053
 L 59.8752,30.515 L 60.1498,30.2571 L 60.4546,30.0356 L 60.7847,29.8541 L 61.135,29.7155 L 61.4999,29.6217
 L 61.8737,29.5745 L 62.2505,29.5745 L 62.6242,29.6217 L 62.9891,29.7155 L 63.3394,29.8541 L 63.6696,30.0356
 L 63.9744,30.2571 L 64.249,30.515 L 64.4891,30.8053 L 64.691,31.1234 L 64.8514,31.4642 L 64.9678,31.8225
 L 65.0384,32.1926 L 65.0621,32.5686 L 65.0384,32.9446 L 64.9678,33.3147 L 64.8514,33.673 L 64.691,34.0139
 L 64.4891,34.332 L 64.249,34.6223 L 63.9744,34.8802 L 63.6696,35.1016 L 63.3394,35.2831 L 62.9891,35.4218
 L 62.6242,35.5155 L 62.2505,35.5627 z
M 34.26,39.2337 L 33.8862,39.1865 L 33.5213,39.0928 L 33.171,38.9541 L 32.8409,38.7726 L 32.5361,38.5512
 L 32.2614,38.2933 L 32.0213,38.003 L 31.8194,37.6849 L 31.659,37.344 L 31.5426,36.9857 L 31.472,36.6156
 L 31.4483,36.2396 L 31.472,35.8636 L 31.5426,35.4936 L 31.659,35.1353 L 31.8194,34.7944 L 32.0213,34.4763
 L 32.2614,34.186 L 32.5361,33.9281 L 32.8409,33.7066 L 33.171,33.5251 L 33.5213,33.3865 L 33.8862,33.2928
 L 34.26,33.2456 L 34.6367,33.2456 L 35.0105,33.2928 L 35.3754,33.3865 L 35.7257,33.5251 L 36.0558,33.7066
 L 36.3606,33.9281 L 36.6352,34.186 L 36.8754,34.4763 L 37.0773,34.7944 L 37.2377,35.1353 L 37.3541,35.4936
 L 37.4247,35.8636 L 37.4483,36.2396 L 37.4247,36.6156 L 37.3541,36.9857 L 37.2377,37.344 L 37.0773,37.6849
 L 36.8754,38.003 L 36.6352,38.2933 L 36.3606,38.5512 L 36.0558,38.7726 L 35.7257,38.9541 L 35.3754,39.0928
 L 35.0105,39.1865 L 34.6367,39.2337 z
M 134.26,39.2337 L 133.886,39.1865 L 133.521,39.0928 L 133.171,38.9541 L 132.841,38.7726 L 132.536,38.5512
 L 132.261,38.2933 L 132.021,38.003 L 131.819,37.6849 L 131.659,37.344 L 131.543,36.9857 L 131.472,36.6156
 L 131.448,36.2396 L 131.472,35.8636 L 131.543,35.4936 L 131.659,35.1353 L 131.819,34.7944 L 132.021,34.4763
 L 132.261,34.186 L 132.536,33.9281 L 132.841,33.7066 L 133.171,33.5251 L 133.521,33.3865 L 133.886,33.2928
 L 134.26,33.2456 L 134.637,33.2456 L 135.01,33.2928 L 135.375,33.3865 L 135.726,33.5251 L 136.056,33.7066
 L 136.361,33.9281 L 136.635,34.186 L 136.875,34.4763 L 137.077,34.7944 L 137.238,35.1353 L 137.354,35.4936
 L 137.425,35.8636 L 137.448,36.2396 L 137.425,36.6156 L 137.354,36.9857 L 137.238,37.344 L 137.077,37.6849
 L 136.875,38.003 L 136.635,38.2933 L 136.361,38.5512 L 136.056,38.7726 L 135.726,38.9541 L 135.375,39.0928
 L 135.01,39.1865 L 134.637,39.2337 z
M -30.7937,42.5329 L -31.1674,42.4856 L -31.5323,42.392 L -31.8826,42.2533 L -32.2128,42.0718 L -32.5176,41.8503
 L -32.7922,41.5924 L -33.0323,41.3021 L -33.2342,40.984 L -33.3946,40.6432 L -33.511,40.2849 L -33.5816,39.9148
 L -33.6053,39.5388 L -33.5816,39.1628 L -33.511,38.7927 L -33.3946,38.4344 L -33.2342,38.0935 L -33.0323,37.7754
 L -32.7922,37.4851 L -32.5176,37.2272 L -32.2128,37.0058 L -31.8826,36.8243 L -31.5323,36.6856 L -31.1674,36.5919
 L -30.7937,36.5447 L -30.4169,36.5447 L -30.0432,36.5919 L -29.6782,36.6856 L -29.328,36.8243 L -28.9978,37.0058
 L -28.693,37.2272 L -28.4184,37.4851 L -28.1782,37.7754 L -27.9764,38.0935 L -27.816,38.4344 L -27.6995,38.7927
 L -27.629,39.1628 L -27.6053,39.5388 L -27.629,39.9148 L -27.6995,40.2849 L -27.816,40.6432 L -27.9764,40.984
 L -28.1782,41.3021 L -28.4184,41.5924 L -28.693,41.8503 L -28.9978,42.0718 L -29.328,42.2533 L -29.6782,42.392
 L -30.0432,42.4856 L -30.4169,42.5329 z
M 69.2063,42.5329 L 68.8326,42.4856 L 68.4677,42.392 L 68.1174,42.2533 L 67.7872,42.0718 L 67.4824,41.8503
 L 67.2078,41.5924 L 66.9677,41.3021 L 66.7658,40.984 L 66.6054,40.6432 L 66.489,40.2849 L 66.4184,39.9148
 L 66.3947,39.5388 L 66.4184,39.1628 L 66.489,38.7927 L 66.6054,38.4344 L 66.7658,38.0935 L 66.9677,37.7754
 L 67.2078,37.4851 L 67.4824,37.2272 L 67.7872,37.0058 L 68.1174,36.8243 L 68.4677,36.6856 L 68.8326,36.5919
 L 69.2063,36.5447 L 69.5831,36.5447 L 69.9568,36.5919 L 70.3217,36.6856 L 70.672,36.8243 L 71.0022,37.0058
 L 71.307,37.2272 L 71.5816,37.4851 L 71.8217,37.7754 L 72.0236,38.0935 L 72.184,38.4344 L 72.3004,38.7927
 L 72.371,39.1628 L 72.3947,39.5388 L 72.371,39.9148 L 72.3004,40.2849 L 72.184,40.6432 L 72.0236,40.984
 L 71.8217,41.3021 L 71.5816,41.5924 L 71.307,41.8503 L 71.0022,42.0718 L 70.672,42.2533 L 70.3217,42.392
 L 69.9568,42.4856 L 69.5831,42.5329 z
M 26.2598,45.4263 L 25.886,45.3791 L 25.5211,45.2854 L 25.1709,45.1467 L 24.8407,44.9652 L 24.5359,44.7437
 L 24.2613,44.4859 L 24.0211,44.1956 L 23.8193,43.8775 L 23.6589,43.5366 L 23.5424,43.1783 L 23.4718,42.8082
 L 23.4482,42.4322 L 23.4718,42.0562 L 23.5424,41.6861 L 23.6589,41.3278 L 23.8193,40.987 L 24.0211,40.6689
 L 24.2613,40.3786 L 24.5359,40.1207 L 24.8407,39.8992 L 25.1709,39.7177 L 25.5211,39.579 L 25.886,39.4854
 L 26.2598,39.4381 L 26.6366,39.4381 L 27.0103,39.4854 L 27.3752,39.579 L 27.7255,39.7177 L 28.0557,39.8992
 L 28.3605,40.1207 L 28.6351,40.3786 L 28.8752,40.6689 L 29.0771,40.987 L 29.2375,41.3278 L 29.3539,41.6861
 L 29.4245,42.0562 L 29.4482,42.4322 L 29.4245,42.8082 L 29.3539,43.1783 L 29.2375,43.5366 L 29.0771,43.8775
 L 28.8752,44.1956 L 28.6351,44.4859 L 28.3605,44.7437 L 28.0557,44.9652 L 27.7255,45.1467 L 27.3752,45.2854
 L 27.0103,45.3791 L 26.6366,45.4263 z
M 126.26,45.4263 L 125.886,45.3791 L 125.521,45.2854 L 125.171,45.1467 L 124.841,44.9652 L 124.536,44.7437
 L 124.261,44.4859 L 124.021,44.1956 L 123.819,43.8775 L 123.659,43.5366 L 123.542,43.1783 L 123.472,42.8082
 L 123.448,42.4322 L 123.472,42.0562 L 123.542,41.6861 L 123.659,41.3278 L 123.819,40.987 L 124.021,40.6689
 L 124.261,40.3786 L 124.536,40.1207 L 124.841,39.8992 L 125.171,39.7177 L 125.521,39.579 L 125.886,39.4854
 L 126.26,39.4381 L 126.637,39.4381 L 127.01,39.4854 L 127.375,39.579 L 127.726,39.7177 L 128.056,39.8992
 L 128.36,40.1207 L 128.635,40.3786 L 128.875,40.6689 L 129.077,40.987 L 129.238,41.3278 L 129.354,41.6861
 L 129.425,42.0562 L 129.448,42.4322 L 129.425,42.8082 L 129.354,43.1783 L 129.238,43.5366 L 129.077,43.8775
 L 128.875,44.1956 L 128.635,44.4859 L 128.36,44.7437 L 128.056,44.9652 L 127.726,45.1467 L 127.375,45.2854
 L 127.01,45.3791 L 126.637,45.4263 z
M 77.7919,47.8843 L 77.4182,47.8371 L 77.0532,47.7434 L 76.703,47.6047 L 76.3728,47.4232 L 76.068,47.2018
 L 75.7934,46.9439 L 75.5532,46.6536 L 75.3514,46.3355 L 75.191,45.9946 L 75.0745,45.6363 L 75.004,45.2662
 L 74.9803,44.8902 L 75.004,44.5142 L 75.0745,44.1441 L 75.191,43.7858 L 75.3514,43.445 L 75.5532,43.1269
 L 75.7934,42.8366 L 76.068,42.5787 L 76.3728,42.3572 L 76.703,42.1757 L 77.0532,42.037 L 77.4182,41.9434
 L 77.7919,41.8961 L 78.1687,41.8961 L 78.5424,41.9434 L 78.9073,42.037 L 79.2576,42.1757 L 79.5878,42.3572
 L 79.8926,42.5787 L 80.1672,42.8366 L 80.4073,43.1269 L 80.6092,43.445 L 80.7696,43.7858 L 80.886,44.1441
 L 80.9566,44.5142 L 80.9803,44.8902 L 80.9566,45.2662 L 80.886,45.6363 L 80.7696,45.9946 L 80.6092,46.3355
 L 80.4073,46.6536 L 80.1672,46.9439 L 79.8926,47.2018 L 79.5878,47.4232 L 79.2576,47.6047 L 78.9073,47.7434
 L 78.5424,47.8371 L 78.1687,47.8843 z
M -22.2081,47.8843 L -22.5818,47.8371 L -22.9467,47.7434 L -23.297,47.6047 L -23.6272,47.4232 L -23.932,47.2018
 L -24.2066,46.9439 L -24.4467,46.6536 L -24.6486,46.3355 L -24.809,45.9946 L -24.9254,45.6363 L -24.996,45.2662
 L -25.0197,44.8902 L -24.996,44.5142 L -24.9254,44.1441 L -24.809,43.7858 L -24.6486,43.445 L -24.4467,43.1269
 L -24.2066,42.8366 L -23.932,42.5787 L -23.6272,42.3572 L -23.297,42.1757 L -22.9467,42.037 L -22.5818,41.9434
 L -22.2081,41.8961 L -21.8313,41.8961 L -21.4576,41.9434 L -21.0927,42.037 L -20.7424,42.1757 L -20.4122,42.3572
 L -20.1074,42.5787 L -19.8328,42.8366 L -19.5927,43.1269 L -19.3908,43.445 L -19.2304,43.7858 L -19.114,44.1441
 L -19.0434,44.5142 L -19.0197,44.8902 L -19.0434,45.2662 L -19.114,45.6363 L -19.2304,45.9946 L -19.3908,46.3355
 L -19.5927,46.6536 L -19.8328,46.9439 L -20.1074,47.2018 L -20.4122,47.4232 L -20.7424,47.6047 L -21.0927,47.7434
 L -21.4576,47.8371 L -21.8313,47.8843 z
M 17.1769,49.8817 L 16.8031,49.8345 L 16.4382,49.7408 L 16.0879,49.6021 L 15.7578,49.4206 L 15.453,49.1991
 L 15.1783,48.9412 L 14.9382,48.651 L 14.7363,48.3329 L 14.5759,47.992 L 14.4595,47.6337 L 14.3889,47.2636
 L 14.3652,46.8876 L 14.3889,46.5116 L 14.4595,46.1415 L 14.5759,45.7832 L 14.7363,45.4423 L 14.9382,45.1243
 L 15.1783,44.834 L 15.453,44.5761 L 15.7578,44.3546 L 16.0879,44.1731 L 16.4382,44.0344 L 16.8031,43.9407
 L 17.1769,43.8935 L 17.5536,43.8935 L 17.9274,43.9407 L 18.2923,44.0344 L 18.6426,44.1731 L 18.9727,44.3546
 L 19.2775,44.5761 L 19.5522,44.834 L 19.7923,45.1243 L 19.9942,45.4423 L 20.1546,45.7832 L 20.271,46.1415
 L 20.3416,46.5116 L 20.3652,46.8876 L 20.3416,47.2636 L 20.271,47.6337 L 20.1546,47.992 L 19.9942,48.3329
 L 19.7923,48.651 L 19.5522,48.9412 L 19.2775,49.1991 L 18.9727,49.4206 L 18.6426,49.6021 L 18.2923,49.7408
 L 17.9274,49.8345 L 17.5536,49.8817 z
M 117.177,49.8817 L 116.803,49.8345 L 116.438,49.7408 L 116.088,49.6021 L 115.758,49.4206 L 115.453,49.1991
 L 115.178,48.9412 L 114.938,48.651 L 114.736,48.3329 L 114.576,47.992 L 114.46,47.6337 L 114.389,47.2636
 L 114.365,46.8876 L 114.389,46.5116 L 114.46,46.1415 L 114.576,45.7832 L 114.736,45.4423 L 114.938,45.1243
 L 115.178,44.834 L 115.453,44.5761 L 115.758,44.3546 L 116.088,44.1731 L 116.438,44.0344 L 116.803,43.9407
 L 117.177,43.8935 L 117.554,43.8935 L 117.927,43.9407 L 118.292,44.0344 L 118.643,44.1731 L 118.973,44.3546
 L 119.278,44.5761 L 119.552,44.834 L 119.792,45.1243 L 119.994,45.4423 L 120.155,45.7832 L 120.271,46.1415
 L 120.342,46.5116 L 120.365,46.8876 L 120.342,47.2636 L 120.271,47.6337 L 120.155,47.992 L 119.994,48.3329
 L 119.792,48.651 L 119.552,48.9412 L 119.278,49.1991 L 118.973,49.4206 L 118.643,49.6021 L 118.292,49.7408
 L 117.927,49.8345 L 117.554,49.8817 z
M 87.279,51.3979 L 86.9052,51.3507 L 86.5403,51.257 L 86.19,51.1183 L 85.8599,50.9368 L 85.5551,50.7154
 L 85.2805,50.4575 L 85.0403,50.1672 L 84.8385,49.8491 L 84.678,49.5082 L 84.5616,49.1499 L 84.491,48.7798
 L 84.4674,48.4039 L 84.491,48.0278 L 84.5616,47.6578 L 84.678,47.2995 L 84.8385,46.9586 L 85.0403,46.6405
 L 85.2805,46.3502 L 85.5551,46.0923 L 85.8599,45.8709 L 86.19,45.6894 L 86.5403,45.5507 L 86.9052,45.457
 L 87.279,45.4098 L 87.6557,45.4098 L 88.0295,45.457 L 88.3944,45.5507 L 88.7447,45.6894 L 89.0748,45.8709
 L 89.3796,46.0923 L 89.6543,46.3502 L 89.8944,46.6405 L 90.0963,46.9586 L 90.2567,47.2995 L 90.3731,47.6578
 L 90.4437,48.0278 L 90.4674,48.4039 L 90.4437,48.7798 L 90.3731,49.1499 L 90.2567,49.5082 L 90.0963,49.8491
 L 89.8944,50.1672 L 89.6543,50.4575 L 89.3796,50.7154 L 89.0748,50.9368 L 88.7447,51.1183 L 88.3944,51.257
 L 88.0295,51.3507 L 87.6557,51.3979 z
M -12.721,51.3979 L -13.0948,51.3507 L -13.4597,51.257 L -13.81,51.1183 L -14.1401,50.9368 L -14.4449,50.7154
 L -14.7195,50.4575 L -14.9597,50.1672 L -15.1615,49.8491 L -15.3219,49.5082 L -15.4384,49.1499 L -15.509,48.7798
 L -15.5326,48.4039 L -15.509,48.0278 L -15.4384,47.6578 L -15.3219,47.2995 L -15.1615,46.9586 L -14.9597,46.6405
 L -14.7195,46.3502 L -14.4449,46.0923 L -14.1401,45.8709 L -13.81,45.6894 L -13.4597,45.5507 L -13.0948,45.457
 L -12.721,45.4098 L -12.3443,45.4098 L -11.9705,45.457 L -11.6056,45.5507 L -11.2553,45.6894 L -10.9251,45.8709
 L -10.6203,46.0923 L -10.3457,46.3502 L -10.1056,46.6405 L -9.9037,46.9586 L -9.74329,47.2995 L -9.62688,47.6578
 L -9.55627,48.0278 L -9.53262,48.4039 L -9.55627,48.7798 L -9.62688,49.1499 L -9.74329,49.5082 L -9.9037,49.8491
 L -10.1056,50.1672 L -10.3457,50.4575 L -10.6203,50.7154 L -10.9251,50.9368 L -11.2553,51.1183 L -11.6056,51.257
 L -11.9705,51.3507 L -12.3443,51.3979 z
M 7.38301,52.4175 L 7.00923,52.3703 L 6.64433,52.2766 L 6.29404,52.1379 L 5.9639,51.9564 L 5.6591,51.735
 L 5.38448,51.4771 L 5.14433,51.1868 L 4.94246,50.8687 L 4.78206,50.5278 L 4.66563,50.1695 L 4.59503,49.7994
 L 4.57138,49.4234 L 4.59503,49.0474 L 4.66563,48.6773 L 4.78206,48.319 L 4.94246,47.9781 L 5.14433,47.66
 L 5.38448,47.3698 L 5.6591,47.1119 L 5.9639,46.8904 L 6.29404,46.7089 L 6.64433,46.5702 L 7.00923,46.4765
 L 7.38301,46.4293 L 7.75975,46.4293 L 8.13353,46.4765 L 8.49843,46.5702 L 8.84872,46.7089 L 9.17886,46.8904
 L 9.48366,47.1119 L 9.75829,47.3698 L 9.99843,47.66 L 10.2003,47.9781 L 10.3607,48.319 L 10.4771,48.6773
 L 10.5477,49.0474 L 10.5714,49.4234 L 10.5477,49.7994 L 10.4771,50.1695 L 10.3607,50.5278 L 10.2003,50.8687
 L 9.99843,51.1868 L 9.75829,51.4771 L 9.48366,51.735 L 9.17886,51.9564 L 8.84872,52.1379 L 8.49843,52.2766
 L 8.13353,52.3703 L 7.75975,52.4175 z
M 107.383,52.4175 L 107.009,52.3703 L 106.644,52.2766 L 106.294,52.1379 L 105.964,51.9564 L 105.659,51.735
 L 105.384,51.4771 L 105.144,51.1868 L 104.942,50.8687 L 104.782,50.5278 L 104.666,50.1695 L 104.595,49.7994
 L 104.571,49.4234 L 104.595,49.0474 L 104.666,48.6773 L 104.782,48.319 L 104.942,47.9781 L 105.144,47.66
 L 105.384,47.3698 L 105.659,47.1119 L 105.964,46.8904 L 106.294,46.7089 L 106.644,46.5702 L 107.009,46.4765
 L 107.383,46.4293 L 107.76,46.4293 L 108.134,46.4765 L 108.498,46.5702 L 108.849,46.7089 L 109.179,46.8904
 L 109.484,47.1119 L 109.758,47.3698 L 109.998,47.66 L 110.2,47.9781 L 110.361,48.319 L 110.477,48.6773
 L 110.548,49.0474 L 110.571,49.4234 L 110.548,49.7994 L 110.477,50.1695 L 110.361,50.5278 L 110.2,50.8687
 L 109.998,51.1868 L 109.758,51.4771 L 109.484,51.735 L 109.179,51.9564 L 108.849,52.1379 L 108.498,52.2766
 L 108.134,52.3703 L 107.76,52.4175 z
M -2.72083,52.9299 L -3.09459,52.8827 L -3.4595,52.789 L -3.80978,52.6503 L -4.13994,52.4688 L -4.44472,52.2474
 L -4.71936,51.9895 L -4.9595,51.6992 L -5.16138,51.3811 L -5.32178,51.0402 L -5.4382,50.6819 L -5.50879,50.3118
 L -5.53246,49.9358 L -5.50879,49.5598 L -5.4382,49.1897 L -5.32178,48.8315 L -5.16138,48.4906 L -4.9595,48.1725
 L -4.71936,47.8822 L -4.44472,47.6243 L -4.13994,47.4028 L -3.80978,47.2213 L -3.4595,47.0827 L -3.09459,46.989
 L -2.72083,46.9417 L -2.34409,46.9417 L -1.97031,46.989 L -1.60539,47.0827 L -1.25511,47.2213 L -0.924973,47.4028
 L -0.620178,47.6243 L -0.345551,47.8822 L -0.105392,48.1725 L 0.0964508,48.4906 L 0.256866,48.8315 L 0.373291,49.1897
 L 0.443878,49.5598 L 0.467529,49.9358 L 0.443878,50.3118 L 0.373291,50.6819 L 0.256866,51.0402 L 0.0964508,51.3811
 L -0.105392,51.6992 L -0.345551,51.9895 L -0.620178,52.2474 L -0.924973,52.4688 L -1.25511,52.6503 L -1.60539,52.789
 L -1.97031,52.8827 L -2.34409,52.9299 z
M 97.2792,52.9299 L 96.9054,52.8827 L 96.5405,52.789 L 96.1902,52.6503 L 95.8601,52.4688 L 95.5553,52.2474
 L 95.2806,51.9895 L 95.0405,51.6992 L 94.8386,51.3811 L 94.6782,51.0402 L 94.5618,50.6819 L 94.4912,50.3118
 L 94.4675,49.9358 L 94.4912,49.5598 L 94.5618,49.1897 L 94.6782,48.8315 L 94.8386,48.4906 L 95.0405,48.1725
 L 95.2806,47.8822 L 95.5553,47.6243 L 95.8601,47.4028 L 96.1902,47.2213 L 96.5405,47.0827 L 96.9054,46.989
 L 97.2792,46.9417 L 97.6559,46.9417 L 98.0297,46.989 L 98.3946,47.0827 L 98.7449,47.2213 L 99.075,47.4028
 L 99.3798,47.6243 L 99.6544,47.8822 L 99.8946,48.1725 L 100.096,48.4906 L 100.257,48.8315 L 100.373,49.1897
 L 100.444,49.5598 L 100.468,49.9358 L 100.444,50.3118 L 100.373,50.6819 L 100.257,51.0402 L 100.096,51.3811
 L 99.8946,51.6992 L 99.6544,51.9895 L 99.3798,52.2474 L 99.075,52.4688 L 98.7449,52.6503 L 98.3946,52.789
 L 98.0297,52.8827 L 97.6559,52.9299 z
M -0.18837,62.9941 L -0.562134,62.9469 L -0.927048,62.8532 L -1.27733,62.7145 L -1.60747,62.533 L -1.91226,62.3115
 L -2.1869,62.0536 L -2.42705,61.7634 L -2.62891,61.4453 L -2.78932,61.1044 L -2.90575,60.7461 L -2.97633,60.376
 L -3,60 L -2.97633,59.624 L -2.90575,59.2539 L -2.78932,58.8956 L -2.62891,58.5547 L -2.42705,58.2366
 L -2.1869,57.9464 L -1.91226,57.6885 L -1.60747,57.467 L -1.27733,57.2855 L -0.927048,57.1468 L -0.562134,57.0531
 L -0.18837,57.0059 L 0.18837,57.0059 L 0.562134,57.0531 L 0.927048,57.1468 L 1.27733,57.2855 L 1.60747,57.467
 L 1.91226,57.6885 L 2.1869,57.9464 L 2.42705,58.2366 L 2.62891,58.5547 L 2.78932,58.8956 L 2.90575,59.2539
 L 2.97633,59.624 L 3,60 L 2.97633,60.376 L 2.90575,60.7461 L 2.78932,61.1044 L 2.62891,61.4453
 L 2.42705,61.7634 L 2.1869,62.0536 L 1.91226,62.3115 L 1.60747,62.533 L 1.27733,62.7145 L 0.927048,62.8532
 L 0.562134,62.9469 L 0.18837,62.9941 z
M 99.8116,62.9941 L 99.4379,62.9469 L 99.073,62.8532 L 98.7227,62.7145 L 98.3925,62.533 L 98.0877,62.3115
 L 97.8131,62.0536 L 97.573,61.7634 L 97.3711,61.4453 L 97.2107,61.1044 L 97.0943,60.7461 L 97.0237,60.376
 L 97,60 L 97.0237,59.624 L 97.0943,59.2539 L 97.2107,58.8956 L 97.3711,58.5547 L 97.573,58.2366
 L 97.8131,57.9464 L 98.0877,57.6885 L 98.3925,57.467 L 98.7227,57.2855 L 99.073,57.1468 L 99.4379,57.0531
 L 99.8116,57.0059 L 100.188,57.0059 L 100.562,57.0531 L 100.927,57.1468 L 101.277,57.2855 L 101.607,57.467
 L 101.912,57.6885 L 102.187,57.9464 L 102.427,58.2366 L 102.629,58.5547 L 102.789,58.8956 L 102.906,59.2539
 L 102.976,59.624 L 103,60 L 102.976,60.376 L 102.906,60.7461 L 102.789,61.1044 L 102.629,61.4453
 L 102.427,61.7634 L 102.187,62.0536 L 101.912,62.3115 L 101.607,62.533 L 101.277,62.7145 L 100.927,62.8532
 L 100.562,62.9469 L 100.188,62.9941 z
" stroke="black" fill="lightgray" stroke-width="0.5"/>
</svg>
